<svg width="81" height="80" viewBox="0 0 81 80" fill="none" xmlns="http://www.w3.org/2000/svg">
<path d="M6.51709 19.5289C7.32232 18.9534 8.27909 18.6277 9.26816 18.5923C10.3143 18.5923 11.3448 18.8465 12.2709 19.3332C13.197 19.8198 13.9909 20.5242 14.5843 21.3858C15.1086 22.2183 15.3785 23.1858 15.361 24.1695C15.3331 25.2635 15.042 26.3348 14.5125 27.2926L12.6621 30.8236L2.57812 25.5271L4.42851 22.0026C4.91598 21.0222 5.63236 20.1738 6.51709 19.5289V19.5289ZM13.1778 23.5494C12.9036 22.6683 12.2422 21.9525 11.1936 21.4021C10.1449 20.8517 9.16592 20.7092 8.25651 20.9746C7.36233 21.2422 6.63676 21.9057 6.0798 22.9653L5.3292 24.3947L12.0062 27.8865L12.7568 26.4539C13.3116 25.4009 13.4519 24.4327 13.1778 23.5494Z" fill="#BA4A4A"/>
<path d="M11.4513 12.0815L19.8612 19.7604L18.3209 21.4476L9.91101 13.7687L11.4513 12.0815Z" fill="#BA4A4A"/>
<path d="M22.2011 17.1988C21.5666 17.3374 20.9062 17.299 20.292 17.0878C19.6828 16.8645 19.159 16.456 18.7941 15.9195L20.8109 14.5293C20.9332 14.6984 21.0879 14.8415 21.2661 14.9502C21.4443 15.0589 21.6423 15.131 21.8486 15.1624C22.2951 15.204 22.7407 15.0746 23.0953 14.8002C23.4805 14.5651 23.7697 14.2008 23.9111 13.7722C23.9651 13.5885 23.9758 13.3948 23.9424 13.2062C23.909 13.0177 23.8324 12.8394 23.7186 12.6855C23.5527 12.4263 23.2911 12.2433 22.9908 12.1764C22.6846 12.1081 22.367 12.1081 22.0608 12.1764C21.619 12.2796 21.1832 12.4071 20.7554 12.5582C20.1508 12.7651 19.5325 12.9298 18.905 13.051C18.394 13.1385 17.8693 13.0981 17.3777 12.9335C16.8002 12.7229 16.3112 12.3225 15.9908 11.7978C15.6245 11.2917 15.4208 10.6862 15.4066 10.0617C15.4058 9.43999 15.5849 8.83136 15.9222 8.30921C16.3104 7.70652 16.8193 7.19091 17.4169 6.79497C18.2345 6.17602 19.2374 5.85169 20.2626 5.87468C20.7248 5.90361 21.1751 6.03307 21.582 6.25402C21.989 6.47498 22.3428 6.78209 22.6188 7.15394L20.5498 8.58008C20.4364 8.42911 20.2916 8.30453 20.1254 8.21495C19.9592 8.12537 19.7755 8.0729 19.5871 8.06118C19.1445 8.04107 18.7089 8.17739 18.3568 8.44626C18.0264 8.6472 17.7822 8.96347 17.6714 9.33393C17.6291 9.51496 17.6283 9.70321 17.669 9.88461C17.7097 10.066 17.7908 10.2359 17.9064 10.3815C17.9826 10.4994 18.0821 10.6005 18.1988 10.6786C18.3156 10.7566 18.4471 10.8099 18.5852 10.8351C18.8819 10.8859 19.1857 10.8781 19.4794 10.8123C19.8057 10.7437 20.2267 10.623 20.7848 10.45C21.3917 10.2407 22.0135 10.077 22.6449 9.9605C23.1638 9.87528 23.6956 9.9167 24.195 10.0812C24.7725 10.2885 25.2625 10.6854 25.5853 11.2071C25.9277 11.6975 26.1255 12.2742 26.1564 12.8715C26.1872 13.5053 26.0367 14.1347 25.7223 14.6859C25.3496 15.3376 24.8272 15.8913 24.1983 16.3013C23.6009 16.7339 22.9212 17.0393 22.2011 17.1988V17.1988Z" fill="#BA4A4A"/>
<path d="M26.3979 4.82367C26.6559 3.86282 27.173 2.9913 27.8926 2.30429C28.6412 1.59631 29.563 1.09773 30.5653 0.858589C31.7112 0.540952 32.927 0.584257 34.0474 0.982601C35.132 1.37829 36.0517 2.12786 36.6581 3.11037L34.1127 3.76305C33.7609 3.32451 33.2821 3.00538 32.742 2.84929C32.1885 2.69926 31.6051 2.69926 31.0516 2.84929C30.4445 2.99089 29.8887 3.29817 29.446 3.73694C29.0187 4.16821 28.7243 4.713 28.5975 5.30665C28.461 5.98182 28.4867 6.67973 28.6725 7.34303C28.8262 8.01145 29.1372 8.63352 29.5798 9.1575C29.9744 9.62125 30.4945 9.96121 31.0777 10.1365C31.6752 10.305 32.3077 10.305 32.9052 10.1365C33.4648 10.007 33.9791 9.72844 34.3933 9.33047C34.7895 8.92998 35.0556 8.41931 35.157 7.86519L37.7025 7.2125C37.6466 8.36795 37.2002 9.47021 36.4362 10.3389C35.6762 11.1443 34.7156 11.7332 33.653 12.0451C32.5904 12.3571 31.4639 12.3809 30.3891 12.1142C29.4293 11.8571 28.5582 11.3425 27.8697 10.626C27.1592 9.85337 26.6517 8.91621 26.3931 7.89883C26.1345 6.88145 26.1328 5.81576 26.3881 4.79755L26.3979 4.82367Z" fill="#BA4A4A"/>
<path d="M41.9645 10.4627C41.1608 9.85481 40.5353 9.04218 40.1533 8.10975C39.7716 7.12973 39.6477 6.06817 39.7933 5.02658C39.939 3.98498 40.3495 2.99816 40.9855 2.1605C41.6082 1.36757 42.4336 0.757585 43.3743 0.394988C44.3359 0.0321803 45.3733 -0.0832499 46.3911 0.0593033C47.4089 0.201856 48.3746 0.597825 49.1995 1.21085C49.9994 1.81937 50.6206 2.63215 50.9977 3.56377C51.3734 4.54451 51.4938 5.60461 51.3477 6.64463C51.2016 7.68465 50.7937 8.67052 50.1622 9.50975C49.5443 10.3042 48.722 10.9156 47.7832 11.2785C46.8227 11.6414 45.7864 11.7568 44.7696 11.6143C43.7528 11.4717 42.7882 11.0757 41.9645 10.4627ZM46.9119 9.38247C47.4779 9.14296 47.9629 8.74524 48.3086 8.23701C48.6948 7.66024 48.9396 7.00063 49.0233 6.31159C49.1341 5.62763 49.0792 4.92708 48.8634 4.26868C48.6709 3.68874 48.3123 3.1781 47.8321 2.80014C47.3252 2.41437 46.7227 2.17406 46.0895 2.10502C45.4606 2.00463 44.8164 2.07333 44.2228 2.30409C43.655 2.53575 43.168 2.92964 42.8228 3.43651C42.4324 4.00868 42.1871 4.66726 42.1081 5.35541C41.9974 6.04046 42.0523 6.74203 42.268 7.40157C42.4589 7.98861 42.8187 8.50627 43.3025 8.88969C43.81 9.26923 44.4052 9.51433 45.0328 9.60219C45.6604 9.69006 46.3001 9.61785 46.8923 9.39227L46.9119 9.38247Z" fill="#BA4A4A"/>
<path d="M65.7941 8.25016L56.3889 15.916L54.0033 14.4996L56.2224 2.57178L58.3273 3.82168L56.3986 13.2008L63.712 7.00026L65.7941 8.25016Z" fill="#BA4A4A"/>
<path d="M68.8584 14.1438L66.7046 16.017L69.2207 18.9117L67.8533 20.0996L65.3372 17.2049L63.0528 19.1858L65.8887 22.4493L64.4854 23.6698L60.1548 18.6832L68.767 11.2002L73.1009 16.19L71.6976 17.4105L68.8584 14.1438Z" fill="#BA4A4A"/>
<path d="M67.6281 30.0762L70.6761 25.9871L70.2421 25.0081L66.1824 26.7964L65.2621 24.7079L75.6855 20.1162L77.4086 24.0323C77.7411 24.7343 77.9053 25.5042 77.8883 26.2808C77.8733 26.9209 77.6689 27.5421 77.3009 28.0659C76.9346 28.5676 76.4396 28.9611 75.8682 29.2049C75.2031 29.504 74.4592 29.5807 73.747 29.4235C72.9743 29.2417 72.2917 28.7904 71.8216 28.1508L68.692 32.5042L67.6281 30.0762ZM71.8118 24.313L72.582 26.0589C72.665 26.2963 72.7943 26.5148 72.9623 26.7019C73.1304 26.889 73.3339 27.0409 73.561 27.1489C73.7759 27.226 74.0044 27.2583 74.2323 27.2437C74.4601 27.2291 74.6826 27.168 74.8859 27.0641C75.0959 26.9856 75.2872 26.8641 75.4474 26.7073C75.6076 26.5505 75.7331 26.3618 75.816 26.1536C75.9484 25.6696 75.89 25.1533 75.6528 24.7111L74.8827 22.9652L71.8118 24.313Z" fill="#BA4A4A"/>
<path d="M80.6492 45.14L78.8054 45.0975L78.8739 42.0626L69.3316 41.8439L69.3838 39.5595L78.9261 39.7782L78.9979 36.7432L80.8417 36.7856L80.6492 45.14Z" fill="#BA4A4A"/>
<path d="M76.6156 58.4969L65.9312 54.5547L66.7209 52.4106L71.2669 54.088L72.9573 49.5192L68.4114 47.8386L69.2011 45.6978L79.8856 49.6432L79.0958 51.784L74.7033 50.1523L73.0128 54.7211L77.4054 56.3528L76.6156 58.4969Z" fill="#BA4A4A"/>
<path d="M71.0351 63.4216L68.8062 61.63L66.4076 64.6225L64.9945 63.4869L67.3964 60.4975L65.0434 58.608L62.3348 61.9791L60.8826 60.8141L65.0174 55.6611L73.9135 62.8048L69.7754 67.9545L68.3265 66.7894L71.0351 63.4216Z" fill="#BA4A4A"/>
<path d="M53.0438 73.0519C53.0646 72.4149 53.2761 71.7987 53.6508 71.2831C54.1306 70.6389 54.7601 70.1214 55.4849 69.7754L57.1786 68.8943L55.1585 65.0141L57.1851 63.96L62.4458 74.0766L58.7255 76.0118C58.0501 76.3962 57.2951 76.6195 56.5194 76.6645C55.8801 76.693 55.247 76.5294 54.7017 76.1946C54.1874 75.8552 53.7664 75.3926 53.4768 74.8488C53.1872 74.305 53.0384 73.6973 53.0438 73.0813V73.0519ZM55.3804 72.3992C55.3121 72.6154 55.2908 72.8437 55.3178 73.0688C55.3448 73.2939 55.4195 73.5107 55.5371 73.7046C56.0462 74.6836 56.8425 74.8925 57.9553 74.3214L59.5609 73.4827L58.0303 70.5456L56.4248 71.381C55.9596 71.575 55.5861 71.9392 55.3804 72.3992V72.3992Z" fill="#BA4A4A"/>
<path d="M43.2568 68.9108L46.4354 72.902L47.4993 72.7323L46.8009 68.3528L49.0592 67.9971L50.8475 79.2429L46.6247 79.9151C45.8653 80.0567 45.0836 80.0209 44.3403 79.8107C43.7273 79.6315 43.1804 79.2763 42.7673 78.7892C42.3455 78.2629 42.0824 77.6273 42.009 76.9568C41.9356 76.2863 42.0549 75.6088 42.3529 75.0037C42.7279 74.3041 43.3382 73.7596 44.0759 73.4666L40.6461 69.3318L43.2568 68.9108ZM47.7702 74.4228L45.8839 74.723C45.6339 74.7398 45.3897 74.8062 45.1656 74.9182C44.9415 75.0303 44.742 75.1858 44.5785 75.3757C44.4483 75.5639 44.3584 75.7771 44.3146 76.0017C44.2708 76.2264 44.274 76.4577 44.324 76.6811C44.3465 76.9048 44.4163 77.1212 44.5289 77.3158C44.6414 77.5105 44.794 77.679 44.9766 77.8102C45.4118 78.062 45.9271 78.1368 46.4158 78.0191L48.3021 77.7221L47.7702 74.4228Z" fill="#BA4A4A"/>
<path d="M37.1966 69.586C37.9538 70.2482 38.5177 71.1029 38.8283 72.0597C39.1428 73.063 39.1939 74.1303 38.9767 75.159C38.7596 76.1878 38.2814 77.1434 37.5882 77.9339C36.9131 78.6826 36.0483 79.2351 35.0851 79.533C34.1006 79.8279 33.0578 79.8713 32.0522 79.6592C31.0465 79.4472 30.11 78.9863 29.3284 78.319C28.5725 77.657 28.0089 76.8036 27.6967 75.8485C27.3891 74.8445 27.3415 73.7788 27.5584 72.7514C27.7753 71.7239 28.2496 70.7684 28.9368 69.9744C29.6085 69.2247 30.4715 68.672 31.4333 68.3753C32.4148 68.0715 33.4583 68.0277 34.4618 68.248C35.4751 68.4459 36.4184 68.9074 37.1966 69.586V69.586ZM32.1872 70.3105C31.6055 70.5114 31.0943 70.8763 30.7154 71.3613C30.3018 71.915 30.0137 72.5522 29.8711 73.2284C29.7285 73.9047 29.7349 74.6039 29.8897 75.2774C30.0414 75.8695 30.3637 76.404 30.8165 76.8145C31.3011 77.2218 31.8786 77.5034 32.4979 77.6343C33.1172 77.7652 33.7592 77.7415 34.3671 77.5651C34.9507 77.3745 35.465 77.0157 35.8455 76.5339C36.2575 75.9793 36.5446 75.3422 36.6872 74.6662C36.8297 73.9902 36.8242 73.2914 36.6712 72.6178C36.5205 72.0189 36.197 71.4776 35.7411 71.0611C35.2647 70.6381 34.6829 70.3517 34.0571 70.2322C33.4383 70.0878 32.7918 70.1149 32.1872 70.3105Z" fill="#BA4A4A"/>
<path d="M16.4901 72.6313L20.7326 65.8467C21.32 64.9068 22.0477 64.3455 22.9158 64.1627C23.85 63.9961 24.8121 64.2061 25.5918 64.7469C26.4367 65.2223 27.0605 66.0113 27.328 66.9432C27.5608 67.8352 27.378 68.7598 26.7797 69.7171L24.8412 68.5096C25.0715 68.1704 25.1797 67.7631 25.148 67.3544C25.1199 67.1737 25.0506 67.002 24.9453 66.8526C24.84 66.7032 24.7016 66.58 24.541 66.4928C24.3963 66.3895 24.2299 66.3208 24.0545 66.292C23.8791 66.2631 23.6995 66.2749 23.5293 66.3264C23.1688 66.4654 22.8692 66.7279 22.6841 67.0672L18.4417 73.8486L16.4901 72.6313Z" fill="#BA4A4A"/>
<path d="M12.4174 66.4109L14.5451 64.5083L11.9899 61.6495L13.3409 60.4421L15.8962 63.3008L18.148 61.2905L15.2663 58.0663L16.6533 56.8262L21.0557 61.754L12.5512 69.3545L8.1488 64.4365L9.53576 63.1964L12.4174 66.4109Z" fill="#BA4A4A"/>
<path d="M7.63642 59.1335C6.64747 59.0206 5.70896 58.6366 4.92451 58.0239C4.11365 57.3876 3.48451 56.5491 3.10026 55.5927C2.61923 54.5055 2.48477 53.2965 2.71518 52.1301C2.94519 50.9971 3.55262 49.9755 4.43826 49.2322L5.45318 51.6537C5.07066 52.0667 4.82456 52.5874 4.74829 53.1451C4.68355 53.714 4.77257 54.2899 5.00609 54.8127C5.23435 55.3911 5.61843 55.8948 6.11567 56.2682C6.60709 56.6256 7.18992 56.8361 7.79632 56.8752C8.48144 56.8972 9.16329 56.7716 9.79561 56.507C10.4279 56.2423 10.996 55.8448 11.4612 55.3414C11.8639 54.8811 12.1256 54.3146 12.215 53.7096C12.2973 53.094 12.2093 52.4676 11.9605 51.8984C11.7487 51.3638 11.397 50.896 10.9423 50.5441C10.4886 50.209 9.94297 50.021 9.3791 50.0057L8.36742 47.5809C9.51407 47.4684 10.6649 47.7492 11.6309 48.3772C12.6225 49.0371 13.387 49.9862 13.8206 51.0956C14.2323 52.0394 14.3888 53.0747 14.2742 54.098C14.1601 55.085 13.7774 56.0219 13.1679 56.8066C12.5084 57.6235 11.656 58.2633 10.6874 58.6683C9.71891 59.0734 8.66476 59.231 7.6201 59.1269L7.63642 59.1335Z" fill="#BA4A4A"/>
<path d="M0 37.8987L1.84383 37.8105L1.99069 40.8423L11.5232 40.3789L11.6341 42.6633L2.10165 43.1267L2.24849 46.1584L0.404662 46.2465L0 37.8987Z" fill="#BA4A4A"/>
</svg>
