<svg width="36" height="36" viewBox="0 0 36 36" fill="none" xmlns="http://www.w3.org/2000/svg">
<path d="M18 36C27.9411 36 36 27.9411 36 18C36 8.05887 27.9411 0 18 0C8.05887 0 0 8.05887 0 18C0 27.9411 8.05887 36 18 36Z" fill="#ED9200"/>
<path d="M30.1384 21.3203C30.091 21.4522 29.9934 21.5601 29.8669 21.6203C29.7403 21.6805 29.595 21.6882 29.4628 21.6418L28.6091 21.3358C27.8997 23.5943 26.4882 25.5675 24.5799 26.9683C22.6716 28.3692 20.366 29.1246 17.9987 29.1246C15.6314 29.1246 13.3259 28.3692 11.4176 26.9683C9.50929 25.5675 8.09777 23.5943 7.38839 21.3358L6.53016 21.6418C6.47275 21.6619 6.41229 21.6719 6.35146 21.6713C6.22614 21.6714 6.10483 21.6272 6.00894 21.5465C5.91305 21.4658 5.84874 21.3539 5.82737 21.2304C5.806 21.1069 5.82894 20.9798 5.89213 20.8716C5.95532 20.7634 6.05469 20.681 6.17273 20.6389L8.93703 19.6534C9.00315 19.6274 9.07381 19.615 9.14483 19.6168C9.21585 19.6187 9.28577 19.6348 9.35045 19.6642C9.41513 19.6936 9.47324 19.7356 9.52134 19.7879C9.56945 19.8402 9.60655 19.9016 9.63046 19.9685C9.65437 20.0354 9.66461 20.1064 9.66054 20.1774C9.65647 20.2483 9.63818 20.3177 9.60678 20.3814C9.57538 20.4452 9.5315 20.5019 9.47773 20.5484C9.42397 20.5948 9.36143 20.63 9.29381 20.6518L8.38481 20.979C9.02307 23.0288 10.3 24.8208 12.029 26.0933C13.7581 27.3659 15.8487 28.0523 17.9955 28.0523C20.1424 28.0523 22.233 27.3659 23.962 26.0933C25.6911 24.8208 26.968 23.0288 27.6062 20.979L26.6889 20.6518C26.6213 20.63 26.5587 20.5948 26.5049 20.5484C26.4512 20.5019 26.4073 20.4452 26.3759 20.3814C26.3445 20.3177 26.3262 20.2483 26.3222 20.1774C26.3181 20.1064 26.3283 20.0354 26.3522 19.9685C26.3761 19.9016 26.4132 19.8402 26.4613 19.7879C26.5094 19.7356 26.5675 19.6936 26.6322 19.6642C26.6969 19.6348 26.7668 19.6187 26.8378 19.6168C26.9089 19.615 26.9795 19.6274 27.0457 19.6534L28.3796 20.1291L28.4728 20.1632L29.8151 20.6389C29.8815 20.6618 29.9427 20.6977 29.995 20.7445C30.0474 20.7914 30.0899 20.8482 30.12 20.9117C30.1501 20.9751 30.1673 21.044 30.1704 21.1141C30.1736 21.1843 30.1627 21.2544 30.1384 21.3203V21.3203Z" fill="#FAF5ED"/>
<path d="M26.1747 11.119C26.4152 10.8785 26.4152 10.4886 26.1747 10.2481C25.9342 10.0075 25.5443 10.0075 25.3038 10.2481L21.725 13.8269C21.4845 14.0674 21.4845 14.4573 21.725 14.6978C21.9655 14.9383 22.3554 14.9383 22.5959 14.6978L26.1747 11.119Z" fill="#FAF5ED"/>
<path d="M25.3039 14.6979C25.5444 14.9384 25.9344 14.9384 26.1749 14.6979C26.4154 14.4574 26.4154 14.0675 26.1749 13.8269L22.5961 10.2481C22.3555 10.0076 21.9656 10.0076 21.7251 10.2481C21.4846 10.4886 21.4846 10.8786 21.7251 11.1191L25.3039 14.6979Z" fill="#FAF5ED"/>
<path d="M12.006 10.4143C12.0651 10.3284 12.1441 10.2581 12.2364 10.2096C12.3287 10.161 12.4314 10.1357 12.5357 10.1357C12.64 10.1357 12.7427 10.161 12.835 10.2096C12.9272 10.2581 13.0063 10.3284 13.0654 10.4143L15.3797 13.7797C15.4458 13.8762 15.4843 13.9889 15.4911 14.1057C15.4978 14.2225 15.4726 14.3389 15.4181 14.4424C15.3636 14.5459 15.2819 14.6326 15.1818 14.6931C15.0817 14.7536 14.967 14.7856 14.85 14.7857H10.2214C10.1042 14.7858 9.98926 14.7538 9.88895 14.6932C9.78863 14.6326 9.70678 14.5458 9.65224 14.4421C9.5977 14.3384 9.57255 14.2217 9.5795 14.1047C9.58646 13.9878 9.62525 13.8749 9.69169 13.7784L12.006 10.4143Z" fill="#FAF5ED"/>
</svg>
