<svg width="35" height="35" viewBox="0 0 35 35" fill="none" xmlns="http://www.w3.org/2000/svg">
<path d="M34 17.5C34 26.6127 26.6127 34 17.5 34C8.3873 34 1 26.6127 1 17.5C1 8.3873 8.3873 1 17.5 1C26.6127 1 34 8.3873 34 17.5Z" stroke="#ED9200" stroke-width="2"/>
<path d="M25.4478 10.8102C25.6816 10.5763 25.6816 10.1972 25.4478 9.96339C25.214 9.72956 24.8349 9.72956 24.601 9.96339L21.1216 13.4428C20.8878 13.6766 20.8878 14.0557 21.1216 14.2896C21.3555 14.5234 21.7346 14.5234 21.9684 14.2896L25.4478 10.8102Z" fill="#ED9200" stroke="#ED9200"/>
<path d="M24.6011 14.2896C24.8349 14.5235 25.214 14.5235 25.4478 14.2896C25.6817 14.0558 25.6817 13.6767 25.4478 13.4429L21.9684 9.96347C21.7346 9.72964 21.3555 9.72964 21.1217 9.96347C20.8878 10.1973 20.8878 10.5764 21.1217 10.8102L24.6011 14.2896Z" fill="#ED9200" stroke="#ED9200"/>
<path d="M11.6726 10.125C11.73 10.0415 11.8069 9.97317 11.8966 9.92598C11.9863 9.87878 12.0862 9.85413 12.1876 9.85413C12.2889 9.85413 12.3888 9.87878 12.4785 9.92598C12.5682 9.97317 12.6451 10.0415 12.7026 10.125L14.9526 13.3969C15.0168 13.4907 15.0542 13.6003 15.0608 13.7138C15.0674 13.8274 15.0429 13.9406 14.9899 14.0412C14.9369 14.1418 14.8575 14.2261 14.7601 14.2849C14.6628 14.3437 14.5513 14.3749 14.4376 14.375H9.93755C9.82363 14.375 9.71186 14.3439 9.61433 14.285C9.5168 14.2262 9.43722 14.1417 9.3842 14.0409C9.33117 13.9401 9.30672 13.8266 9.31348 13.7129C9.32024 13.5992 9.35796 13.4895 9.42255 13.3956L11.6726 10.125Z" fill="#ED9200" stroke="#ED9200"/>
<path d="M29.3013 20.7281C29.2552 20.8564 29.1603 20.9612 29.0373 21.0197C28.9142 21.0783 28.773 21.0858 28.6444 21.0406L27.8144 20.7431C27.1247 22.9389 25.7524 24.8573 23.8971 26.2192C22.0418 27.5812 19.8003 28.3156 17.4988 28.3156C15.1973 28.3156 12.9558 27.5812 11.1005 26.2192C9.24518 24.8573 7.87286 22.9389 7.18319 20.7431L6.3488 21.0406C6.29299 21.0602 6.23421 21.0699 6.17506 21.0694C6.05323 21.0694 5.93528 21.0264 5.84206 20.948C5.74883 20.8696 5.68631 20.7607 5.66553 20.6407C5.64475 20.5206 5.66706 20.3971 5.72849 20.2919C5.78993 20.1867 5.88654 20.1065 6.0013 20.0656L8.68881 19.1075C8.7531 19.0822 8.82179 19.0701 8.89084 19.0719C8.95989 19.0737 9.02786 19.0894 9.09075 19.118C9.15363 19.1465 9.21013 19.1874 9.2569 19.2383C9.30366 19.2891 9.33974 19.3488 9.36298 19.4139C9.38623 19.4789 9.39618 19.5479 9.39222 19.6169C9.38827 19.6859 9.37049 19.7533 9.33996 19.8153C9.30943 19.8772 9.26677 19.9324 9.2145 19.9776C9.16223 20.0227 9.10142 20.0569 9.03568 20.0781L8.15193 20.3962C8.77246 22.3891 10.0139 24.1313 11.6949 25.3685C13.3759 26.6057 15.4085 27.273 17.4957 27.273C19.5829 27.273 21.6154 26.6057 23.2964 25.3685C24.9775 24.1313 26.2189 22.3891 26.8394 20.3962L25.9475 20.0781C25.8818 20.0569 25.821 20.0227 25.7687 19.9776C25.7165 19.9324 25.6738 19.8772 25.6433 19.8153C25.6127 19.7533 25.595 19.6859 25.591 19.6169C25.5871 19.5479 25.597 19.4789 25.6202 19.4139C25.6435 19.3488 25.6796 19.2891 25.7263 19.2383C25.7731 19.1874 25.8296 19.1465 25.8925 19.118C25.9554 19.0894 26.0233 19.0737 26.0924 19.0719C26.1614 19.0701 26.2302 19.0822 26.2944 19.1075L27.5913 19.57L27.6819 19.6031L28.9869 20.0656C29.0515 20.0879 29.111 20.1228 29.1619 20.1683C29.2128 20.2139 29.2541 20.2691 29.2834 20.3308C29.3127 20.3925 29.3293 20.4594 29.3324 20.5276C29.3355 20.5959 29.3249 20.664 29.3013 20.7281Z" fill="#ED9200" stroke="#ED9200"/>
</svg>
