<svg width="4" height="4" viewBox="0 0 4 4" fill="none" xmlns="http://www.w3.org/2000/svg">
<path d="M1.52103 3.56643C1.4232 3.56643 1.33217 3.54061 1.24793 3.48898C1.16641 3.44007 1.09983 3.37349 1.0482 3.28925C0.999289 3.20501 0.974832 3.11262 0.974832 3.01208C0.974832 2.86534 1.02918 2.74034 1.13788 2.63708C1.24929 2.53382 1.38788 2.47404 1.55364 2.45773L1.51288 2.3273C1.45853 2.35719 1.39603 2.383 1.32538 2.40474C1.25744 2.42648 1.19222 2.43735 1.12972 2.43735C1.0319 2.43735 0.943582 2.41289 0.864778 2.36398C0.788691 2.31235 0.72755 2.24578 0.681354 2.16425C0.635158 2.08001 0.612061 1.99034 0.612061 1.89523C0.612061 1.79197 0.636517 1.69958 0.68543 1.61806C0.737061 1.53382 0.803637 1.46724 0.885158 1.41833C0.96668 1.36942 1.05635 1.34496 1.15418 1.34496C1.26559 1.34496 1.37293 1.38436 1.47619 1.46317C1.57945 1.54197 1.65418 1.63708 1.70038 1.74849L1.80635 1.66697C1.73298 1.59904 1.6732 1.52431 1.62701 1.44279C1.58353 1.35855 1.56179 1.27838 1.56179 1.2023C1.56179 1.09904 1.58625 1.00664 1.63516 0.925123C1.68407 0.840884 1.74929 0.774308 1.83081 0.725395C1.91505 0.673764 2.00744 0.647949 2.10798 0.647949C2.20853 0.647949 2.30092 0.673764 2.38516 0.725395C2.4694 0.774308 2.53597 0.840884 2.58489 0.925123C2.63652 1.00936 2.66233 1.10175 2.66233 1.2023C2.66233 1.27838 2.63923 1.35991 2.59304 1.44686C2.54684 1.5311 2.48842 1.60447 2.41777 1.66697L2.52375 1.74849C2.56994 1.63436 2.64331 1.53925 2.74385 1.46317C2.84711 1.38436 2.95581 1.34496 3.06994 1.34496C3.16777 1.34496 3.25744 1.36942 3.33896 1.41833C3.4232 1.46724 3.48978 1.53382 3.53869 1.61806C3.5876 1.69958 3.61206 1.79197 3.61206 1.89523C3.61206 1.99034 3.5876 2.08001 3.53869 2.16425C3.4925 2.24578 3.43 2.31235 3.35119 2.36398C3.2751 2.41289 3.19086 2.43735 3.09847 2.43735C2.97619 2.43735 2.84711 2.40067 2.71125 2.3273L2.67048 2.45773C2.77918 2.4686 2.87701 2.49985 2.96396 2.55148C3.05092 2.60039 3.12021 2.66561 3.17184 2.74713C3.22347 2.82594 3.24929 2.91425 3.24929 3.01208C3.24929 3.10991 3.22347 3.20094 3.17184 3.28518C3.12293 3.36942 3.05771 3.43735 2.97619 3.48898C2.89467 3.54061 2.80364 3.56643 2.70309 3.56643C2.5482 3.56643 2.41913 3.51344 2.31586 3.40746C2.2126 3.29876 2.16097 3.16018 2.16097 2.9917C2.16097 2.9292 2.16777 2.87078 2.18135 2.81643H2.04277C2.0482 2.8436 2.05228 2.87213 2.055 2.90203C2.06043 2.93192 2.06315 2.96181 2.06315 2.9917C2.06315 3.15746 2.01152 3.29469 1.90826 3.40338C1.805 3.51208 1.67592 3.56643 1.52103 3.56643ZM2.10798 2.71045C2.20038 2.71045 2.28461 2.68735 2.3607 2.64116C2.43679 2.59496 2.49793 2.53382 2.54413 2.45773C2.59032 2.38164 2.61342 2.29741 2.61342 2.20501C2.61342 2.11262 2.59032 2.02838 2.54413 1.9523C2.49793 1.87621 2.43679 1.81507 2.3607 1.76887C2.28461 1.72268 2.20038 1.69958 2.10798 1.69958C2.01559 1.69958 1.93135 1.72268 1.85527 1.76887C1.7819 1.81507 1.72211 1.87621 1.67592 1.9523C1.63244 2.02838 1.6107 2.11262 1.6107 2.20501C1.6107 2.29741 1.63244 2.383 1.67592 2.46181C1.72211 2.53789 1.78326 2.59904 1.85934 2.64523C1.93543 2.68871 2.01831 2.71045 2.10798 2.71045Z" fill="black"/>
</svg>
