<svg width="55" height="58" viewBox="0 0 55 58" fill="none" xmlns="http://www.w3.org/2000/svg">
<path d="M27.4981 0C33.0816 0 34.5663 6.83779 34.5663 6.83779C34.5663 6.83779 39.7868 2.17857 44.3038 5.46049C48.8208 8.74241 46.0029 15.147 46.0029 15.147C46.0029 15.147 52.965 14.446 54.6902 19.7562C56.4155 25.0664 50.3713 28.5915 50.3713 28.5915C50.3713 28.5915 56.4021 32.1584 54.6902 37.4267C52.9783 42.695 46.0029 42.036 46.0029 42.036C46.0029 42.036 48.7718 48.5084 44.3038 51.7225C39.8358 54.9365 34.5663 50.3452 34.5663 50.3452C34.5663 50.3452 33.0723 57.183 27.4981 57.183C21.9239 57.183 20.4299 50.3452 20.4299 50.3452C20.4299 50.3452 15.1452 54.9576 10.6925 51.7225C6.2397 48.4873 8.99333 42.036 8.99333 42.036C8.99333 42.036 2.01781 42.6951 0.306013 37.4267C-1.40579 32.1584 4.62494 28.5915 4.62494 28.5915C4.62494 28.5915 -1.40617 25.0258 0.306013 19.7562C2.01819 14.4867 8.99333 15.147 8.99333 15.147C8.99333 15.147 6.20918 8.71779 10.6925 5.46049C15.1758 2.20318 20.4299 6.83779 20.4299 6.83779C20.4299 6.83779 21.9147 0 27.4981 0Z" fill="#BA4A4A"/>
</svg>
