<svg width="155" height="155" viewBox="0 0 155 155" fill="none" xmlns="http://www.w3.org/2000/svg">
<path d="M154.99 77.4897C154.99 90.9795 121.578 86.2578 121.578 86.2578C121.578 86.2578 154.252 94.6806 149.091 107.144C143.929 119.607 114.867 102.459 114.867 102.459C114.867 102.459 141.829 122.744 132.292 132.283C122.754 141.823 102.466 114.859 102.466 114.859C102.466 114.859 119.613 143.918 107.151 149.081C94.6887 154.244 86.2636 121.57 86.2636 121.57C86.2636 121.57 90.9839 154.979 77.4949 154.979C64.0058 154.979 68.7261 121.57 68.7261 121.57C68.7261 121.57 60.301 154.244 47.8388 149.081C35.377 143.918 52.5236 114.859 52.5236 114.859C52.5236 114.859 32.2354 141.823 22.6976 132.283C13.1602 122.744 40.1228 102.459 40.1228 102.459C40.1228 102.459 11.0604 119.607 5.89884 107.144C0.737438 94.6806 33.4114 86.2578 33.4114 86.2578C33.4114 86.2578 -9.55296e-05 90.9795 -9.49399e-05 77.4897C-9.43503e-05 63.9998 33.4115 68.7215 33.4115 68.7215C33.4115 68.7215 0.737455 60.2987 5.89885 47.8357C11.0604 35.3723 40.1228 52.5201 40.1228 52.5201C40.1228 52.5201 13.1602 32.2354 22.6976 22.6962C32.2354 13.1567 52.5236 40.1201 52.5236 40.1201C52.5236 40.1201 35.377 11.0614 47.8388 5.89854C60.301 0.735597 68.7261 33.4093 68.7261 33.4093C68.7261 33.4093 64.0058 -3.97703e-06 77.4949 -3.38741e-06C90.9839 -2.79778e-06 86.2636 33.4093 86.2636 33.4093C86.2636 33.4093 94.6887 0.735604 107.151 5.89855C119.613 11.0614 102.466 40.1201 102.466 40.1201C102.466 40.1201 122.754 13.1567 132.292 22.6962C141.829 32.2354 114.867 52.5201 114.867 52.5201C114.867 52.5201 143.929 35.3723 149.091 47.8357C154.252 60.2987 121.578 68.7215 121.578 68.7215C121.578 68.7215 154.99 63.9999 154.99 77.4897Z" fill="#BA4A4A"/>
</svg>
