<svg width="128" height="128" viewBox="0 0 128 128" fill="none" xmlns="http://www.w3.org/2000/svg">
<circle cx="64" cy="64" r="64" fill="#FAF5ED"/>
<path d="M65.0527 22.8083C73.0593 22.8083 75.1885 32.6137 75.1885 32.6137C75.1885 32.6137 82.6746 25.9324 89.1519 30.6387C95.6293 35.3449 91.5885 44.529 91.5885 44.529C91.5885 44.529 101.572 43.5239 104.046 51.1387C106.52 58.7534 97.8527 63.8083 97.8527 63.8083C97.8527 63.8083 106.501 68.9234 104.046 76.478C101.591 84.0327 91.5885 83.0877 91.5885 83.0877C91.5885 83.0877 95.559 92.3691 89.1519 96.978C82.7449 101.587 75.1885 95.003 75.1885 95.003C75.1885 95.003 73.0461 104.808 65.0527 104.808C57.0593 104.808 54.917 95.003 54.917 95.003C54.917 95.003 47.3388 101.617 40.9535 96.978C34.5683 92.3389 38.517 83.0877 38.517 83.0877C38.517 83.0877 28.5141 84.0329 26.0594 76.478C23.6047 68.9232 32.2527 63.8083 32.2527 63.8083C32.2527 63.8083 23.6042 58.6952 26.0594 51.1387C28.5147 43.5822 38.517 44.529 38.517 44.529C38.517 44.529 34.5245 35.3096 40.9535 30.6387C47.3826 25.9677 54.917 32.6137 54.917 32.6137C54.917 32.6137 57.0461 22.8083 65.0527 22.8083Z" fill="#BA4A4A"/>
</svg>
