<svg width="45" height="45" viewBox="0 0 45 45" fill="none" xmlns="http://www.w3.org/2000/svg">
<circle cx="22.5" cy="22.5" r="21.5" stroke="#FAF5ED" stroke-width="2"/>
<path d="M12 17.82L16.22 17.2V23.04C16.5133 22.3333 16.9533 21.7933 17.54 21.42C18.14 21.0333 18.86 20.84 19.7 20.84C20.98 20.84 21.98 21.3 22.7 22.22C23.4333 23.1267 23.8 24.3867 23.8 26V31H19.6V25.58C19.6 25.0067 19.4733 24.5667 19.22 24.26C18.98 23.9533 18.64 23.8 18.2 23.8C17.88 23.8 17.5667 23.9067 17.26 24.12C16.9533 24.32 16.7 24.6133 16.5 25C16.3133 25.3867 16.22 25.8267 16.22 26.32V31H12V17.82ZM30.2505 31.16C29.1305 31.16 28.2571 30.8 27.6305 30.08C27.0038 29.36 26.6905 28.38 26.6905 27.14V20.98H30.9305V26.96C30.9305 27.2667 31.0105 27.5067 31.1705 27.68C31.3438 27.84 31.5638 27.92 31.8305 27.92C32.0971 27.92 32.3705 27.84 32.6505 27.68L32.8705 30.46C32.5771 30.6867 32.1905 30.86 31.7105 30.98C31.2438 31.1 30.7571 31.16 30.2505 31.16ZM28.8105 19.48C28.1838 19.48 27.6505 19.2867 27.2105 18.9C26.7838 18.5 26.5705 18.0133 26.5705 17.44C26.5705 16.8667 26.7971 16.3867 27.2505 16C27.7038 15.6133 28.2238 15.42 28.8105 15.42C29.4238 15.42 29.9505 15.62 30.3905 16.02C30.8438 16.42 31.0705 16.8933 31.0705 17.44C31.0705 18.0267 30.8438 18.5133 30.3905 18.9C29.9371 19.2867 29.4105 19.48 28.8105 19.48Z" fill="#FAF5ED"/>
</svg>
