<svg width="50" height="50" viewBox="0 0 50 50" fill="none" xmlns="http://www.w3.org/2000/svg">
<path d="M25 50C38.8071 50 50 38.8071 50 25C50 11.1929 38.8071 0 25 0C11.1929 0 0 11.1929 0 25C0 38.8071 11.1929 50 25 50Z" fill="#ED9200"/>
<path d="M41.859 29.6118C41.7931 29.795 41.6576 29.9448 41.4818 30.0284C41.306 30.112 41.1043 30.1228 40.9206 30.0583L39.7349 29.6333C38.7496 32.7701 36.7892 35.5107 34.1388 37.4563C31.4883 39.4019 28.2862 40.451 24.9983 40.451C21.7104 40.451 18.5083 39.4019 15.8578 37.4563C13.2074 35.5107 11.2469 32.7701 10.2617 29.6333L9.06971 30.0583C8.98998 30.0862 8.90601 30.1001 8.82151 30.0993C8.64746 30.0994 8.47897 30.038 8.34579 29.926C8.21261 29.8139 8.1233 29.6584 8.09361 29.4869C8.06393 29.3154 8.09579 29.1389 8.18356 28.9886C8.27132 28.8383 8.40934 28.7238 8.57328 28.6654L12.4126 27.2967C12.5044 27.2606 12.6026 27.2433 12.7012 27.2459C12.7998 27.2484 12.8969 27.2708 12.9868 27.3116C13.0766 27.3524 13.1573 27.4109 13.2241 27.4835C13.2909 27.5561 13.3425 27.6414 13.3757 27.7343C13.4089 27.8272 13.4231 27.9259 13.4175 28.0244C13.4118 28.1229 13.3864 28.2193 13.3428 28.3078C13.2992 28.3963 13.2382 28.4751 13.1636 28.5396C13.0889 28.6041 13.002 28.653 12.9081 28.6833L11.6456 29.1377C12.5321 31.9846 14.3056 34.4736 16.707 36.241C19.1085 38.0084 22.0121 38.9617 24.9938 38.9617C27.9756 38.9617 30.8792 38.0084 33.2806 36.241C35.6821 34.4736 37.4556 31.9846 38.342 29.1377L37.0679 28.6833C36.974 28.653 36.8871 28.6041 36.8125 28.5396C36.7378 28.4751 36.6768 28.3963 36.6332 28.3078C36.5896 28.2193 36.5643 28.1229 36.5586 28.0244C36.553 27.9259 36.5671 27.8272 36.6003 27.7343C36.6336 27.6414 36.6851 27.5561 36.7519 27.4835C36.8187 27.4109 36.8994 27.3524 36.9893 27.3116C37.0791 27.2708 37.1762 27.2484 37.2748 27.2459C37.3735 27.2433 37.4716 27.2606 37.5635 27.2967L39.4161 27.9574L39.5456 28.0047L41.4099 28.6654C41.5021 28.6972 41.5871 28.7471 41.6598 28.8121C41.7326 28.8772 41.7916 28.9561 41.8334 29.0442C41.8752 29.1324 41.899 29.228 41.9034 29.3254C41.9078 29.4229 41.8927 29.5203 41.859 29.6118Z" fill="#FEFEFE"/>
<path d="M36.3538 15.4429C36.6879 15.1089 36.6879 14.5673 36.3538 14.2332C36.0198 13.8992 35.4782 13.8992 35.1442 14.2332L30.1736 19.2038C29.8395 19.5379 29.8395 20.0795 30.1736 20.4135C30.5076 20.7475 31.0492 20.7475 31.3832 20.4135L36.3538 15.4429Z" fill="#FEFEFE"/>
<path d="M35.1443 20.4134C35.4784 20.7475 36.0199 20.7475 36.354 20.4134C36.688 20.0794 36.688 19.5378 36.354 19.2038L31.3834 14.2332C31.0494 13.8991 30.5078 13.8991 30.1737 14.2332C29.8397 14.5672 29.8397 15.1088 30.1737 15.4428L35.1443 20.4134Z" fill="#FEFEFE"/>
<path d="M16.675 14.4641C16.757 14.3448 16.8669 14.2472 16.995 14.1798C17.1232 14.1124 17.2659 14.0771 17.4107 14.0771C17.5555 14.0771 17.6981 14.1124 17.8263 14.1798C17.9545 14.2472 18.0643 14.3448 18.1464 14.4641L21.3607 19.1382C21.4525 19.2723 21.506 19.4288 21.5154 19.591C21.5248 19.7532 21.4897 19.9149 21.414 20.0587C21.3383 20.2024 21.2249 20.3228 21.0858 20.4068C20.9468 20.4909 20.7874 20.5354 20.625 20.5356H14.1964C14.0336 20.5356 13.874 20.4912 13.7346 20.407C13.5953 20.3229 13.4816 20.2023 13.4059 20.0582C13.3301 19.9142 13.2952 19.7522 13.3049 19.5897C13.3145 19.4272 13.3684 19.2705 13.4607 19.1364L16.675 14.4641Z" fill="#FEFEFE"/>
</svg>
