<svg width="57" height="57" viewBox="0 0 57 57" fill="none" xmlns="http://www.w3.org/2000/svg">
<path d="M28.5 57C44.2401 57 57 44.2401 57 28.5C57 12.7599 44.2401 0 28.5 0C12.7599 0 0 12.7599 0 28.5C0 44.2401 12.7599 57 28.5 57Z" fill="#ED9200"/>
<path d="M47.7192 33.7572C47.6442 33.9661 47.4896 34.1368 47.2892 34.2321C47.0888 34.3274 46.8588 34.3397 46.6495 34.2662L45.2977 33.7817C44.1746 37.3576 41.9396 40.4819 38.9181 42.6999C35.8966 44.9179 32.2462 46.1139 28.498 46.1139C24.7498 46.1139 21.0994 44.9179 18.0779 42.6999C15.0564 40.4819 12.8215 37.3576 11.6983 33.7817L10.3394 34.2662C10.2485 34.2981 10.1528 34.3139 10.0565 34.313C9.85808 34.3131 9.666 34.2431 9.51417 34.1153C9.36235 33.9876 9.26053 33.8103 9.22669 33.6148C9.19285 33.4193 9.22918 33.2181 9.32923 33.0468C9.42928 32.8754 9.58661 32.7449 9.77351 32.6783L14.1503 31.1179C14.255 31.0768 14.3669 31.0571 14.4793 31.06C14.5918 31.0629 14.7025 31.0884 14.8049 31.135C14.9073 31.1815 14.9993 31.2481 15.0755 31.3309C15.1516 31.4137 15.2104 31.5109 15.2483 31.6169C15.2861 31.7228 15.3023 31.8352 15.2959 31.9475C15.2894 32.0598 15.2605 32.1697 15.2108 32.2706C15.161 32.3715 15.0916 32.4614 15.0064 32.5349C14.9213 32.6085 14.8223 32.6641 14.7152 32.6986L13.276 33.2167C14.2865 36.4622 16.3083 39.2996 19.046 41.3144C21.7836 43.3293 25.0938 44.4161 28.4929 44.4161C31.8921 44.4161 35.2022 43.3293 37.9399 41.3144C40.6775 39.2996 42.6993 36.4622 43.7099 33.2167L42.2574 32.6986C42.1503 32.6641 42.0513 32.6085 41.9662 32.5349C41.8811 32.4614 41.8116 32.3715 41.7619 32.2706C41.7121 32.1697 41.6832 32.0598 41.6768 31.9475C41.6703 31.8352 41.6865 31.7228 41.7244 31.6169C41.7622 31.5109 41.821 31.4137 41.8971 31.3309C41.9733 31.2481 42.0653 31.1815 42.1677 31.135C42.2701 31.0884 42.3808 31.0629 42.4933 31.06C42.6057 31.0571 42.7176 31.0768 42.8223 31.1179L44.9344 31.8711L45.082 31.9251L47.2072 32.6783C47.3124 32.7145 47.4093 32.7714 47.4922 32.8455C47.5751 32.9197 47.6424 33.0096 47.69 33.1101C47.7377 33.2106 47.7649 33.3196 47.7699 33.4307C47.7749 33.5418 47.7577 33.6529 47.7192 33.7572Z" fill="#FAF5ED"/>
<path d="M41.4435 17.6051C41.8243 17.2243 41.8243 16.6069 41.4435 16.2261C41.0627 15.8453 40.4453 15.8453 40.0645 16.2261L34.3981 21.8925C34.0173 22.2734 34.0173 22.8908 34.3981 23.2716C34.7789 23.6524 35.3963 23.6524 35.7771 23.2716L41.4435 17.6051Z" fill="#FAF5ED"/>
<path d="M40.0647 23.2717C40.4455 23.6525 41.0629 23.6525 41.4437 23.2717C41.8245 22.8909 41.8245 22.2735 41.4437 21.8927L35.7772 16.2262C35.3964 15.8454 34.779 15.8454 34.3982 16.2262C34.0174 16.607 34.0174 17.2244 34.3982 17.6052L40.0647 23.2717Z" fill="#FAF5ED"/>
<path d="M19.0095 16.4893C19.103 16.3533 19.2283 16.242 19.3744 16.1652C19.5205 16.0883 19.6831 16.0481 19.8482 16.0481C20.0133 16.0481 20.1759 16.0883 20.322 16.1652C20.4681 16.242 20.5934 16.3533 20.6869 16.4893L24.3512 21.8178C24.4558 21.9706 24.5168 22.1491 24.5275 22.334C24.5382 22.5189 24.4983 22.7032 24.412 22.8671C24.3257 23.031 24.1964 23.1682 24.0379 23.264C23.8793 23.3598 23.6977 23.4105 23.5125 23.4107H16.1839C15.9984 23.4108 15.8164 23.3601 15.6575 23.2642C15.4987 23.1683 15.3691 23.0308 15.2827 22.8666C15.1964 22.7024 15.1566 22.5177 15.1676 22.3325C15.1786 22.1473 15.24 21.9686 15.3452 21.8157L19.0095 16.4893Z" fill="#FAF5ED"/>
</svg>
