<svg width="62" height="53" viewBox="0 0 62 53" fill="none" xmlns="http://www.w3.org/2000/svg">
<path d="M26.5361 49.87C26.9974 50.6212 27.6418 51.2413 28.408 51.6714C29.1742 52.1014 30.037 52.3271 30.9142 52.3271C31.7915 52.3271 32.6542 52.1014 33.4204 51.6714C34.1867 51.2413 34.831 50.6212 35.2923 49.87L61.0595 7.9066C61.5415 7.12166 61.8065 6.22138 61.8271 5.29881C61.8478 4.37624 61.6234 3.46486 61.1771 2.65884C60.7307 1.85283 60.0787 1.18143 59.2884 0.714027C58.498 0.246632 57.598 0.000190735 56.6814 0.000183105L5.14702 0.000183105C4.2304 0.000190735 3.33042 0.246632 2.54008 0.714027C1.74974 1.18143 1.09772 1.85283 0.651394 2.65884C0.205072 3.46486 -0.0193545 4.37624 0.00130826 5.29881C0.0219711 6.22138 0.286974 7.12166 0.768929 7.9066L26.5361 49.87Z" fill="#BA4A4A"/>
</svg>
