<svg width="62" height="53" viewBox="0 0 62 53" fill="none" xmlns="http://www.w3.org/2000/svg">
<path d="M26.5361 2.45715C26.9974 1.70591 27.6418 1.08583 28.408 0.655783C29.1742 0.225738 30.037 0 30.9142 0C31.7915 0 32.6542 0.225738 33.4204 0.655783C34.1867 1.08583 34.831 1.70591 35.2923 2.45715L61.0595 44.4205C61.5415 45.2055 61.8065 46.1058 61.8271 47.0283C61.8478 47.9509 61.6234 48.8623 61.1771 49.6683C60.7307 50.4743 60.0787 51.1457 59.2884 51.6131C58.498 52.0805 57.598 52.327 56.6814 52.327L5.14702 52.327C4.2304 52.327 3.33042 52.0805 2.54008 51.6131C1.74974 51.1457 1.09772 50.4743 0.651394 49.6683C0.205072 48.8623 -0.0193545 47.9509 0.00130826 47.0283C0.0219711 46.1058 0.286974 45.2055 0.768929 44.4205L26.5361 2.45715Z" fill="#BA4A4A"/>
</svg>
