<svg width="132" height="137" viewBox="0 0 132 137" fill="none" xmlns="http://www.w3.org/2000/svg">
<path d="M14.2879 56.6701C13.7493 57.3676 13.0271 57.9012 12.2023 58.2112C11.3723 58.5074 10.4704 58.5365 9.62307 58.2943L10.5228 55.0967C10.7977 55.1656 11.0836 55.1795 11.3639 55.1376C11.6442 55.0956 11.9135 54.9986 12.1562 54.8522C12.6548 54.5064 13.0056 53.9861 13.139 53.3942C13.3366 52.8127 13.3219 52.1801 13.0975 51.6085C12.9931 51.3711 12.8356 51.1607 12.6372 50.9935C12.4389 50.8263 12.2049 50.7068 11.9531 50.6442C11.5556 50.5176 11.1241 50.5542 10.7535 50.7457C10.38 50.9479 10.0543 51.228 9.79841 51.567C9.43481 52.0573 9.09599 52.5654 8.78329 53.0896C8.33262 53.8317 7.82997 54.541 7.2791 55.2121C6.8226 55.7459 6.24079 56.1581 5.58578 56.4117C4.8008 56.6921 3.94434 56.7002 3.15417 56.4348C2.33079 56.225 1.5916 55.7676 1.03634 55.1244C0.494965 54.4776 0.153486 53.6872 0.0535484 52.8497C-0.0668959 51.8834 0.0163649 50.9027 0.29805 49.9705C0.612019 48.6165 1.3767 47.4094 2.46668 46.5469C2.9731 46.1749 3.55476 45.9181 4.17087 45.7946C4.78699 45.671 5.42264 45.6837 6.03333 45.8317L5.11052 49.1169C4.86133 49.0579 4.60229 49.0537 4.35134 49.1047C4.10038 49.1557 3.86349 49.2606 3.65709 49.4122C3.17497 49.7719 2.83778 50.2925 2.70662 50.8795C2.53643 51.3765 2.55615 51.9188 2.76199 52.4021C2.87475 52.6274 3.03711 52.8242 3.23691 52.9776C3.43671 53.1311 3.66875 53.2372 3.9155 53.288C4.09734 53.3459 4.28914 53.3655 4.47891 53.3456C4.66868 53.3258 4.85233 53.2669 5.01827 53.1727C5.375 52.9694 5.6885 52.6982 5.94107 52.3745C6.2133 52.0284 6.55935 51.5301 6.97 50.8795C7.42333 50.1343 7.93066 49.4234 8.48798 48.7524C8.95373 48.211 9.54452 47.7913 10.2091 47.5297C10.9919 47.2489 11.8461 47.2375 12.6361 47.4974C13.4188 47.7148 14.1261 48.1444 14.68 48.7386C15.2609 49.3741 15.6496 50.1612 15.8013 51.0087C15.9776 52.0123 15.9127 53.0434 15.6121 54.0171C15.3566 54.9826 14.9059 55.8855 14.2879 56.6701Z" fill="#BA4A4A"/>
<path d="M7.86515 38.1172L11.2703 39.9628L13.7573 35.3903L15.9167 36.5669L13.4297 41.1394L17.0286 43.0958L19.834 37.9419L22.0533 39.1508L17.7623 47.0269L4.16467 39.6445L8.45114 31.7637L10.6705 32.9726L7.86515 38.1172Z" fill="#BA4A4A"/>
<path d="M15.409 26.6979L18.3574 29.2172L21.7395 25.2629L23.5852 26.8594L20.1984 30.8136L23.3129 33.4759L27.1287 29.0188L29.0482 30.6614L23.2391 37.4809L11.4779 27.4177L17.3101 20.5981L19.2433 22.2546L15.409 26.6979Z" fill="#BA4A4A"/>
<path d="M39.0837 13.3996C39.1172 14.2636 38.8888 15.1176 38.4285 15.8496C37.8373 16.7666 37.0311 17.5253 36.08 18.0598L33.8652 19.4071L36.9567 24.4825L34.3082 26.0928L26.2613 12.8966L31.1199 9.93442C32.0018 9.3599 33.0045 8.99673 34.0498 8.8732C34.9124 8.771 35.7857 8.93183 36.5553 9.3346C37.2841 9.74544 37.8977 10.3332 38.3396 11.0436C38.7815 11.754 39.0374 12.5642 39.0837 13.3996V13.3996ZM35.9831 14.4977C36.0519 14.2021 36.0579 13.8954 36.0006 13.5973C35.9434 13.2993 35.8243 13.0166 35.6509 12.7675C34.8665 11.4786 33.756 11.274 32.3195 12.1538L30.2202 13.4319L32.5641 17.2708L34.6635 15.9927C35.2731 15.6787 35.7401 15.144 35.9693 14.4977H35.9831Z" fill="#BA4A4A"/>
<path d="M52.7552 17.3499L47.6798 12.6205L46.2956 13.0542L48.095 18.8033L45.1374 19.7261L40.5234 4.96115L46.0602 3.23089C47.0568 2.886 48.1201 2.77856 49.1655 2.91713C50.0219 3.03997 50.8238 3.41043 51.4725 3.98297C52.093 4.55335 52.5488 5.28005 52.7921 6.08698C53.1033 7.0278 53.1033 8.04378 52.7921 8.98459C52.4271 9.99871 51.7143 10.8505 50.7804 11.3885L56.1835 16.2656L52.7552 17.3499ZM45.6127 10.8348L48.0858 10.0597C48.753 9.90696 49.3332 9.4975 49.7007 8.92C49.837 8.64089 49.9147 8.33683 49.9289 8.02655C49.9432 7.71628 49.8938 7.40636 49.7837 7.11591C49.7099 6.82215 49.5754 6.54715 49.3886 6.30871C49.2018 6.07026 48.967 5.87369 48.6995 5.7317C48.0669 5.47975 47.3618 5.47975 46.7292 5.7317L44.2561 6.50685L45.6127 10.8348Z" fill="#BA4A4A"/>
<path d="M60.9589 14.9132C59.7478 14.272 58.7323 13.3155 58.0198 12.1448C57.295 10.9155 56.8978 9.52079 56.8663 8.09408C56.8348 6.66738 57.17 5.25647 57.8398 3.99639C58.5033 2.79804 59.4771 1.80035 60.659 1.108C61.8624 0.403396 63.2281 0.0234064 64.6225 0.00524817C66.0199 -0.045519 67.4061 0.272765 68.6413 0.928057C69.8467 1.56892 70.8548 2.52598 71.5574 3.69648C72.2738 4.92871 72.6661 6.32248 72.6976 7.7475C72.729 9.17251 72.3987 10.5822 71.7373 11.8449C71.0828 13.044 70.1126 14.0413 68.932 14.7287C67.7244 15.4245 66.3613 15.8053 64.9679 15.8359C63.5746 15.8666 62.1959 15.5461 60.9589 14.904V14.9132ZM67.3494 12.394C68.0568 11.9475 68.6206 11.3067 68.9735 10.5483C69.3657 9.69143 69.5491 8.75374 69.5087 7.81221C69.512 6.87271 69.2872 5.94645 68.8536 5.113C68.4703 4.37695 67.88 3.76909 67.1556 3.36427C66.3966 2.9579 65.5427 2.76195 64.6825 2.79675C63.8186 2.80167 62.9716 3.03572 62.2278 3.47501C61.5164 3.90713 60.9482 4.5395 60.5944 5.29295C60.1975 6.14355 60.0123 7.07754 60.0546 8.01523C60.0563 8.95911 60.2824 9.88904 60.7144 10.7283C61.1007 11.4715 61.6956 12.0857 62.4262 12.4955C63.1863 12.9086 64.0442 13.1079 64.9085 13.0722C65.7688 13.073 66.6129 12.8385 67.3494 12.394Z" fill="#BA4A4A"/>
<path d="M86.6361 3.23039L84.043 13.7643C83.6785 15.2269 82.9772 16.2605 81.9298 16.8603C81.3699 17.1638 80.7555 17.3534 80.122 17.4184C79.4884 17.4833 78.8484 17.4222 78.2386 17.2386C76.9473 16.9821 75.8097 16.2259 75.0733 15.1346C74.7327 14.5684 74.5156 13.9366 74.4361 13.2806C74.3566 12.6246 74.4165 11.9593 74.6119 11.328L77.6203 12.0709C77.4681 12.6058 77.5006 13.1763 77.7125 13.6904C77.825 13.9114 77.9873 14.1032 78.1867 14.2506C78.3862 14.398 78.6172 14.4968 78.8614 14.5394C79.0925 14.614 79.3378 14.634 79.5779 14.598C79.8181 14.562 80.0466 14.4709 80.2457 14.3318C80.6547 14.001 80.9314 13.5344 81.0255 13.0168L83.6232 2.48291L86.6361 3.23039Z" fill="#BA4A4A"/>
<path d="M94.1109 8.94261L92.3991 12.4216L97.0639 14.7286L95.975 16.9341L91.3102 14.6271L89.4969 18.3183L94.7569 20.9161L93.6403 23.1816L85.598 19.2089L92.4499 5.3252L100.492 9.2979L99.3756 11.5588L94.1109 8.94261Z" fill="#BA4A4A"/>
<path d="M103.343 15.1943C104.615 14.7376 105.988 14.6386 107.312 14.9082C108.682 15.1896 109.955 15.826 111.003 16.7538C112.245 17.7844 113.14 19.1734 113.564 20.7311C113.968 22.248 113.844 23.8571 113.213 25.2944L110.518 22.9597C110.736 22.2274 110.722 21.4455 110.477 20.7219C110.211 19.9915 109.755 19.345 109.157 18.8486C108.531 18.282 107.759 17.9017 106.929 17.7504C106.118 17.6087 105.283 17.7032 104.525 18.0227C103.678 18.4083 102.924 18.9717 102.314 19.6747C101.704 20.3778 101.252 21.2039 100.99 22.0969C100.778 22.8968 100.8 23.741 101.055 24.5285C101.319 25.3256 101.798 26.0344 102.439 26.5771C103.017 27.0997 103.724 27.4567 104.488 27.6106C105.242 27.7434 106.02 27.6437 106.716 27.3246L109.411 29.6593C108.081 30.4959 106.505 30.8525 104.945 30.6698C103.34 30.465 101.838 29.7724 100.64 28.6857C99.5719 27.7835 98.7591 26.6175 98.2819 25.3036C97.8216 24.0361 97.721 22.6659 97.9912 21.3448C98.3027 19.9556 98.9539 18.6654 99.8863 17.5896C100.819 16.5138 102.003 15.6861 103.334 15.1804L103.343 15.1943Z" fill="#BA4A4A"/>
<path d="M125.828 34.9476L123.752 36.3318L121.445 32.9174L110.708 40.1707L108.973 37.6007L119.71 30.3474L117.403 26.933L119.479 25.5488L125.828 34.9476Z" fill="#BA4A4A"/>
<path d="M114.865 47.013C114.883 46.1302 115.148 45.2702 115.631 44.5306C116.121 43.8003 116.828 43.242 117.652 42.9342L118.828 46.044C118.566 46.1509 118.328 46.3087 118.128 46.5083C117.928 46.7079 117.769 46.9453 117.661 47.2068C117.461 47.7824 117.487 48.4125 117.735 48.9693C117.921 49.5531 118.309 50.0518 118.828 50.3766C119.053 50.506 119.304 50.582 119.562 50.5988C119.821 50.6156 120.079 50.5727 120.319 50.4735C120.518 50.4099 120.702 50.3068 120.861 50.1705C121.019 50.0341 121.149 49.8673 121.241 49.6799C121.421 49.2937 121.517 48.8738 121.523 48.448C121.523 47.9865 121.5 47.3867 121.435 46.6254C121.357 45.7618 121.34 44.8937 121.384 44.0277C121.435 43.3244 121.659 42.6444 122.035 42.0483C122.501 41.3583 123.185 40.8448 123.978 40.5902C124.765 40.2719 125.631 40.2011 126.46 40.3872C127.277 40.5876 128.019 41.0203 128.596 41.633C129.265 42.3397 129.78 43.177 130.11 44.0923C130.659 45.37 130.761 46.7957 130.4 48.1388C130.213 48.7392 129.896 49.2913 129.473 49.7567C129.05 50.2221 128.53 50.5895 127.95 50.8334L126.751 47.6313C126.986 47.5308 127.196 47.3806 127.367 47.191C127.538 47.0015 127.666 46.777 127.743 46.5331C127.914 45.9575 127.877 45.3396 127.637 44.789C127.477 44.2878 127.138 43.8626 126.686 43.594C126.461 43.4814 126.214 43.4205 125.962 43.4157C125.711 43.411 125.462 43.4624 125.233 43.5663C125.052 43.628 124.887 43.7262 124.746 43.8548C124.606 43.9835 124.493 44.1397 124.416 44.3138C124.249 44.6888 124.159 45.0937 124.153 45.5042C124.153 45.9425 124.153 46.547 124.213 47.3175C124.289 48.1859 124.303 49.0587 124.254 49.9291C124.198 50.6399 123.972 51.3267 123.595 51.9316C123.134 52.6246 122.453 53.1416 121.661 53.3988C120.903 53.69 120.078 53.7635 119.28 53.6111C118.435 53.4464 117.654 53.0447 117.029 52.453C116.29 51.7512 115.73 50.8826 115.395 49.9198C115.021 48.9975 114.841 48.0081 114.865 47.013Z" fill="#BA4A4A"/>
<path d="M128.209 70.7756L125.597 70.8633L125.283 61.4783L127.895 61.3906L128.209 70.7756Z" fill="#BA4A4A"/>
<path d="M117.822 81.0372C118.374 80.3478 119.108 79.8267 119.94 79.5331C120.773 79.2483 121.674 79.2353 122.515 79.4961L121.564 82.6752C121.291 82.6013 121.005 82.5824 120.724 82.6196C120.443 82.6569 120.172 82.7495 119.926 82.8921C119.417 83.2261 119.055 83.7431 118.916 84.3363C118.704 84.911 118.704 85.5425 118.916 86.1173C119.016 86.3563 119.169 86.5692 119.365 86.7396C119.56 86.91 119.791 87.0333 120.042 87.1001C120.238 87.1674 120.445 87.1951 120.652 87.1817C120.859 87.1682 121.061 87.1138 121.246 87.0216C121.624 86.8269 121.955 86.5512 122.215 86.2142C122.588 85.7337 122.935 85.2331 123.253 84.7146C123.717 83.9812 124.232 83.2812 124.794 82.6198C125.262 82.0947 125.851 81.6923 126.511 81.4479C127.298 81.1732 128.155 81.1732 128.942 81.4479C129.761 81.6722 130.492 82.1405 131.037 82.7906C131.563 83.4531 131.884 84.255 131.96 85.0976C132.064 86.0656 131.965 87.0446 131.669 87.9721C131.329 89.321 130.542 90.5147 129.436 91.3588C128.923 91.7224 128.337 91.9691 127.718 92.0815C127.099 92.1939 126.464 92.1693 125.856 92.0094L126.834 88.7427C127.082 88.8051 127.34 88.8135 127.592 88.7673C127.843 88.7212 128.082 88.6215 128.292 88.4751C128.779 88.1212 129.126 87.6064 129.27 87.0216C129.448 86.5279 129.438 85.986 129.242 85.499C129.134 85.269 128.976 85.0665 128.778 84.9067C128.581 84.7468 128.35 84.6338 128.103 84.5762C127.922 84.5156 127.731 84.4929 127.541 84.5096C127.351 84.5263 127.167 84.5819 127 84.6731C126.644 84.8722 126.331 85.1387 126.077 85.4575C125.8 85.7989 125.449 86.288 125.025 86.934C124.559 87.6708 124.039 88.3724 123.47 89.0334C122.993 89.5647 122.395 89.9731 121.726 90.2238C120.941 90.4963 120.088 90.4963 119.304 90.2238C118.523 89.9927 117.822 89.5504 117.278 88.9457C116.706 88.2948 116.332 87.4946 116.198 86.6387C116.038 85.6326 116.12 84.6028 116.438 83.6349C116.719 82.6844 117.19 81.8007 117.822 81.0372V81.0372Z" fill="#BA4A4A"/>
<path d="M123.908 99.7149L120.536 97.8001L117.97 102.326L115.829 101.113L118.399 96.5866L114.837 94.5656L111.94 99.6687L109.743 98.4229L114.173 90.6206L127.637 98.2661L123.207 106.064L121.011 104.818L123.908 99.7149Z" fill="#BA4A4A"/>
<path d="M116.171 110.982L113.268 108.412L109.817 112.306L107.971 110.678L111.427 106.783L108.359 104.061L104.465 108.454L102.578 106.779L108.53 100.07L120.111 110.341L114.159 117.05L112.272 115.375L116.171 110.982Z" fill="#BA4A4A"/>
<path d="M92.2744 123.864C92.2572 123 92.5017 122.151 92.9758 121.428C93.5808 120.52 94.4001 119.776 95.3612 119.26L97.599 117.949L94.5953 112.828L97.2714 111.259L105.088 124.598L100.174 127.477C99.2812 128.035 98.2723 128.379 97.2253 128.483C96.3606 128.567 95.4907 128.389 94.7291 127.971C94.01 127.545 93.4087 126.947 92.98 126.229C92.5513 125.512 92.3087 124.699 92.2744 123.864V123.864ZM95.375 122.84C95.3003 123.135 95.2883 123.442 95.34 123.742C95.3917 124.041 95.5058 124.327 95.675 124.58C96.4347 125.875 97.5421 126.099 98.997 125.253L101.115 124.007L98.8448 120.132L96.7224 121.373C96.1032 121.673 95.6214 122.198 95.375 122.84V122.84Z" fill="#BA4A4A"/>
<path d="M78.663 119.671L83.6277 124.492L85.0119 124.082L83.3185 118.3L86.2946 117.428L90.6456 132.262L85.0949 133.914C84.0921 134.239 83.0273 134.326 81.9851 134.168C81.124 134.037 80.3211 133.653 79.678 133.065C79.0657 132.484 78.6225 131.747 78.3953 130.934C78.109 129.986 78.1349 128.972 78.4692 128.041C78.8513 127.033 79.5791 126.194 80.5224 125.674L75.2117 120.7L78.663 119.671ZM85.6855 126.31L83.1986 127.044C82.8664 127.112 82.5511 127.246 82.2707 127.437C81.9904 127.627 81.7506 127.872 81.5652 128.156C81.4233 128.432 81.3395 128.734 81.3189 129.043C81.2982 129.353 81.3412 129.663 81.4452 129.955C81.5132 130.251 81.6429 130.53 81.8257 130.772C82.0086 131.015 82.2405 131.216 82.5064 131.363C83.1337 131.629 83.8399 131.643 84.4767 131.4L86.9636 130.671L85.6855 126.31Z" fill="#BA4A4A"/>
<path d="M70.4131 121.959C71.6124 122.619 72.6118 123.589 73.3061 124.769C74.0082 126.012 74.3798 127.414 74.3855 128.841C74.3911 130.269 74.0306 131.674 73.3384 132.922C72.6517 134.11 71.657 135.09 70.4592 135.76C69.2376 136.432 67.8667 136.788 66.4722 136.793C65.0777 136.799 63.704 136.455 62.4769 135.792C61.2834 135.133 60.2914 134.161 59.607 132.982C58.9134 131.736 58.5466 130.335 58.541 128.91C58.5353 127.484 58.891 126.08 59.5747 124.829C60.253 123.644 61.24 122.665 62.4308 121.996C63.6504 121.322 65.0199 120.966 66.4132 120.961C67.8065 120.955 69.1789 121.3 70.4039 121.964L70.4131 121.959ZM63.9996 124.363C63.2839 124.795 62.7086 125.425 62.3432 126.176C61.9518 127.03 61.7512 127.958 61.7552 128.897C61.7592 129.835 61.9677 130.762 62.3662 131.612C62.7362 132.354 63.3152 132.971 64.0319 133.388C64.7888 133.797 65.6356 134.011 66.4958 134.011C67.356 134.011 68.2027 133.797 68.9597 133.388C69.679 132.968 70.2584 132.345 70.6253 131.598C71.0175 130.745 71.2206 129.818 71.2206 128.88C71.2206 127.942 71.0175 127.015 70.6253 126.162C70.2495 125.414 69.6665 124.789 68.9458 124.363C68.1915 123.939 67.3378 123.724 66.4727 123.74C65.607 123.719 64.7519 123.934 63.9996 124.363V124.363Z" fill="#BA4A4A"/>
<path d="M44.533 133.185L47.3014 122.698C47.689 121.24 48.4103 120.22 49.4653 119.638C50.6059 119.05 51.9331 118.937 53.1566 119.325C54.4437 119.603 55.5684 120.379 56.2849 121.484C56.6174 122.057 56.8246 122.693 56.893 123.352C56.9614 124.01 56.8894 124.676 56.6817 125.305L53.6872 124.506C53.8493 123.975 53.8265 123.404 53.6226 122.887C53.5139 122.664 53.3553 122.47 53.1593 122.319C52.9632 122.167 52.735 122.063 52.4922 122.015C52.2627 121.938 52.0186 121.914 51.7786 121.946C51.5386 121.978 51.3092 122.065 51.108 122.199C50.6974 122.525 50.4134 122.983 50.3051 123.496L47.5367 133.988L44.533 133.185Z" fill="#BA4A4A"/>
<path d="M37.1689 127.34L38.9453 123.898L34.3313 121.512L35.4572 119.325L40.0712 121.711L41.9491 118.07L36.7353 115.38L37.8934 113.138L45.8618 117.249L38.7654 131.008L30.7785 126.892L31.9366 124.65L37.1689 127.34Z" fill="#BA4A4A"/>
<path d="M28.0378 120.921C26.7579 121.354 25.3838 121.427 24.065 121.133C22.7025 120.822 21.4455 120.159 20.42 119.209C19.195 118.156 18.3249 116.751 17.9284 115.186C17.5526 113.662 17.7055 112.057 18.3621 110.632L21.0152 113.017C20.7846 113.744 20.7846 114.524 21.0152 115.25C21.2683 115.986 21.7107 116.641 22.2979 117.151C22.917 117.725 23.6814 118.117 24.508 118.286C25.3179 118.442 26.1554 118.362 26.9212 118.056C27.7737 117.684 28.5365 117.134 29.1581 116.442C29.7798 115.75 30.2458 114.933 30.5247 114.046C30.7579 113.252 30.7579 112.408 30.5247 111.614C30.2628 110.808 29.7839 110.09 29.1405 109.538C28.5712 109.005 27.8679 108.637 27.1057 108.472C26.3554 108.323 25.5772 108.408 24.8771 108.717L22.224 106.331C23.5702 105.522 25.1525 105.196 26.7089 105.409C28.3086 105.64 29.7976 106.361 30.9723 107.471C32.0261 108.39 32.8214 109.569 33.2793 110.89C33.7121 112.167 33.7871 113.537 33.4962 114.853C33.1611 116.238 32.4874 117.518 31.5354 118.578C30.5835 119.638 29.3832 120.444 28.0424 120.926L28.0378 120.921Z" fill="#BA4A4A"/>
<path d="M5.91333 100.785L8.01274 99.4241L10.2598 102.875L21.1212 95.8159L22.81 98.4136L11.9485 105.478L14.1956 108.929L12.0962 110.313L5.91333 100.785Z" fill="#BA4A4A"/>
<path d="M17.0932 88.9088C17.0536 89.7905 16.7727 90.6443 16.2812 91.3773C15.7772 92.0996 15.059 92.6452 14.2279 92.9369L13.1067 89.8085C13.3711 89.7063 13.6126 89.5525 13.8169 89.3561C14.0213 89.1596 14.1846 88.9244 14.2972 88.6643C14.5066 88.0926 14.4917 87.4628 14.2556 86.9017C14.0811 86.3148 13.7033 85.8094 13.1898 85.476C12.9668 85.3421 12.716 85.2612 12.4568 85.2396C12.1976 85.218 11.9369 85.2563 11.6948 85.3514C11.4974 85.4131 11.3142 85.5135 11.1558 85.6465C10.9973 85.7796 10.8669 85.9427 10.772 86.1265C10.5832 86.5089 10.4793 86.9276 10.4675 87.3539C10.4675 87.806 10.4859 88.4213 10.5228 89.1995C10.5854 90.0643 10.5854 90.9324 10.5228 91.7972C10.459 92.4983 10.2246 93.1731 9.83997 93.7628C9.35889 94.4438 8.66366 94.944 7.86515 95.1839C7.07364 95.4901 6.2073 95.5465 5.38279 95.3454C4.56709 95.133 3.8311 94.6872 3.26496 94.0627C2.60645 93.3461 2.10646 92.4987 1.79767 91.5757C1.26776 90.2893 1.18969 88.8611 1.5762 87.5246C1.77467 86.9275 2.10136 86.381 2.53337 85.9235C2.96537 85.466 3.49226 85.1085 4.07703 84.8761L5.22593 88.106C4.98983 88.2028 4.77735 88.3493 4.60299 88.5357C4.42862 88.722 4.29648 88.9437 4.21548 89.1856C4.03193 89.7589 4.05805 90.3787 4.28926 90.9344C4.43777 91.4371 4.7663 91.8675 5.21207 92.1433C5.4348 92.2605 5.68098 92.3263 5.93251 92.3359C6.18403 92.3455 6.4345 92.2986 6.66551 92.1986C6.84701 92.1401 7.01446 92.0448 7.15738 91.9185C7.3003 91.7923 7.41562 91.6379 7.49606 91.465C7.66931 91.0929 7.76506 90.6894 7.77751 90.2792C7.77751 89.8178 7.77751 89.2364 7.77751 88.4659C7.71459 87.5965 7.71459 86.7237 7.77751 85.8543C7.84796 85.1432 8.08852 84.4596 8.47885 83.861C8.95141 83.1777 9.64069 82.6737 10.4352 82.4307C11.1991 82.1533 12.0251 82.0942 12.8206 82.26C13.663 82.4383 14.4365 82.8547 15.0492 83.4596C15.7722 84.1749 16.316 85.0507 16.6365 86.0158C16.9804 86.94 17.1357 87.9236 17.0932 88.9088V88.9088Z" fill="#BA4A4A"/>
<path d="M4.16925 64.9112L6.78543 64.8696L6.9285 74.2592L4.31693 74.3007L4.16925 64.9112Z" fill="#BA4A4A"/>
</svg>
