<svg width="70" height="56" viewBox="0 0 70 56" fill="none" xmlns="http://www.w3.org/2000/svg">
<ellipse cx="25" cy="11" rx="6" ry="11" fill="#FAF5ED"/>
<ellipse cx="44" cy="11" rx="6" ry="11" fill="#FAF5ED"/>
<path d="M68 21C68 25.3336 67.1464 29.6248 65.488 33.6286C63.8296 37.6323 61.3989 41.2702 58.3345 44.3345C55.2702 47.3989 51.6323 49.8296 47.6286 51.488C43.6248 53.1464 39.3336 54 35 54C30.6664 54 26.3752 53.1464 22.3714 51.488C18.3677 49.8296 14.7298 47.3989 11.6655 44.3345C8.60114 41.2702 6.17038 37.6323 4.51197 33.6286C2.85357 29.6248 2 25.3336 2 21" stroke="#FAF5ED" stroke-width="4" stroke-linecap="round" stroke-linejoin="round"/>
</svg>
