<svg width="82" height="82" viewBox="0 0 82 82" fill="none" xmlns="http://www.w3.org/2000/svg">
<path d="M39.2995 1.2348C40.098 0.132903 41.7399 0.132905 42.5384 1.2348L46.3738 6.52743C46.9874 7.3741 48.1495 7.60527 49.0404 7.05785L54.6092 3.63583C55.7686 2.92338 57.2856 3.55173 57.6016 4.87533L59.1197 11.2328C59.3625 12.2498 60.3477 12.9081 61.3803 12.7433L67.8348 11.7129C69.1785 11.4983 70.3396 12.6594 70.125 14.0032L69.0946 20.4576C68.9298 21.4902 69.5881 22.4754 70.6051 22.7183L76.9626 24.2363C78.2862 24.5523 78.9145 26.0693 78.2021 27.2287L74.7801 32.7975C74.2326 33.6884 74.4638 34.8505 75.3105 35.4641L80.6031 39.2995C81.705 40.098 81.705 41.7399 80.6031 42.5384L75.3105 46.3738C74.4638 46.9874 74.2326 48.1495 74.7801 49.0404L78.2021 54.6092C78.9145 55.7686 78.2862 57.2856 76.9626 57.6016L70.6051 59.1197C69.5881 59.3625 68.9298 60.3477 69.0946 61.3803L70.125 67.8348C70.3396 69.1785 69.1785 70.3396 67.8347 70.125L61.3803 69.0946C60.3477 68.9298 59.3625 69.5881 59.1197 70.6051L57.6016 76.9626C57.2856 78.2862 55.7686 78.9145 54.6092 78.2021L49.0404 74.7801C48.1495 74.2326 46.9874 74.4638 46.3738 75.3105L42.5384 80.6031C41.7399 81.705 40.098 81.705 39.2995 80.6031L35.4641 75.3105C34.8505 74.4638 33.6884 74.2326 32.7975 74.7801L27.2287 78.2021C26.0693 78.9145 24.5523 78.2862 24.2363 76.9626L22.7183 70.6051C22.4754 69.5881 21.4902 68.9298 20.4576 69.0946L14.0032 70.125C12.6594 70.3396 11.4983 69.1785 11.7129 67.8347L12.7433 61.3803C12.9081 60.3477 12.2498 59.3625 11.2328 59.1197L4.87532 57.6016C3.55173 57.2856 2.92338 55.7686 3.63583 54.6092L7.05785 49.0404C7.60527 48.1495 7.3741 46.9874 6.52743 46.3738L1.2348 42.5384C0.132903 41.7399 0.132905 40.098 1.2348 39.2995L6.52743 35.4641C7.3741 34.8505 7.60527 33.6884 7.05785 32.7975L3.63583 27.2287C2.92338 26.0693 3.55173 24.5523 4.87533 24.2363L11.2328 22.7183C12.2498 22.4754 12.9081 21.4902 12.7433 20.4576L11.7129 14.0032C11.4983 12.6594 12.6594 11.4983 14.0032 11.7129L20.4576 12.7433C21.4902 12.9081 22.4754 12.2498 22.7183 11.2328L24.2363 4.87532C24.5523 3.55173 26.0693 2.92338 27.2287 3.63583L32.7975 7.05785C33.6884 7.60527 34.8505 7.3741 35.4641 6.52743L39.2995 1.2348Z" fill="#BA4A4A"/>
</svg>
