<svg width="1054" height="319" viewBox="0 0 1054 319" fill="none" xmlns="http://www.w3.org/2000/svg">
<path d="M27.018 37.107H11.172L8.55 44.688H0.171L14.478 4.845H23.769L38.076 44.688H29.64L27.018 37.107ZM24.852 30.723L19.095 14.079L13.338 30.723H24.852Z" fill="black"/>
<path d="M86.0188 17.214C86.0188 19.342 85.5058 21.337 84.4798 23.199C83.4918 25.061 81.9148 26.562 79.7488 27.702C77.6208 28.842 74.9228 29.412 71.6548 29.412H64.9858V44.688H57.0058V4.902H71.6548C74.7328 4.902 77.3548 5.434 79.5208 6.498C81.6868 7.562 83.3018 9.025 84.3658 10.887C85.4678 12.749 86.0188 14.858 86.0188 17.214ZM71.3128 22.971C73.5168 22.971 75.1508 22.477 76.2148 21.489C77.2788 20.463 77.8108 19.038 77.8108 17.214C77.8108 13.338 75.6448 11.4 71.3128 11.4H64.9858V22.971H71.3128Z" fill="black"/>
<path d="M99.6645 18.012C100.69 16.34 102.021 15.029 103.655 14.079C105.327 13.129 107.227 12.654 109.354 12.654V21.033H107.245C104.737 21.033 102.838 21.622 101.546 22.8C100.292 23.978 99.6645 26.03 99.6645 28.956V44.688H91.6845V13.11H99.6645V18.012Z" fill="black"/>
<path d="M128.751 45.201C125.711 45.201 122.975 44.536 120.543 43.206C118.111 41.838 116.192 39.919 114.786 37.449C113.418 34.979 112.734 32.129 112.734 28.899C112.734 25.669 113.437 22.819 114.843 20.349C116.287 17.879 118.244 15.979 120.714 14.649C123.184 13.281 125.939 12.597 128.979 12.597C132.019 12.597 134.774 13.281 137.244 14.649C139.714 15.979 141.652 17.879 143.058 20.349C144.502 22.819 145.224 25.669 145.224 28.899C145.224 32.129 144.483 34.979 143.001 37.449C141.557 39.919 139.581 41.838 137.073 43.206C134.603 44.536 131.829 45.201 128.751 45.201ZM128.751 38.247C130.195 38.247 131.544 37.905 132.798 37.221C134.09 36.499 135.116 35.435 135.876 34.029C136.636 32.623 137.016 30.913 137.016 28.899C137.016 25.897 136.218 23.598 134.622 22.002C133.064 20.368 131.145 19.551 128.865 19.551C126.585 19.551 124.666 20.368 123.108 22.002C121.588 23.598 120.828 25.897 120.828 28.899C120.828 31.901 121.569 34.219 123.051 35.853C124.571 37.449 126.471 38.247 128.751 38.247Z" fill="black"/>
<path d="M149.026 28.785C149.026 25.593 149.653 22.762 150.907 20.292C152.199 17.822 153.947 15.922 156.151 14.592C158.355 13.262 160.806 12.597 163.504 12.597C165.556 12.597 167.513 13.053 169.375 13.965C171.237 14.839 172.719 16.017 173.821 17.499V2.508H181.915V44.688H173.821V40.014C172.833 41.572 171.446 42.826 169.66 43.776C167.874 44.726 165.803 45.201 163.447 45.201C160.787 45.201 158.355 44.517 156.151 43.149C153.947 41.781 152.199 39.862 150.907 37.392C149.653 34.884 149.026 32.015 149.026 28.785ZM173.878 28.899C173.878 26.961 173.498 25.308 172.738 23.94C171.978 22.534 170.952 21.47 169.66 20.748C168.368 19.988 166.981 19.608 165.499 19.608C164.017 19.608 162.649 19.969 161.395 20.691C160.141 21.413 159.115 22.477 158.317 23.883C157.557 25.251 157.177 26.885 157.177 28.785C157.177 30.685 157.557 32.357 158.317 33.801C159.115 35.207 160.141 36.29 161.395 37.05C162.687 37.81 164.055 38.19 165.499 38.19C166.981 38.19 168.368 37.829 169.66 37.107C170.952 36.347 171.978 35.283 172.738 33.915C173.498 32.509 173.878 30.837 173.878 28.899Z" fill="black"/>
<path d="M219.52 13.11V44.688H211.483V40.698C210.457 42.066 209.108 43.149 207.436 43.947C205.802 44.707 204.016 45.087 202.078 45.087C199.608 45.087 197.423 44.574 195.523 43.548C193.623 42.484 192.122 40.945 191.02 38.931C189.956 36.879 189.424 34.447 189.424 31.635V13.11H197.404V30.495C197.404 33.003 198.031 34.941 199.285 36.309C200.539 37.639 202.249 38.304 204.415 38.304C206.619 38.304 208.348 37.639 209.602 36.309C210.856 34.941 211.483 33.003 211.483 30.495V13.11H219.52Z" fill="black"/>
<path d="M225.341 28.899C225.341 25.631 226.006 22.781 227.336 20.349C228.666 17.879 230.509 15.979 232.865 14.649C235.221 13.281 237.919 12.597 240.959 12.597C244.873 12.597 248.103 13.585 250.649 15.561C253.233 17.499 254.962 20.235 255.836 23.769H247.229C246.773 22.401 245.994 21.337 244.892 20.577C243.828 19.779 242.498 19.38 240.902 19.38C238.622 19.38 236.817 20.216 235.487 21.888C234.157 23.522 233.492 25.859 233.492 28.899C233.492 31.901 234.157 34.238 235.487 35.91C236.817 37.544 238.622 38.361 240.902 38.361C244.132 38.361 246.241 36.917 247.229 34.029H255.836C254.962 37.449 253.233 40.166 250.649 42.18C248.065 44.194 244.835 45.201 240.959 45.201C237.919 45.201 235.221 44.536 232.865 43.206C230.509 41.838 228.666 39.938 227.336 37.506C226.006 35.036 225.341 32.167 225.341 28.899Z" fill="black"/>
<path d="M270.974 19.665V34.941C270.974 36.005 271.221 36.784 271.715 37.278C272.247 37.734 273.121 37.962 274.337 37.962H278.042V44.688H273.026C266.3 44.688 262.937 41.42 262.937 34.884V19.665H259.175V13.11H262.937V5.301H270.974V13.11H278.042V19.665H270.974Z" fill="black"/>
<path d="M311.271 4.902C315.451 4.902 319.118 5.719 322.272 7.353C325.464 8.987 327.915 11.324 329.625 14.364C331.373 17.366 332.247 20.862 332.247 24.852C332.247 28.842 331.373 32.338 329.625 35.34C327.915 38.304 325.464 40.603 322.272 42.237C319.118 43.871 315.451 44.688 311.271 44.688H297.363V4.902H311.271ZM310.986 37.905C315.166 37.905 318.396 36.765 320.676 34.485C322.956 32.205 324.096 28.994 324.096 24.852C324.096 20.71 322.956 17.48 320.676 15.162C318.396 12.806 315.166 11.628 310.986 11.628H305.343V37.905H310.986Z" fill="black"/>
<path d="M367.576 28.215C367.576 29.355 367.5 30.381 367.348 31.293H344.263C344.453 33.573 345.251 35.359 346.657 36.651C348.063 37.943 349.792 38.589 351.844 38.589C354.808 38.589 356.917 37.316 358.171 34.77H366.778C365.866 37.81 364.118 40.318 361.534 42.294C358.95 44.232 355.777 45.201 352.015 45.201C348.975 45.201 346.239 44.536 343.807 43.206C341.413 41.838 339.532 39.919 338.164 37.449C336.834 34.979 336.169 32.129 336.169 28.899C336.169 25.631 336.834 22.762 338.164 20.292C339.494 17.822 341.356 15.922 343.75 14.592C346.144 13.262 348.899 12.597 352.015 12.597C355.017 12.597 357.696 13.243 360.052 14.535C362.446 15.827 364.289 17.67 365.581 20.064C366.911 22.42 367.576 25.137 367.576 28.215ZM359.311 25.935C359.273 23.883 358.532 22.249 357.088 21.033C355.644 19.779 353.877 19.152 351.787 19.152C349.811 19.152 348.139 19.76 346.771 20.976C345.441 22.154 344.624 23.807 344.32 25.935H359.311Z" fill="black"/>
<path d="M385.484 45.201C382.9 45.201 380.582 44.745 378.53 43.833C376.478 42.883 374.844 41.61 373.628 40.014C372.45 38.418 371.804 36.651 371.69 34.713H379.727C379.879 35.929 380.468 36.936 381.494 37.734C382.558 38.532 383.869 38.931 385.427 38.931C386.947 38.931 388.125 38.627 388.961 38.019C389.835 37.411 390.272 36.632 390.272 35.682C390.272 34.656 389.74 33.896 388.676 33.402C387.65 32.87 385.997 32.3 383.717 31.692C381.361 31.122 379.423 30.533 377.903 29.925C376.421 29.317 375.129 28.386 374.027 27.132C372.963 25.878 372.431 24.187 372.431 22.059C372.431 20.311 372.925 18.715 373.913 17.271C374.939 15.827 376.383 14.687 378.245 13.851C380.145 13.015 382.368 12.597 384.914 12.597C388.676 12.597 391.678 13.547 393.92 15.447C396.162 17.309 397.397 19.836 397.625 23.028H389.987C389.873 21.774 389.341 20.786 388.391 20.064C387.479 19.304 386.244 18.924 384.686 18.924C383.242 18.924 382.121 19.19 381.323 19.722C380.563 20.254 380.183 20.995 380.183 21.945C380.183 23.009 380.715 23.826 381.779 24.396C382.843 24.928 384.496 25.479 386.738 26.049C389.018 26.619 390.899 27.208 392.381 27.816C393.863 28.424 395.136 29.374 396.2 30.666C397.302 31.92 397.872 33.592 397.91 35.682C397.91 37.506 397.397 39.14 396.371 40.584C395.383 42.028 393.939 43.168 392.039 44.004C390.177 44.802 387.992 45.201 385.484 45.201Z" fill="black"/>
<path d="M408.508 9.348C407.102 9.348 405.924 8.911 404.974 8.037C404.062 7.125 403.606 6.004 403.606 4.674C403.606 3.344 404.062 2.242 404.974 1.368C405.924 0.456 407.102 0 408.508 0C409.914 0 411.073 0.456 411.985 1.368C412.935 2.242 413.41 3.344 413.41 4.674C413.41 6.004 412.935 7.125 411.985 8.037C411.073 8.911 409.914 9.348 408.508 9.348ZM412.441 13.11V44.688H404.461V13.11H412.441Z" fill="black"/>
<path d="M432.694 12.597C435.05 12.597 437.121 13.072 438.907 14.022C440.693 14.934 442.099 16.131 443.125 17.613V13.11H451.162V44.916C451.162 47.842 450.573 50.445 449.395 52.725C448.217 55.043 446.45 56.867 444.094 58.197C441.738 59.565 438.888 60.249 435.544 60.249C431.06 60.249 427.374 59.204 424.486 57.114C421.636 55.024 420.021 52.174 419.641 48.564H427.564C427.982 50.008 428.875 51.148 430.243 51.984C431.649 52.858 433.34 53.295 435.316 53.295C437.634 53.295 439.515 52.592 440.959 51.186C442.403 49.818 443.125 47.728 443.125 44.916V40.014C442.099 41.496 440.674 42.731 438.85 43.719C437.064 44.707 435.012 45.201 432.694 45.201C430.034 45.201 427.602 44.517 425.398 43.149C423.194 41.781 421.446 39.862 420.154 37.392C418.9 34.884 418.273 32.015 418.273 28.785C418.273 25.593 418.9 22.762 420.154 20.292C421.446 17.822 423.175 15.922 425.341 14.592C427.545 13.262 429.996 12.597 432.694 12.597ZM443.125 28.899C443.125 26.961 442.745 25.308 441.985 23.94C441.225 22.534 440.199 21.47 438.907 20.748C437.615 19.988 436.228 19.608 434.746 19.608C433.264 19.608 431.896 19.969 430.642 20.691C429.388 21.413 428.362 22.477 427.564 23.883C426.804 25.251 426.424 26.885 426.424 28.785C426.424 30.685 426.804 32.357 427.564 33.801C428.362 35.207 429.388 36.29 430.642 37.05C431.934 37.81 433.302 38.19 434.746 38.19C436.228 38.19 437.615 37.829 438.907 37.107C440.199 36.347 441.225 35.283 441.985 33.915C442.745 32.509 443.125 30.837 443.125 28.899Z" fill="black"/>
<path d="M476.455 12.654C480.217 12.654 483.257 13.851 485.575 16.245C487.893 18.601 489.052 21.907 489.052 26.163V44.688H481.072V27.246C481.072 24.738 480.445 22.819 479.191 21.489C477.937 20.121 476.227 19.437 474.061 19.437C471.857 19.437 470.109 20.121 468.817 21.489C467.563 22.819 466.936 24.738 466.936 27.246V44.688H458.956V13.11H466.936V17.043C468 15.675 469.349 14.611 470.983 13.851C472.655 13.053 474.479 12.654 476.455 12.654Z" fill="black"/>
<path d="M525.996 28.215C525.996 29.355 525.92 30.381 525.768 31.293H502.683C502.873 33.573 503.671 35.359 505.077 36.651C506.483 37.943 508.212 38.589 510.264 38.589C513.228 38.589 515.337 37.316 516.591 34.77H525.198C524.286 37.81 522.538 40.318 519.954 42.294C517.37 44.232 514.197 45.201 510.435 45.201C507.395 45.201 504.659 44.536 502.227 43.206C499.833 41.838 497.952 39.919 496.584 37.449C495.254 34.979 494.589 32.129 494.589 28.899C494.589 25.631 495.254 22.762 496.584 20.292C497.914 17.822 499.776 15.922 502.17 14.592C504.564 13.262 507.319 12.597 510.435 12.597C513.437 12.597 516.116 13.243 518.472 14.535C520.866 15.827 522.709 17.67 524.001 20.064C525.331 22.42 525.996 25.137 525.996 28.215ZM517.731 25.935C517.693 23.883 516.952 22.249 515.508 21.033C514.064 19.779 512.297 19.152 510.207 19.152C508.231 19.152 506.559 19.76 505.191 20.976C503.861 22.154 503.044 23.807 502.74 25.935H517.731Z" fill="black"/>
<path d="M539.8 18.012C540.826 16.34 542.156 15.029 543.79 14.079C545.462 13.129 547.362 12.654 549.49 12.654V21.033H547.381C544.873 21.033 542.973 21.622 541.681 22.8C540.427 23.978 539.8 26.03 539.8 28.956V44.688H531.82V13.11H539.8V18.012Z" fill="black"/>
<path d="M584.977 12.768C588.891 12.768 592.007 13.87 594.325 16.074C596.681 18.278 597.859 21.242 597.859 24.966C597.859 25.84 597.764 26.885 597.574 28.101C597.422 28.937 597.156 29.963 596.776 31.179H572.779C572.741 31.445 572.722 31.844 572.722 32.376C572.722 34.618 573.406 36.404 574.774 37.734C576.18 39.064 578.004 39.729 580.246 39.729C583.78 39.729 586.497 38.266 588.397 35.34H595.408C593.964 38.228 591.836 40.603 589.024 42.465C586.212 44.289 582.963 45.201 579.277 45.201C576.655 45.201 574.356 44.688 572.38 43.662C570.404 42.636 568.865 41.173 567.763 39.273C566.661 37.335 566.11 35.074 566.11 32.49C566.11 31.388 566.224 30.21 566.452 28.956C567.022 25.726 568.181 22.895 569.929 20.463C571.677 17.993 573.843 16.093 576.427 14.763C579.049 13.433 581.899 12.768 584.977 12.768ZM591.076 26.505C591.152 25.821 591.19 25.327 591.19 25.023C591.19 22.933 590.487 21.28 589.081 20.064C587.713 18.848 585.927 18.24 583.723 18.24C581.405 18.24 579.315 18.981 577.453 20.463C575.591 21.945 574.318 23.959 573.634 26.505H591.076Z" fill="#909090"/>
<path d="M617.307 28.728L624.603 44.688H617.25L612.348 34.029L604.083 44.688H597.3L610.182 29.241L602.829 13.281H610.182L615.084 23.94L623.349 13.281H630.132L617.307 28.728Z" fill="#909090"/>
<path d="M640.678 17.898C642.046 16.454 643.756 15.238 645.808 14.25C647.898 13.262 650.14 12.768 652.534 12.768C654.928 12.768 657.056 13.281 658.918 14.307C660.78 15.333 662.224 16.796 663.25 18.696C664.276 20.596 664.789 22.819 664.789 25.365C664.789 26.467 664.675 27.626 664.447 28.842C663.877 31.996 662.718 34.827 660.97 37.335C659.26 39.805 657.151 41.743 654.643 43.149C652.173 44.517 649.57 45.201 646.834 45.201C644.44 45.201 642.388 44.726 640.678 43.776C639.006 42.788 637.695 41.572 636.745 40.128L633.325 59.622H626.827L634.978 13.281H641.476L640.678 17.898ZM657.835 28.842C657.987 28.12 658.063 27.341 658.063 26.505C658.063 23.959 657.303 21.983 655.783 20.577C654.301 19.133 652.42 18.411 650.14 18.411C648.506 18.411 646.872 18.829 645.238 19.665C643.642 20.501 642.255 21.717 641.077 23.313C639.899 24.909 639.12 26.79 638.74 28.956C638.588 29.678 638.512 30.457 638.512 31.293C638.512 33.839 639.253 35.853 640.735 37.335C642.255 38.817 644.136 39.558 646.378 39.558C648.05 39.558 649.684 39.14 651.28 38.304C652.914 37.43 654.32 36.176 655.498 34.542C656.676 32.908 657.455 31.008 657.835 28.842Z" fill="#909090"/>
<path d="M687.232 12.768C691.146 12.768 694.262 13.87 696.58 16.074C698.936 18.278 700.114 21.242 700.114 24.966C700.114 25.84 700.019 26.885 699.829 28.101C699.677 28.937 699.411 29.963 699.031 31.179H675.034C674.996 31.445 674.977 31.844 674.977 32.376C674.977 34.618 675.661 36.404 677.029 37.734C678.435 39.064 680.259 39.729 682.501 39.729C686.035 39.729 688.752 38.266 690.652 35.34H697.663C696.219 38.228 694.091 40.603 691.279 42.465C688.467 44.289 685.218 45.201 681.532 45.201C678.91 45.201 676.611 44.688 674.635 43.662C672.659 42.636 671.12 41.173 670.018 39.273C668.916 37.335 668.365 35.074 668.365 32.49C668.365 31.388 668.479 30.21 668.707 28.956C669.277 25.726 670.436 22.895 672.184 20.463C673.932 17.993 676.098 16.093 678.682 14.763C681.304 13.433 684.154 12.768 687.232 12.768ZM693.331 26.505C693.407 25.821 693.445 25.327 693.445 25.023C693.445 22.933 692.742 21.28 691.336 20.064C689.968 18.848 688.182 18.24 685.978 18.24C683.66 18.24 681.57 18.981 679.708 20.463C677.846 21.945 676.573 23.959 675.889 26.505H693.331Z" fill="#909090"/>
<path d="M714.318 18.81C715.61 16.91 717.13 15.428 718.878 14.364C720.664 13.3 722.64 12.768 724.806 12.768L723.609 19.494H721.956C719.448 19.494 717.434 20.121 715.914 21.375C714.394 22.629 713.33 24.795 712.722 27.873L709.758 44.688H703.26L708.789 13.281H715.287L714.318 18.81Z" fill="#909090"/>
<path d="M734.712 9.12C733.686 9.12 732.85 8.797 732.204 8.151C731.558 7.505 731.235 6.688 731.235 5.7C731.235 4.37 731.729 3.23 732.717 2.28C733.743 1.292 734.902 0.798 736.194 0.798C737.22 0.798 738.037 1.121 738.645 1.767C739.291 2.413 739.614 3.23 739.614 4.218C739.614 5.548 739.12 6.707 738.132 7.695C737.144 8.645 736.004 9.12 734.712 9.12ZM737.163 13.281L731.634 44.688H725.136L730.665 13.281H737.163Z" fill="#909090"/>
<path d="M759.317 12.768C763.231 12.768 766.347 13.87 768.665 16.074C771.021 18.278 772.199 21.242 772.199 24.966C772.199 25.84 772.104 26.885 771.914 28.101C771.762 28.937 771.496 29.963 771.116 31.179H747.119C747.081 31.445 747.062 31.844 747.062 32.376C747.062 34.618 747.746 36.404 749.114 37.734C750.52 39.064 752.344 39.729 754.586 39.729C758.12 39.729 760.837 38.266 762.737 35.34H769.748C768.304 38.228 766.176 40.603 763.364 42.465C760.552 44.289 757.303 45.201 753.617 45.201C750.995 45.201 748.696 44.688 746.72 43.662C744.744 42.636 743.205 41.173 742.103 39.273C741.001 37.335 740.45 35.074 740.45 32.49C740.45 31.388 740.564 30.21 740.792 28.956C741.362 25.726 742.521 22.895 744.269 20.463C746.017 17.993 748.183 16.093 750.767 14.763C753.389 13.433 756.239 12.768 759.317 12.768ZM765.416 26.505C765.492 25.821 765.53 25.327 765.53 25.023C765.53 22.933 764.827 21.28 763.421 20.064C762.053 18.848 760.267 18.24 758.063 18.24C755.745 18.24 753.655 18.981 751.793 20.463C749.931 21.945 748.658 23.959 747.974 26.505H765.416Z" fill="#909090"/>
<path d="M796.834 12.768C800.14 12.768 802.762 13.661 804.7 15.447C806.676 17.195 807.664 19.722 807.664 23.028C807.664 23.864 807.569 24.909 807.379 26.163L804.073 44.688H797.632L800.767 27.132C800.919 26.068 800.995 25.308 800.995 24.852C800.995 22.762 800.406 21.166 799.228 20.064C798.088 18.962 796.492 18.411 794.44 18.411C791.97 18.411 789.88 19.171 788.17 20.691C786.498 22.173 785.434 24.32 784.978 27.132V26.961L781.843 44.688H775.345L780.874 13.281H787.372L786.745 16.929C788.037 15.637 789.557 14.63 791.305 13.908C793.091 13.148 794.934 12.768 796.834 12.768Z" fill="#909090"/>
<path d="M812.988 28.956C813.558 25.726 814.698 22.895 816.408 20.463C818.156 17.993 820.303 16.093 822.849 14.763C825.433 13.433 828.226 12.768 831.228 12.768C835.028 12.768 838.011 13.68 840.177 15.504C842.343 17.29 843.578 19.855 843.882 23.199H836.871C836.567 21.641 835.864 20.425 834.762 19.551C833.66 18.677 832.159 18.24 830.259 18.24C827.599 18.24 825.319 19.19 823.419 21.09C821.519 22.952 820.265 25.574 819.657 28.956C819.467 30.172 819.372 31.16 819.372 31.92C819.372 34.428 819.999 36.366 821.253 37.734C822.507 39.064 824.255 39.729 826.497 39.729C830.259 39.729 833.033 38.076 834.819 34.77H841.83C840.348 37.962 838.182 40.508 835.332 42.408C832.52 44.27 829.252 45.201 825.528 45.201C821.576 45.201 818.441 44.08 816.123 41.838C813.805 39.558 812.646 36.48 812.646 32.604C812.646 31.426 812.76 30.21 812.988 28.956Z" fill="#909090"/>
<path d="M865.691 12.768C869.605 12.768 872.721 13.87 875.039 16.074C877.395 18.278 878.573 21.242 878.573 24.966C878.573 25.84 878.478 26.885 878.288 28.101C878.136 28.937 877.87 29.963 877.49 31.179H853.493C853.455 31.445 853.436 31.844 853.436 32.376C853.436 34.618 854.12 36.404 855.488 37.734C856.894 39.064 858.718 39.729 860.96 39.729C864.494 39.729 867.211 38.266 869.111 35.34H876.122C874.678 38.228 872.55 40.603 869.738 42.465C866.926 44.289 863.677 45.201 859.991 45.201C857.369 45.201 855.07 44.688 853.094 43.662C851.118 42.636 849.579 41.173 848.477 39.273C847.375 37.335 846.824 35.074 846.824 32.49C846.824 31.388 846.938 30.21 847.166 28.956C847.736 25.726 848.895 22.895 850.643 20.463C852.391 17.993 854.557 16.093 857.141 14.763C859.763 13.433 862.613 12.768 865.691 12.768ZM871.79 26.505C871.866 25.821 871.904 25.327 871.904 25.023C871.904 22.933 871.201 21.28 869.795 20.064C868.427 18.848 866.641 18.24 864.437 18.24C862.119 18.24 860.029 18.981 858.167 20.463C856.305 21.945 855.032 23.959 854.348 26.505H871.79Z" fill="#909090"/>
<path d="M882.346 28.842C882.916 25.688 884.056 22.895 885.766 20.463C887.514 18.031 889.642 16.15 892.15 14.82C894.658 13.452 897.299 12.768 900.073 12.768C902.125 12.768 904.063 13.224 905.887 14.136C907.711 15.01 909.098 16.188 910.048 17.67L912.727 2.508H919.282L911.815 44.688H905.26L906.115 39.957C904.747 41.515 903.037 42.788 900.985 43.776C898.971 44.726 896.748 45.201 894.316 45.201C891.922 45.201 889.794 44.669 887.932 43.605C886.07 42.541 884.607 41.04 883.543 39.102C882.517 37.126 882.004 34.865 882.004 32.319C882.004 31.179 882.118 30.02 882.346 28.842ZM908.053 28.956C908.205 28.234 908.281 27.455 908.281 26.619C908.281 24.073 907.521 22.078 906.001 20.634C904.519 19.152 902.657 18.411 900.415 18.411C898.743 18.411 897.109 18.829 895.513 19.665C893.917 20.463 892.53 21.66 891.352 23.256C890.174 24.814 889.395 26.676 889.015 28.842C888.863 29.564 888.787 30.343 888.787 31.179C888.787 33.763 889.528 35.815 891.01 37.335C892.53 38.817 894.411 39.558 896.653 39.558C898.325 39.558 899.959 39.14 901.555 38.304C903.151 37.468 904.538 36.252 905.716 34.656C906.894 33.022 907.673 31.122 908.053 28.956Z" fill="#909090"/>
<path d="M985.147 13.281L969.871 44.688H963.031L960.865 21.489L950.378 44.688H943.537L939.262 13.281H945.874L948.04 38.532L959.098 13.281H965.881L967.876 38.418L978.763 13.281H985.147Z" fill="#909090"/>
<path d="M994.051 9.12C993.025 9.12 992.189 8.797 991.543 8.151C990.897 7.505 990.574 6.688 990.574 5.7C990.574 4.37 991.068 3.23 992.056 2.28C993.082 1.292 994.241 0.798 995.533 0.798C996.559 0.798 997.376 1.121 997.984 1.767C998.63 2.413 998.953 3.23 998.953 4.218C998.953 5.548 998.459 6.707 997.471 7.695C996.483 8.645 995.343 9.12 994.051 9.12ZM996.502 13.281L990.973 44.688H984.475L990.004 13.281H996.502Z" fill="#909090"/>
<path d="M1008.62 35.967C1008.55 36.499 1008.51 36.841 1008.51 36.993C1008.51 37.791 1008.76 38.38 1009.25 38.76C1009.74 39.102 1010.56 39.273 1011.7 39.273H1015.69L1014.72 44.688H1009.59C1007.08 44.688 1005.17 44.194 1003.84 43.206C1002.51 42.18 1001.84 40.565 1001.84 38.361C1001.84 37.525 1001.92 36.727 1002.07 35.967L1005.15 18.582H1001.44L1002.35 13.281H1006.12L1007.48 5.472H1014.04L1012.67 13.281H1020.25L1019.34 18.582H1011.7L1008.62 35.967Z" fill="#909090"/>
<path d="M1042.6 12.768C1045.75 12.768 1048.28 13.661 1050.18 15.447C1052.08 17.195 1053.03 19.703 1053.03 22.971C1053.03 23.845 1052.94 24.909 1052.75 26.163L1049.44 44.688H1043L1046.13 27.132C1046.29 26.068 1046.36 25.308 1046.36 24.852C1046.36 22.762 1045.77 21.166 1044.59 20.064C1043.45 18.962 1041.86 18.411 1039.81 18.411C1037.34 18.411 1035.25 19.171 1033.54 20.691C1031.86 22.173 1030.8 24.32 1030.34 27.132V27.018L1027.21 44.688H1020.71L1028.18 2.508H1034.68L1032.11 16.929C1033.44 15.599 1035.02 14.573 1036.84 13.851C1038.67 13.129 1040.59 12.768 1042.6 12.768Z" fill="#909090"/>
<path d="M10.545 104.582V121.967C10.545 123.145 10.811 124 11.343 124.532C11.913 125.026 12.863 125.273 14.193 125.273H18.183V130.688H13.053C10.127 130.688 7.885 130.004 6.327 128.636C4.769 127.268 3.99 125.045 3.99 121.967V104.582H0.285V99.281H3.99V91.472H10.545V99.281H18.183V104.582H10.545Z" fill="black"/>
<path d="M40.417 98.768C42.811 98.768 44.939 99.281 46.801 100.307C48.701 101.333 50.183 102.853 51.247 104.867C52.349 106.881 52.9 109.313 52.9 112.163V130.688H46.459V113.132C46.459 110.32 45.756 108.173 44.35 106.691C42.944 105.171 41.025 104.411 38.593 104.411C36.161 104.411 34.223 105.171 32.779 106.691C31.373 108.173 30.67 110.32 30.67 113.132V130.688H24.172V88.508H30.67V102.929C31.772 101.599 33.159 100.573 34.831 99.851C36.541 99.129 38.403 98.768 40.417 98.768Z" fill="black"/>
<path d="M89.9736 114.215C89.9736 115.393 89.8976 116.457 89.7456 117.407H65.7486C65.9386 119.915 66.8696 121.929 68.5416 123.449C70.2136 124.969 72.2656 125.729 74.6976 125.729C78.1936 125.729 80.6636 124.266 82.1076 121.34H89.1186C88.1686 124.228 86.4396 126.603 83.9316 128.465C81.4616 130.289 78.3836 131.201 74.6976 131.201C71.6956 131.201 68.9976 130.536 66.6036 129.206C64.2476 127.838 62.3856 125.938 61.0176 123.506C59.6876 121.036 59.0226 118.186 59.0226 114.956C59.0226 111.726 59.6686 108.895 60.9606 106.463C62.2906 103.993 64.1336 102.093 66.4896 100.763C68.8836 99.433 71.6196 98.768 74.6976 98.768C77.6616 98.768 80.3026 99.414 82.6206 100.706C84.9386 101.998 86.7436 103.822 88.0356 106.178C89.3276 108.496 89.9736 111.175 89.9736 114.215ZM83.1906 112.163C83.1526 109.769 82.2976 107.85 80.6256 106.406C78.9536 104.962 76.8826 104.24 74.4126 104.24C72.1706 104.24 70.2516 104.962 68.6556 106.406C67.0596 107.812 66.1096 109.731 65.8056 112.163H83.1906Z" fill="black"/>
<path d="M139.96 114.215C139.96 115.393 139.884 116.457 139.732 117.407H115.735C115.925 119.915 116.856 121.929 118.528 123.449C120.2 124.969 122.252 125.729 124.684 125.729C128.18 125.729 130.65 124.266 132.094 121.34H139.105C138.155 124.228 136.426 126.603 133.918 128.465C131.448 130.289 128.37 131.201 124.684 131.201C121.682 131.201 118.984 130.536 116.59 129.206C114.234 127.838 112.372 125.938 111.004 123.506C109.674 121.036 109.009 118.186 109.009 114.956C109.009 111.726 109.655 108.895 110.947 106.463C112.277 103.993 114.12 102.093 116.476 100.763C118.87 99.433 121.606 98.768 124.684 98.768C127.648 98.768 130.289 99.414 132.607 100.706C134.925 101.998 136.73 103.822 138.022 106.178C139.314 108.496 139.96 111.175 139.96 114.215ZM133.177 112.163C133.139 109.769 132.284 107.85 130.612 106.406C128.94 104.962 126.869 104.24 124.399 104.24C122.157 104.24 120.238 104.962 118.642 106.406C117.046 107.812 116.096 109.731 115.792 112.163H133.177Z" fill="black"/>
<path d="M162.201 98.768C164.671 98.768 166.875 99.281 168.813 100.307C170.789 101.333 172.328 102.853 173.43 104.867C174.532 106.881 175.083 109.313 175.083 112.163V130.688H168.642V113.132C168.642 110.32 167.939 108.173 166.533 106.691C165.127 105.171 163.208 104.411 160.776 104.411C158.344 104.411 156.406 105.171 154.962 106.691C153.556 108.173 152.853 110.32 152.853 113.132V130.688H146.355V99.281H152.853V102.872C153.917 101.58 155.266 100.573 156.9 99.851C158.572 99.129 160.339 98.768 162.201 98.768Z" fill="black"/>
<path d="M181.205 114.842C181.205 111.688 181.851 108.895 183.143 106.463C184.473 104.031 186.259 102.15 188.501 100.82C190.781 99.452 193.308 98.768 196.082 98.768C198.134 98.768 200.148 99.224 202.124 100.136C204.138 101.01 205.734 102.188 206.912 103.67V88.508H213.467V130.688H206.912V125.957C205.848 127.477 204.366 128.731 202.466 129.719C200.604 130.707 198.457 131.201 196.025 131.201C193.289 131.201 190.781 130.517 188.501 129.149C186.259 127.743 184.473 125.805 183.143 123.335C181.851 120.827 181.205 117.996 181.205 114.842ZM206.912 114.956C206.912 112.79 206.456 110.909 205.544 109.313C204.67 107.717 203.511 106.501 202.067 105.665C200.623 104.829 199.065 104.411 197.393 104.411C195.721 104.411 194.163 104.829 192.719 105.665C191.275 106.463 190.097 107.66 189.185 109.256C188.311 110.814 187.874 112.676 187.874 114.842C187.874 117.008 188.311 118.908 189.185 120.542C190.097 122.176 191.275 123.43 192.719 124.304C194.201 125.14 195.759 125.558 197.393 125.558C199.065 125.558 200.623 125.14 202.067 124.304C203.511 123.468 204.67 122.252 205.544 120.656C206.456 119.022 206.912 117.122 206.912 114.956Z" fill="black"/>
<path d="M246.113 107.318V112.79H222.686V107.318H246.113Z" fill="black"/>
<path d="M262.926 104.582V121.967C262.926 123.145 263.192 124 263.724 124.532C264.294 125.026 265.244 125.273 266.574 125.273H270.564V130.688H265.434C262.508 130.688 260.266 130.004 258.708 128.636C257.15 127.268 256.371 125.045 256.371 121.967V104.582H252.666V99.281H256.371V91.472H262.926V99.281H270.564V104.582H262.926Z" fill="black"/>
<path d="M290.176 131.201C287.212 131.201 284.533 130.536 282.139 129.206C279.745 127.838 277.864 125.938 276.496 123.506C275.128 121.036 274.444 118.186 274.444 114.956C274.444 111.764 275.147 108.933 276.553 106.463C277.959 103.993 279.878 102.093 282.31 100.763C284.742 99.433 287.459 98.768 290.461 98.768C293.463 98.768 296.18 99.433 298.612 100.763C301.044 102.093 302.963 103.993 304.369 106.463C305.775 108.933 306.478 111.764 306.478 114.956C306.478 118.148 305.756 120.979 304.312 123.449C302.868 125.919 300.892 127.838 298.384 129.206C295.914 130.536 293.178 131.201 290.176 131.201ZM290.176 125.558C291.848 125.558 293.406 125.159 294.85 124.361C296.332 123.563 297.529 122.366 298.441 120.77C299.353 119.174 299.809 117.236 299.809 114.956C299.809 112.676 299.372 110.757 298.498 109.199C297.624 107.603 296.465 106.406 295.021 105.608C293.577 104.81 292.019 104.411 290.347 104.411C288.675 104.411 287.117 104.81 285.673 105.608C284.267 106.406 283.146 107.603 282.31 109.199C281.474 110.757 281.056 112.676 281.056 114.956C281.056 118.338 281.911 120.96 283.621 122.822C285.369 124.646 287.554 125.558 290.176 125.558Z" fill="black"/>
<path d="M337.013 107.318V112.79H313.586V107.318H337.013Z" fill="black"/>
<path d="M375.029 114.215C375.029 115.393 374.953 116.457 374.801 117.407H350.804C350.994 119.915 351.925 121.929 353.597 123.449C355.269 124.969 357.321 125.729 359.753 125.729C363.249 125.729 365.719 124.266 367.163 121.34H374.174C373.224 124.228 371.495 126.603 368.987 128.465C366.517 130.289 363.439 131.201 359.753 131.201C356.751 131.201 354.053 130.536 351.659 129.206C349.303 127.838 347.441 125.938 346.073 123.506C344.743 121.036 344.078 118.186 344.078 114.956C344.078 111.726 344.724 108.895 346.016 106.463C347.346 103.993 349.189 102.093 351.545 100.763C353.939 99.433 356.675 98.768 359.753 98.768C362.717 98.768 365.358 99.414 367.676 100.706C369.994 101.998 371.799 103.822 373.091 106.178C374.383 108.496 375.029 111.175 375.029 114.215ZM368.246 112.163C368.208 109.769 367.353 107.85 365.681 106.406C364.009 104.962 361.938 104.24 359.468 104.24C357.226 104.24 355.307 104.962 353.711 106.406C352.115 107.812 351.165 109.731 350.861 112.163H368.246Z" fill="black"/>
<path d="M397.27 98.768C399.74 98.768 401.944 99.281 403.882 100.307C405.858 101.333 407.397 102.853 408.499 104.867C409.601 106.881 410.152 109.313 410.152 112.163V130.688H403.711V113.132C403.711 110.32 403.008 108.173 401.602 106.691C400.196 105.171 398.277 104.411 395.845 104.411C393.413 104.411 391.475 105.171 390.031 106.691C388.625 108.173 387.922 110.32 387.922 113.132V130.688H381.424V99.281H387.922V102.872C388.986 101.58 390.335 100.573 391.969 99.851C393.641 99.129 395.408 98.768 397.27 98.768Z" fill="black"/>
<path d="M416.275 114.842C416.275 111.688 416.921 108.895 418.213 106.463C419.543 104.031 421.329 102.15 423.571 100.82C425.851 99.452 428.378 98.768 431.152 98.768C433.204 98.768 435.218 99.224 437.194 100.136C439.208 101.01 440.804 102.188 441.982 103.67V88.508H448.537V130.688H441.982V125.957C440.918 127.477 439.436 128.731 437.536 129.719C435.674 130.707 433.527 131.201 431.095 131.201C428.359 131.201 425.851 130.517 423.571 129.149C421.329 127.743 419.543 125.805 418.213 123.335C416.921 120.827 416.275 117.996 416.275 114.842ZM441.982 114.956C441.982 112.79 441.526 110.909 440.614 109.313C439.74 107.717 438.581 106.501 437.137 105.665C435.693 104.829 434.135 104.411 432.463 104.411C430.791 104.411 429.233 104.829 427.789 105.665C426.345 106.463 425.167 107.66 424.255 109.256C423.381 110.814 422.944 112.676 422.944 114.842C422.944 117.008 423.381 118.908 424.255 120.542C425.167 122.176 426.345 123.43 427.789 124.304C429.271 125.14 430.829 125.558 432.463 125.558C434.135 125.558 435.693 125.14 437.137 124.304C438.581 123.468 439.74 122.252 440.614 120.656C441.526 119.022 441.982 117.122 441.982 114.956Z" fill="black"/>
<path d="M469.712 114.842C469.712 111.688 470.358 108.895 471.65 106.463C472.98 104.031 474.766 102.15 477.008 100.82C479.288 99.452 481.815 98.768 484.589 98.768C486.641 98.768 488.655 99.224 490.631 100.136C492.645 101.01 494.241 102.188 495.419 103.67V88.508H501.974V130.688H495.419V125.957C494.355 127.477 492.873 128.731 490.973 129.719C489.111 130.707 486.964 131.201 484.532 131.201C481.796 131.201 479.288 130.517 477.008 129.149C474.766 127.743 472.98 125.805 471.65 123.335C470.358 120.827 469.712 117.996 469.712 114.842ZM495.419 114.956C495.419 112.79 494.963 110.909 494.051 109.313C493.177 107.717 492.018 106.501 490.574 105.665C489.13 104.829 487.572 104.411 485.9 104.411C484.228 104.411 482.67 104.829 481.226 105.665C479.782 106.463 478.604 107.66 477.692 109.256C476.818 110.814 476.381 112.676 476.381 114.842C476.381 117.008 476.818 118.908 477.692 120.542C478.604 122.176 479.782 123.43 481.226 124.304C482.708 125.14 484.266 125.558 485.9 125.558C487.572 125.558 489.13 125.14 490.574 124.304C492.018 123.468 493.177 122.252 494.051 120.656C494.963 119.022 495.419 117.122 495.419 114.956Z" fill="black"/>
<path d="M539.294 114.215C539.294 115.393 539.218 116.457 539.066 117.407H515.069C515.259 119.915 516.19 121.929 517.862 123.449C519.534 124.969 521.586 125.729 524.018 125.729C527.514 125.729 529.984 124.266 531.428 121.34H538.439C537.489 124.228 535.76 126.603 533.252 128.465C530.782 130.289 527.704 131.201 524.018 131.201C521.016 131.201 518.318 130.536 515.924 129.206C513.568 127.838 511.706 125.938 510.338 123.506C509.008 121.036 508.343 118.186 508.343 114.956C508.343 111.726 508.989 108.895 510.281 106.463C511.611 103.993 513.454 102.093 515.81 100.763C518.204 99.433 520.94 98.768 524.018 98.768C526.982 98.768 529.623 99.414 531.941 100.706C534.259 101.998 536.064 103.822 537.356 106.178C538.648 108.496 539.294 111.175 539.294 114.215ZM532.511 112.163C532.473 109.769 531.618 107.85 529.946 106.406C528.274 104.962 526.203 104.24 523.733 104.24C521.491 104.24 519.572 104.962 517.976 106.406C516.38 107.812 515.43 109.731 515.126 112.163H532.511Z" fill="black"/>
<path d="M557.089 131.201C554.619 131.201 552.396 130.764 550.42 129.89C548.482 128.978 546.943 127.762 545.803 126.242C544.663 124.684 544.055 122.955 543.979 121.055H550.705C550.819 122.385 551.446 123.506 552.586 124.418C553.764 125.292 555.227 125.729 556.975 125.729C558.799 125.729 560.205 125.387 561.193 124.703C562.219 123.981 562.732 123.069 562.732 121.967C562.732 120.789 562.162 119.915 561.022 119.345C559.92 118.775 558.153 118.148 555.721 117.464C553.365 116.818 551.446 116.191 549.964 115.583C548.482 114.975 547.19 114.044 546.088 112.79C545.024 111.536 544.492 109.883 544.492 107.831C544.492 106.159 544.986 104.639 545.974 103.271C546.962 101.865 548.368 100.763 550.192 99.965C552.054 99.167 554.182 98.768 556.576 98.768C560.148 98.768 563.017 99.68 565.183 101.504C567.387 103.29 568.565 105.741 568.717 108.857H562.219C562.105 107.451 561.535 106.33 560.509 105.494C559.483 104.658 558.096 104.24 556.348 104.24C554.638 104.24 553.327 104.563 552.415 105.209C551.503 105.855 551.047 106.71 551.047 107.774C551.047 108.61 551.351 109.313 551.959 109.883C552.567 110.453 553.308 110.909 554.182 111.251C555.056 111.555 556.348 111.954 558.058 112.448C560.338 113.056 562.2 113.683 563.644 114.329C565.126 114.937 566.399 115.849 567.463 117.065C568.527 118.281 569.078 119.896 569.116 121.91C569.116 123.696 568.622 125.292 567.634 126.698C566.646 128.104 565.24 129.206 563.416 130.004C561.63 130.802 559.521 131.201 557.089 131.201Z" fill="black"/>
<path d="M579.443 95.12C578.265 95.12 577.277 94.721 576.479 93.923C575.681 93.125 575.282 92.137 575.282 90.959C575.282 89.781 575.681 88.793 576.479 87.995C577.277 87.197 578.265 86.798 579.443 86.798C580.583 86.798 581.552 87.197 582.35 87.995C583.148 88.793 583.547 89.781 583.547 90.959C583.547 92.137 583.148 93.125 582.35 93.923C581.552 94.721 580.583 95.12 579.443 95.12ZM582.635 99.281V130.688H576.137V99.281H582.635Z" fill="black"/>
<path d="M603.82 98.768C606.252 98.768 608.399 99.262 610.261 100.25C612.161 101.2 613.643 102.397 614.707 103.841V99.281H621.262V131.201C621.262 134.089 620.654 136.654 619.438 138.896C618.222 141.176 616.455 142.962 614.137 144.254C611.857 145.546 609.121 146.192 605.929 146.192C601.673 146.192 598.139 145.185 595.327 143.171C592.515 141.195 590.919 138.497 590.539 135.077H596.98C597.474 136.711 598.519 138.022 600.115 139.01C601.749 140.036 603.687 140.549 605.929 140.549C608.551 140.549 610.66 139.751 612.256 138.155C613.89 136.559 614.707 134.241 614.707 131.201V125.957C613.605 127.439 612.104 128.693 610.204 129.719C608.342 130.707 606.214 131.201 603.82 131.201C601.084 131.201 598.576 130.517 596.296 129.149C594.054 127.743 592.268 125.805 590.938 123.335C589.646 120.827 589 117.996 589 114.842C589 111.688 589.646 108.895 590.938 106.463C592.268 104.031 594.054 102.15 596.296 100.82C598.576 99.452 601.084 98.768 603.82 98.768ZM614.707 114.956C614.707 112.79 614.251 110.909 613.339 109.313C612.465 107.717 611.306 106.501 609.862 105.665C608.418 104.829 606.86 104.411 605.188 104.411C603.516 104.411 601.958 104.829 600.514 105.665C599.07 106.463 597.892 107.66 596.98 109.256C596.106 110.814 595.669 112.676 595.669 114.842C595.669 117.008 596.106 118.908 596.98 120.542C597.892 122.176 599.07 123.43 600.514 124.304C601.996 125.14 603.554 125.558 605.188 125.558C606.86 125.558 608.418 125.14 609.862 124.304C611.306 123.468 612.465 122.252 613.339 120.656C614.251 119.022 614.707 117.122 614.707 114.956Z" fill="black"/>
<path d="M645.643 98.768C648.113 98.768 650.317 99.281 652.255 100.307C654.231 101.333 655.77 102.853 656.872 104.867C657.974 106.881 658.525 109.313 658.525 112.163V130.688H652.084V113.132C652.084 110.32 651.381 108.173 649.975 106.691C648.569 105.171 646.65 104.411 644.218 104.411C641.786 104.411 639.848 105.171 638.404 106.691C636.998 108.173 636.295 110.32 636.295 113.132V130.688H629.797V99.281H636.295V102.872C637.359 101.58 638.708 100.573 640.342 99.851C642.014 99.129 643.781 98.768 645.643 98.768Z" fill="black"/>
<path d="M688.118 103.898C689.22 102.454 690.721 101.238 692.621 100.25C694.521 99.262 696.668 98.768 699.062 98.768C701.798 98.768 704.287 99.452 706.529 100.82C708.809 102.15 710.595 104.031 711.887 106.463C713.179 108.895 713.825 111.688 713.825 114.842C713.825 117.996 713.179 120.827 711.887 123.335C710.595 125.805 708.809 127.743 706.529 129.149C704.287 130.517 701.798 131.201 699.062 131.201C696.668 131.201 694.54 130.726 692.678 129.776C690.816 128.788 689.296 127.572 688.118 126.128V145.622H681.62V99.281H688.118V103.898ZM707.213 114.842C707.213 112.676 706.757 110.814 705.845 109.256C704.971 107.66 703.793 106.463 702.311 105.665C700.867 104.829 699.309 104.411 697.637 104.411C696.003 104.411 694.445 104.829 692.963 105.665C691.519 106.501 690.341 107.717 689.429 109.313C688.555 110.909 688.118 112.79 688.118 114.956C688.118 117.122 688.555 119.022 689.429 120.656C690.341 122.252 691.519 123.468 692.963 124.304C694.445 125.14 696.003 125.558 697.637 125.558C699.309 125.558 700.867 125.14 702.311 124.304C703.793 123.43 704.971 122.176 705.845 120.542C706.757 118.908 707.213 117.008 707.213 114.842Z" fill="black"/>
<path d="M726.749 103.841C727.699 102.245 728.953 101.01 730.511 100.136C732.107 99.224 733.988 98.768 736.154 98.768V105.494H734.501C731.955 105.494 730.017 106.14 728.687 107.432C727.395 108.724 726.749 110.966 726.749 114.158V130.688H720.251V99.281H726.749V103.841Z" fill="black"/>
<path d="M755.75 131.201C752.786 131.201 750.107 130.536 747.713 129.206C745.319 127.838 743.438 125.938 742.07 123.506C740.702 121.036 740.018 118.186 740.018 114.956C740.018 111.764 740.721 108.933 742.127 106.463C743.533 103.993 745.452 102.093 747.884 100.763C750.316 99.433 753.033 98.768 756.035 98.768C759.037 98.768 761.754 99.433 764.186 100.763C766.618 102.093 768.537 103.993 769.943 106.463C771.349 108.933 772.052 111.764 772.052 114.956C772.052 118.148 771.33 120.979 769.886 123.449C768.442 125.919 766.466 127.838 763.958 129.206C761.488 130.536 758.752 131.201 755.75 131.201ZM755.75 125.558C757.422 125.558 758.98 125.159 760.424 124.361C761.906 123.563 763.103 122.366 764.015 120.77C764.927 119.174 765.383 117.236 765.383 114.956C765.383 112.676 764.946 110.757 764.072 109.199C763.198 107.603 762.039 106.406 760.595 105.608C759.151 104.81 757.593 104.411 755.921 104.411C754.249 104.411 752.691 104.81 751.247 105.608C749.841 106.406 748.72 107.603 747.884 109.199C747.048 110.757 746.63 112.676 746.63 114.956C746.63 118.338 747.485 120.96 749.195 122.822C750.943 124.646 753.128 125.558 755.75 125.558Z" fill="black"/>
<path d="M776.31 114.956C776.31 111.726 776.956 108.895 778.248 106.463C779.578 103.993 781.402 102.093 783.72 100.763C786.038 99.433 788.698 98.768 791.7 98.768C795.5 98.768 798.635 99.68 801.105 101.504C803.613 103.29 805.304 105.855 806.178 109.199H799.167C798.597 107.641 797.685 106.425 796.431 105.551C795.177 104.677 793.6 104.24 791.7 104.24C789.04 104.24 786.912 105.19 785.316 107.09C783.758 108.952 782.979 111.574 782.979 114.956C782.979 118.338 783.758 120.979 785.316 122.879C786.912 124.779 789.04 125.729 791.7 125.729C795.462 125.729 797.951 124.076 799.167 120.77H806.178C805.266 123.962 803.556 126.508 801.048 128.408C798.54 130.27 795.424 131.201 791.7 131.201C788.698 131.201 786.038 130.536 783.72 129.206C781.402 127.838 779.578 125.938 778.248 123.506C776.956 121.036 776.31 118.186 776.31 114.956Z" fill="black"/>
<path d="M841.438 114.215C841.438 115.393 841.362 116.457 841.21 117.407H817.213C817.403 119.915 818.334 121.929 820.006 123.449C821.678 124.969 823.73 125.729 826.162 125.729C829.658 125.729 832.128 124.266 833.572 121.34H840.583C839.633 124.228 837.904 126.603 835.396 128.465C832.926 130.289 829.848 131.201 826.162 131.201C823.16 131.201 820.462 130.536 818.068 129.206C815.712 127.838 813.85 125.938 812.482 123.506C811.152 121.036 810.487 118.186 810.487 114.956C810.487 111.726 811.133 108.895 812.425 106.463C813.755 103.993 815.598 102.093 817.954 100.763C820.348 99.433 823.084 98.768 826.162 98.768C829.126 98.768 831.767 99.414 834.085 100.706C836.403 101.998 838.208 103.822 839.5 106.178C840.792 108.496 841.438 111.175 841.438 114.215ZM834.655 112.163C834.617 109.769 833.762 107.85 832.09 106.406C830.418 104.962 828.347 104.24 825.877 104.24C823.635 104.24 821.716 104.962 820.12 106.406C818.524 107.812 817.574 109.731 817.27 112.163H834.655Z" fill="black"/>
<path d="M859.233 131.201C856.763 131.201 854.54 130.764 852.564 129.89C850.626 128.978 849.087 127.762 847.947 126.242C846.807 124.684 846.199 122.955 846.123 121.055H852.849C852.963 122.385 853.59 123.506 854.73 124.418C855.908 125.292 857.371 125.729 859.119 125.729C860.943 125.729 862.349 125.387 863.337 124.703C864.363 123.981 864.876 123.069 864.876 121.967C864.876 120.789 864.306 119.915 863.166 119.345C862.064 118.775 860.297 118.148 857.865 117.464C855.509 116.818 853.59 116.191 852.108 115.583C850.626 114.975 849.334 114.044 848.232 112.79C847.168 111.536 846.636 109.883 846.636 107.831C846.636 106.159 847.13 104.639 848.118 103.271C849.106 101.865 850.512 100.763 852.336 99.965C854.198 99.167 856.326 98.768 858.72 98.768C862.292 98.768 865.161 99.68 867.327 101.504C869.531 103.29 870.709 105.741 870.861 108.857H864.363C864.249 107.451 863.679 106.33 862.653 105.494C861.627 104.658 860.24 104.24 858.492 104.24C856.782 104.24 855.471 104.563 854.559 105.209C853.647 105.855 853.191 106.71 853.191 107.774C853.191 108.61 853.495 109.313 854.103 109.883C854.711 110.453 855.452 110.909 856.326 111.251C857.2 111.555 858.492 111.954 860.202 112.448C862.482 113.056 864.344 113.683 865.788 114.329C867.27 114.937 868.543 115.849 869.607 117.065C870.671 118.281 871.222 119.896 871.26 121.91C871.26 123.696 870.766 125.292 869.778 126.698C868.79 128.104 867.384 129.206 865.56 130.004C863.774 130.802 861.665 131.201 859.233 131.201Z" fill="black"/>
<path d="M889.681 131.201C887.211 131.201 884.988 130.764 883.012 129.89C881.074 128.978 879.535 127.762 878.395 126.242C877.255 124.684 876.647 122.955 876.571 121.055H883.297C883.411 122.385 884.038 123.506 885.178 124.418C886.356 125.292 887.819 125.729 889.567 125.729C891.391 125.729 892.797 125.387 893.785 124.703C894.811 123.981 895.324 123.069 895.324 121.967C895.324 120.789 894.754 119.915 893.614 119.345C892.512 118.775 890.745 118.148 888.313 117.464C885.957 116.818 884.038 116.191 882.556 115.583C881.074 114.975 879.782 114.044 878.68 112.79C877.616 111.536 877.084 109.883 877.084 107.831C877.084 106.159 877.578 104.639 878.566 103.271C879.554 101.865 880.96 100.763 882.784 99.965C884.646 99.167 886.774 98.768 889.168 98.768C892.74 98.768 895.609 99.68 897.775 101.504C899.979 103.29 901.157 105.741 901.309 108.857H894.811C894.697 107.451 894.127 106.33 893.101 105.494C892.075 104.658 890.688 104.24 888.94 104.24C887.23 104.24 885.919 104.563 885.007 105.209C884.095 105.855 883.639 106.71 883.639 107.774C883.639 108.61 883.943 109.313 884.551 109.883C885.159 110.453 885.9 110.909 886.774 111.251C887.648 111.555 888.94 111.954 890.65 112.448C892.93 113.056 894.792 113.683 896.236 114.329C897.718 114.937 898.991 115.849 900.055 117.065C901.119 118.281 901.67 119.896 901.708 121.91C901.708 123.696 901.214 125.292 900.226 126.698C899.238 128.104 897.832 129.206 896.008 130.004C894.222 130.802 892.113 131.201 889.681 131.201Z" fill="black"/>
<path d="M921.199 114.842C921.769 111.688 922.909 108.895 924.619 106.463C926.367 104.031 928.495 102.15 931.003 100.82C933.511 99.452 936.133 98.768 938.869 98.768C941.339 98.768 943.41 99.262 945.082 100.25C946.754 101.2 948.008 102.397 948.844 103.841L949.642 99.281H956.197L950.668 130.688H944.113L944.968 126.014C943.6 127.496 941.871 128.731 939.781 129.719C937.729 130.707 935.487 131.201 933.055 131.201C930.699 131.201 928.59 130.669 926.728 129.605C924.904 128.541 923.46 127.04 922.396 125.102C921.37 123.126 920.857 120.865 920.857 118.319C920.857 117.179 920.971 116.02 921.199 114.842ZM946.906 114.956C947.058 114.234 947.134 113.455 947.134 112.619C947.134 110.073 946.374 108.078 944.854 106.634C943.372 105.152 941.51 104.411 939.268 104.411C937.596 104.411 935.962 104.829 934.366 105.665C932.77 106.463 931.383 107.66 930.205 109.256C929.027 110.814 928.248 112.676 927.868 114.842C927.716 115.564 927.64 116.343 927.64 117.179C927.64 119.763 928.381 121.815 929.863 123.335C931.383 124.817 933.264 125.558 935.506 125.558C937.178 125.558 938.812 125.14 940.408 124.304C942.004 123.468 943.391 122.252 944.569 120.656C945.747 119.022 946.526 117.122 946.906 114.956Z" fill="#909090"/>
<path d="M980.692 98.768C983.998 98.768 986.62 99.661 988.558 101.447C990.534 103.195 991.522 105.722 991.522 109.028C991.522 109.864 991.427 110.909 991.237 112.163L987.931 130.688H981.49L984.625 113.132C984.777 112.068 984.853 111.308 984.853 110.852C984.853 108.762 984.264 107.166 983.086 106.064C981.946 104.962 980.35 104.411 978.298 104.411C975.828 104.411 973.738 105.171 972.028 106.691C970.356 108.173 969.292 110.32 968.836 113.132V112.961L965.701 130.688H959.203L964.732 99.281H971.23L970.603 102.929C971.895 101.637 973.415 100.63 975.163 99.908C976.949 99.148 978.792 98.768 980.692 98.768Z" fill="#909090"/>
<path d="M996.847 114.842C997.417 111.688 998.557 108.895 1000.27 106.463C1002.01 104.031 1004.14 102.15 1006.65 100.82C1009.16 99.452 1011.8 98.768 1014.57 98.768C1016.63 98.768 1018.56 99.224 1020.39 100.136C1022.21 101.01 1023.6 102.188 1024.55 103.67L1027.23 88.508H1033.78L1026.32 130.688H1019.76L1020.62 125.957C1019.25 127.515 1017.54 128.788 1015.49 129.776C1013.47 130.726 1011.25 131.201 1008.82 131.201C1006.42 131.201 1004.29 130.669 1002.43 129.605C1000.57 128.541 999.108 127.04 998.044 125.102C997.018 123.126 996.505 120.865 996.505 118.319C996.505 117.179 996.619 116.02 996.847 114.842ZM1022.55 114.956C1022.71 114.234 1022.78 113.455 1022.78 112.619C1022.78 110.073 1022.02 108.078 1020.5 106.634C1019.02 105.152 1017.16 104.411 1014.92 104.411C1013.24 104.411 1011.61 104.829 1010.01 105.665C1008.42 106.463 1007.03 107.66 1005.85 109.256C1004.67 110.814 1003.9 112.676 1003.52 114.842C1003.36 115.564 1003.29 116.343 1003.29 117.179C1003.29 119.763 1004.03 121.815 1005.51 123.335C1007.03 124.817 1008.91 125.558 1011.15 125.558C1012.83 125.558 1014.46 125.14 1016.06 124.304C1017.65 123.468 1019.04 122.252 1020.22 120.656C1021.39 119.022 1022.17 117.122 1022.55 114.956Z" fill="#909090"/>
<path d="M9.576 181.12C8.55 181.12 7.714 180.797 7.068 180.151C6.422 179.505 6.099 178.688 6.099 177.7C6.099 176.37 6.593 175.23 7.581 174.28C8.607 173.292 9.766 172.798 11.058 172.798C12.084 172.798 12.901 173.121 13.509 173.767C14.155 174.413 14.478 175.23 14.478 176.218C14.478 177.548 13.984 178.707 12.996 179.695C12.008 180.645 10.868 181.12 9.576 181.12ZM12.027 185.281L6.498 216.688H0L5.529 185.281H12.027Z" fill="#909090"/>
<path d="M36.5183 184.768C39.8243 184.768 42.4463 185.661 44.3843 187.447C46.3603 189.195 47.3483 191.722 47.3483 195.028C47.3483 195.864 47.2533 196.909 47.0633 198.163L43.7573 216.688H37.3163L40.4513 199.132C40.6033 198.068 40.6793 197.308 40.6793 196.852C40.6793 194.762 40.0903 193.166 38.9123 192.064C37.7723 190.962 36.1763 190.411 34.1243 190.411C31.6543 190.411 29.5643 191.171 27.8543 192.691C26.1823 194.173 25.1183 196.32 24.6623 199.132V198.961L21.5273 216.688H15.0293L20.5583 185.281H27.0563L26.4293 188.929C27.7213 187.637 29.2413 186.63 30.9893 185.908C32.7753 185.148 34.6183 184.768 36.5183 184.768Z" fill="#909090"/>
<path d="M61.1659 207.967C61.0899 208.499 61.0519 208.841 61.0519 208.993C61.0519 209.791 61.2989 210.38 61.7929 210.76C62.2869 211.102 63.1039 211.273 64.2439 211.273H68.2339L67.2649 216.688H62.1349C59.6269 216.688 57.7079 216.194 56.3779 215.206C55.0479 214.18 54.3829 212.565 54.3829 210.361C54.3829 209.525 54.4589 208.727 54.6109 207.967L57.6889 190.582H53.9839L54.8959 185.281H58.6579L60.0259 177.472H66.5809L65.2129 185.281H72.7939L71.8819 190.582H64.2439L61.1659 207.967Z" fill="#909090"/>
<path d="M92.4059 184.768C96.3199 184.768 99.4359 185.87 101.754 188.074C104.11 190.278 105.288 193.242 105.288 196.966C105.288 197.84 105.193 198.885 105.003 200.101C104.851 200.937 104.585 201.963 104.205 203.179H80.2079C80.1699 203.445 80.1509 203.844 80.1509 204.376C80.1509 206.618 80.8349 208.404 82.2029 209.734C83.6089 211.064 85.4329 211.729 87.6749 211.729C91.2089 211.729 93.9259 210.266 95.8259 207.34H102.837C101.393 210.228 99.2649 212.603 96.4529 214.465C93.6409 216.289 90.3919 217.201 86.7059 217.201C84.0839 217.201 81.7849 216.688 79.8089 215.662C77.8329 214.636 76.2939 213.173 75.1919 211.273C74.0899 209.335 73.5389 207.074 73.5389 204.49C73.5389 203.388 73.6529 202.21 73.8809 200.956C74.4509 197.726 75.6099 194.895 77.3579 192.463C79.1059 189.993 81.2719 188.093 83.8559 186.763C86.4779 185.433 89.3279 184.768 92.4059 184.768ZM98.5049 198.505C98.5809 197.821 98.6189 197.327 98.6189 197.023C98.6189 194.933 97.9159 193.28 96.5099 192.064C95.1419 190.848 93.3559 190.24 91.1519 190.24C88.8339 190.24 86.7439 190.981 84.8819 192.463C83.0199 193.945 81.7469 195.959 81.0629 198.505H98.5049Z" fill="#909090"/>
<path d="M119.492 190.81C120.784 188.91 122.304 187.428 124.052 186.364C125.838 185.3 127.814 184.768 129.98 184.768L128.783 191.494H127.13C124.622 191.494 122.608 192.121 121.088 193.375C119.568 194.629 118.504 196.795 117.896 199.873L114.932 216.688H108.434L113.963 185.281H120.461L119.492 190.81Z" fill="#909090"/>
<path d="M149.462 184.768C153.376 184.768 156.492 185.87 158.81 188.074C161.166 190.278 162.344 193.242 162.344 196.966C162.344 197.84 162.249 198.885 162.059 200.101C161.907 200.937 161.641 201.963 161.261 203.179H137.264C137.226 203.445 137.207 203.844 137.207 204.376C137.207 206.618 137.891 208.404 139.259 209.734C140.665 211.064 142.489 211.729 144.731 211.729C148.265 211.729 150.982 210.266 152.882 207.34H159.893C158.449 210.228 156.321 212.603 153.509 214.465C150.697 216.289 147.448 217.201 143.762 217.201C141.14 217.201 138.841 216.688 136.865 215.662C134.889 214.636 133.35 213.173 132.248 211.273C131.146 209.335 130.595 207.074 130.595 204.49C130.595 203.388 130.709 202.21 130.937 200.956C131.507 197.726 132.666 194.895 134.414 192.463C136.162 189.993 138.328 188.093 140.912 186.763C143.534 185.433 146.384 184.768 149.462 184.768ZM155.561 198.505C155.637 197.821 155.675 197.327 155.675 197.023C155.675 194.933 154.972 193.28 153.566 192.064C152.198 190.848 150.412 190.24 148.208 190.24C145.89 190.24 143.8 190.981 141.938 192.463C140.076 193.945 138.803 195.959 138.119 198.505H155.561Z" fill="#909090"/>
<path d="M177.06 217.201C174.894 217.201 172.918 216.84 171.132 216.118C169.346 215.358 167.94 214.313 166.914 212.983C165.888 211.615 165.375 210.057 165.375 208.309C165.375 208.005 165.413 207.587 165.489 207.055H171.816C171.664 208.499 172.101 209.696 173.127 210.646C174.153 211.596 175.597 212.071 177.459 212.071C179.283 212.071 180.784 211.748 181.962 211.102C183.14 210.456 183.729 209.506 183.729 208.252C183.729 207.188 183.235 206.333 182.247 205.687C181.297 205.041 179.758 204.319 177.63 203.521C175.616 202.723 173.982 201.982 172.728 201.298C171.474 200.614 170.391 199.683 169.479 198.505C168.567 197.289 168.111 195.788 168.111 194.002C168.111 192.178 168.624 190.582 169.65 189.214C170.714 187.808 172.177 186.725 174.039 185.965C175.939 185.167 178.105 184.768 180.537 184.768C182.741 184.768 184.698 185.148 186.408 185.908C188.156 186.63 189.505 187.675 190.455 189.043C191.443 190.373 191.937 191.912 191.937 193.66C191.937 194.192 191.918 194.591 191.88 194.857H185.724C185.876 193.375 185.439 192.178 184.413 191.266C183.425 190.354 182 189.898 180.138 189.898C178.504 189.898 177.174 190.24 176.148 190.924C175.16 191.608 174.666 192.539 174.666 193.717C174.666 194.895 175.179 195.845 176.205 196.567C177.231 197.251 178.808 198.011 180.936 198.847C182.874 199.607 184.451 200.329 185.667 201.013C186.883 201.697 187.928 202.609 188.802 203.749C189.676 204.889 190.113 206.314 190.113 208.024C190.113 209.886 189.543 211.52 188.403 212.926C187.301 214.294 185.762 215.358 183.786 216.118C181.81 216.84 179.568 217.201 177.06 217.201Z" fill="#909090"/>
<path d="M205.057 207.967C204.981 208.499 204.943 208.841 204.943 208.993C204.943 209.791 205.19 210.38 205.684 210.76C206.178 211.102 206.995 211.273 208.135 211.273H212.126L211.156 216.688H206.027C203.519 216.688 201.6 216.194 200.27 215.206C198.94 214.18 198.275 212.565 198.275 210.361C198.275 209.525 198.351 208.727 198.503 207.967L201.581 190.582H197.876L198.788 185.281H202.549L203.917 177.472H210.473L209.105 185.281H216.686L215.773 190.582H208.135L205.057 207.967Z" fill="#909090"/>
<path d="M236.298 184.768C240.212 184.768 243.328 185.87 245.646 188.074C248.002 190.278 249.18 193.242 249.18 196.966C249.18 197.84 249.085 198.885 248.895 200.101C248.743 200.937 248.477 201.963 248.097 203.179H224.1C224.062 203.445 224.043 203.844 224.043 204.376C224.043 206.618 224.727 208.404 226.095 209.734C227.501 211.064 229.325 211.729 231.567 211.729C235.101 211.729 237.818 210.266 239.718 207.34H246.729C245.285 210.228 243.157 212.603 240.345 214.465C237.533 216.289 234.284 217.201 230.598 217.201C227.976 217.201 225.677 216.688 223.701 215.662C221.725 214.636 220.186 213.173 219.084 211.273C217.982 209.335 217.431 207.074 217.431 204.49C217.431 203.388 217.545 202.21 217.773 200.956C218.343 197.726 219.502 194.895 221.25 192.463C222.998 189.993 225.164 188.093 227.748 186.763C230.37 185.433 233.22 184.768 236.298 184.768ZM242.397 198.505C242.473 197.821 242.511 197.327 242.511 197.023C242.511 194.933 241.808 193.28 240.402 192.064C239.034 190.848 237.248 190.24 235.044 190.24C232.726 190.24 230.636 190.981 228.774 192.463C226.912 193.945 225.639 195.959 224.955 198.505H242.397Z" fill="#909090"/>
<path d="M252.952 200.842C253.522 197.688 254.662 194.895 256.372 192.463C258.12 190.031 260.248 188.15 262.756 186.82C265.264 185.452 267.905 184.768 270.679 184.768C272.731 184.768 274.669 185.224 276.493 186.136C278.317 187.01 279.704 188.188 280.654 189.67L283.333 174.508H289.888L282.421 216.688H275.866L276.721 211.957C275.353 213.515 273.643 214.788 271.591 215.776C269.577 216.726 267.354 217.201 264.922 217.201C262.528 217.201 260.4 216.669 258.538 215.605C256.676 214.541 255.213 213.04 254.149 211.102C253.123 209.126 252.61 206.865 252.61 204.319C252.61 203.179 252.724 202.02 252.952 200.842ZM278.659 200.956C278.811 200.234 278.887 199.455 278.887 198.619C278.887 196.073 278.127 194.078 276.607 192.634C275.125 191.152 273.263 190.411 271.021 190.411C269.349 190.411 267.715 190.829 266.119 191.665C264.523 192.463 263.136 193.66 261.958 195.256C260.78 196.814 260.001 198.676 259.621 200.842C259.469 201.564 259.393 202.343 259.393 203.179C259.393 205.763 260.134 207.815 261.616 209.335C263.136 210.817 265.017 211.558 267.259 211.558C268.931 211.558 270.565 211.14 272.161 210.304C273.757 209.468 275.144 208.252 276.322 206.656C277.5 205.022 278.279 203.122 278.659 200.956Z" fill="#909090"/>
<path d="M317.621 181.12C316.595 181.12 315.759 180.797 315.113 180.151C314.467 179.505 314.144 178.688 314.144 177.7C314.144 176.37 314.638 175.23 315.626 174.28C316.652 173.292 317.811 172.798 319.103 172.798C320.129 172.798 320.946 173.121 321.554 173.767C322.2 174.413 322.523 175.23 322.523 176.218C322.523 177.548 322.029 178.707 321.041 179.695C320.053 180.645 318.913 181.12 317.621 181.12ZM320.072 185.281L314.543 216.688H308.045L313.574 185.281H320.072Z" fill="#909090"/>
<path d="M344.563 184.768C347.869 184.768 350.491 185.661 352.429 187.447C354.405 189.195 355.393 191.722 355.393 195.028C355.393 195.864 355.298 196.909 355.108 198.163L351.802 216.688H345.361L348.496 199.132C348.648 198.068 348.724 197.308 348.724 196.852C348.724 194.762 348.135 193.166 346.957 192.064C345.817 190.962 344.221 190.411 342.169 190.411C339.699 190.411 337.609 191.171 335.899 192.691C334.227 194.173 333.163 196.32 332.707 199.132V198.961L329.572 216.688H323.074L328.603 185.281H335.101L334.474 188.929C335.766 187.637 337.286 186.63 339.034 185.908C340.82 185.148 342.663 184.768 344.563 184.768Z" fill="#909090"/>
<path d="M375.695 200.956C375.695 197.726 376.341 194.895 377.633 192.463C378.963 189.993 380.787 188.093 383.105 186.763C385.423 185.433 388.083 184.768 391.085 184.768C394.885 184.768 398.02 185.68 400.49 187.504C402.998 189.29 404.689 191.855 405.563 195.199H398.552C397.982 193.641 397.07 192.425 395.816 191.551C394.562 190.677 392.985 190.24 391.085 190.24C388.425 190.24 386.297 191.19 384.701 193.09C383.143 194.952 382.364 197.574 382.364 200.956C382.364 204.338 383.143 206.979 384.701 208.879C386.297 210.779 388.425 211.729 391.085 211.729C394.847 211.729 397.336 210.076 398.552 206.77H405.563C404.651 209.962 402.941 212.508 400.433 214.408C397.925 216.27 394.809 217.201 391.085 217.201C388.083 217.201 385.423 216.536 383.105 215.206C380.787 213.838 378.963 211.938 377.633 209.506C376.341 207.036 375.695 204.186 375.695 200.956Z" fill="black"/>
<path d="M418.537 189.841C419.487 188.245 420.741 187.01 422.299 186.136C423.895 185.224 425.776 184.768 427.942 184.768V191.494H426.289C423.743 191.494 421.805 192.14 420.475 193.432C419.183 194.724 418.537 196.966 418.537 200.158V216.688H412.039V185.281H418.537V189.841Z" fill="black"/>
<path d="M462.7 200.215C462.7 201.393 462.624 202.457 462.472 203.407H438.475C438.665 205.915 439.596 207.929 441.268 209.449C442.94 210.969 444.992 211.729 447.424 211.729C450.92 211.729 453.39 210.266 454.834 207.34H461.845C460.895 210.228 459.166 212.603 456.658 214.465C454.188 216.289 451.11 217.201 447.424 217.201C444.422 217.201 441.724 216.536 439.33 215.206C436.974 213.838 435.112 211.938 433.744 209.506C432.414 207.036 431.749 204.186 431.749 200.956C431.749 197.726 432.395 194.895 433.687 192.463C435.017 189.993 436.86 188.093 439.216 186.763C441.61 185.433 444.346 184.768 447.424 184.768C450.388 184.768 453.029 185.414 455.347 186.706C457.665 187.998 459.47 189.822 460.762 192.178C462.054 194.496 462.7 197.175 462.7 200.215ZM455.917 198.163C455.879 195.769 455.024 193.85 453.352 192.406C451.68 190.962 449.609 190.24 447.139 190.24C444.897 190.24 442.978 190.962 441.382 192.406C439.786 193.812 438.836 195.731 438.532 198.163H455.917Z" fill="black"/>
<path d="M466.929 200.842C466.929 197.688 467.575 194.895 468.867 192.463C470.197 190.031 471.983 188.15 474.225 186.82C476.505 185.452 479.013 184.768 481.749 184.768C484.219 184.768 486.366 185.262 488.19 186.25C490.052 187.2 491.534 188.397 492.636 189.841V185.281H499.191V216.688H492.636V212.014C491.534 213.496 490.033 214.731 488.133 215.719C486.233 216.707 484.067 217.201 481.635 217.201C478.937 217.201 476.467 216.517 474.225 215.149C471.983 213.743 470.197 211.805 468.867 209.335C467.575 206.827 466.929 203.996 466.929 200.842ZM492.636 200.956C492.636 198.79 492.18 196.909 491.268 195.313C490.394 193.717 489.235 192.501 487.791 191.665C486.347 190.829 484.789 190.411 483.117 190.411C481.445 190.411 479.887 190.829 478.443 191.665C476.999 192.463 475.821 193.66 474.909 195.256C474.035 196.814 473.598 198.676 473.598 200.842C473.598 203.008 474.035 204.908 474.909 206.542C475.821 208.176 476.999 209.43 478.443 210.304C479.925 211.14 481.483 211.558 483.117 211.558C484.789 211.558 486.347 211.14 487.791 210.304C489.235 209.468 490.394 208.252 491.268 206.656C492.18 205.022 492.636 203.122 492.636 200.956Z" fill="black"/>
<path d="M515.307 190.582V207.967C515.307 209.145 515.573 210 516.105 210.532C516.675 211.026 517.625 211.273 518.955 211.273H522.945V216.688H517.815C514.889 216.688 512.647 216.004 511.089 214.636C509.531 213.268 508.752 211.045 508.752 207.967V190.582H505.047V185.281H508.752V177.472H515.307V185.281H522.945V190.582H515.307Z" fill="black"/>
<path d="M532.24 181.12C531.062 181.12 530.074 180.721 529.276 179.923C528.478 179.125 528.079 178.137 528.079 176.959C528.079 175.781 528.478 174.793 529.276 173.995C530.074 173.197 531.062 172.798 532.24 172.798C533.38 172.798 534.349 173.197 535.147 173.995C535.945 174.793 536.344 175.781 536.344 176.959C536.344 178.137 535.945 179.125 535.147 179.923C534.349 180.721 533.38 181.12 532.24 181.12ZM535.432 185.281V216.688H528.934V185.281H535.432Z" fill="black"/>
<path d="M559.809 184.768C562.279 184.768 564.483 185.281 566.421 186.307C568.397 187.333 569.936 188.853 571.038 190.867C572.14 192.881 572.691 195.313 572.691 198.163V216.688H566.25V199.132C566.25 196.32 565.547 194.173 564.141 192.691C562.735 191.171 560.816 190.411 558.384 190.411C555.952 190.411 554.014 191.171 552.57 192.691C551.164 194.173 550.461 196.32 550.461 199.132V216.688H543.963V185.281H550.461V188.872C551.525 187.58 552.874 186.573 554.508 185.851C556.18 185.129 557.947 184.768 559.809 184.768Z" fill="black"/>
<path d="M593.634 184.768C596.066 184.768 598.213 185.262 600.075 186.25C601.975 187.2 603.457 188.397 604.521 189.841V185.281H611.076V217.201C611.076 220.089 610.468 222.654 609.252 224.896C608.036 227.176 606.269 228.962 603.951 230.254C601.671 231.546 598.935 232.192 595.743 232.192C591.487 232.192 587.953 231.185 585.141 229.171C582.329 227.195 580.733 224.497 580.353 221.077H586.794C587.288 222.711 588.333 224.022 589.929 225.01C591.563 226.036 593.501 226.549 595.743 226.549C598.365 226.549 600.474 225.751 602.07 224.155C603.704 222.559 604.521 220.241 604.521 217.201V211.957C603.419 213.439 601.918 214.693 600.018 215.719C598.156 216.707 596.028 217.201 593.634 217.201C590.898 217.201 588.39 216.517 586.11 215.149C583.868 213.743 582.082 211.805 580.752 209.335C579.46 206.827 578.814 203.996 578.814 200.842C578.814 197.688 579.46 194.895 580.752 192.463C582.082 190.031 583.868 188.15 586.11 186.82C588.39 185.452 590.898 184.768 593.634 184.768ZM604.521 200.956C604.521 198.79 604.065 196.909 603.153 195.313C602.279 193.717 601.12 192.501 599.676 191.665C598.232 190.829 596.674 190.411 595.002 190.411C593.33 190.411 591.772 190.829 590.328 191.665C588.884 192.463 587.706 193.66 586.794 195.256C585.92 196.814 585.483 198.676 585.483 200.842C585.483 203.008 585.92 204.908 586.794 206.542C587.706 208.176 588.884 209.43 590.328 210.304C591.81 211.14 593.368 211.558 595.002 211.558C596.674 211.558 598.232 211.14 599.676 210.304C601.12 209.468 602.279 208.252 603.153 206.656C604.065 205.022 604.521 203.122 604.521 200.956Z" fill="black"/>
<path d="M632.251 200.842C632.251 197.688 632.897 194.895 634.189 192.463C635.519 190.031 637.305 188.15 639.547 186.82C641.827 185.452 644.354 184.768 647.128 184.768C649.18 184.768 651.194 185.224 653.17 186.136C655.184 187.01 656.78 188.188 657.958 189.67V174.508H664.513V216.688H657.958V211.957C656.894 213.477 655.412 214.731 653.512 215.719C651.65 216.707 649.503 217.201 647.071 217.201C644.335 217.201 641.827 216.517 639.547 215.149C637.305 213.743 635.519 211.805 634.189 209.335C632.897 206.827 632.251 203.996 632.251 200.842ZM657.958 200.956C657.958 198.79 657.502 196.909 656.59 195.313C655.716 193.717 654.557 192.501 653.113 191.665C651.669 190.829 650.111 190.411 648.439 190.411C646.767 190.411 645.209 190.829 643.765 191.665C642.321 192.463 641.143 193.66 640.231 195.256C639.357 196.814 638.92 198.676 638.92 200.842C638.92 203.008 639.357 204.908 640.231 206.542C641.143 208.176 642.321 209.43 643.765 210.304C645.247 211.14 646.805 211.558 648.439 211.558C650.111 211.558 651.669 211.14 653.113 210.304C654.557 209.468 655.716 208.252 656.59 206.656C657.502 205.022 657.958 203.122 657.958 200.956Z" fill="black"/>
<path d="M701.833 200.215C701.833 201.393 701.757 202.457 701.605 203.407H677.608C677.798 205.915 678.729 207.929 680.401 209.449C682.073 210.969 684.125 211.729 686.557 211.729C690.053 211.729 692.523 210.266 693.967 207.34H700.978C700.028 210.228 698.299 212.603 695.791 214.465C693.321 216.289 690.243 217.201 686.557 217.201C683.555 217.201 680.857 216.536 678.463 215.206C676.107 213.838 674.245 211.938 672.877 209.506C671.547 207.036 670.882 204.186 670.882 200.956C670.882 197.726 671.528 194.895 672.82 192.463C674.15 189.993 675.993 188.093 678.349 186.763C680.743 185.433 683.479 184.768 686.557 184.768C689.521 184.768 692.162 185.414 694.48 186.706C696.798 187.998 698.603 189.822 699.895 192.178C701.187 194.496 701.833 197.175 701.833 200.215ZM695.05 198.163C695.012 195.769 694.157 193.85 692.485 192.406C690.813 190.962 688.742 190.24 686.272 190.24C684.03 190.24 682.111 190.962 680.515 192.406C678.919 193.812 677.969 195.731 677.665 198.163H695.05Z" fill="black"/>
<path d="M719.628 217.201C717.158 217.201 714.935 216.764 712.959 215.89C711.021 214.978 709.482 213.762 708.342 212.242C707.202 210.684 706.594 208.955 706.518 207.055H713.244C713.358 208.385 713.985 209.506 715.125 210.418C716.303 211.292 717.766 211.729 719.514 211.729C721.338 211.729 722.744 211.387 723.732 210.703C724.758 209.981 725.271 209.069 725.271 207.967C725.271 206.789 724.701 205.915 723.561 205.345C722.459 204.775 720.692 204.148 718.26 203.464C715.904 202.818 713.985 202.191 712.503 201.583C711.021 200.975 709.729 200.044 708.627 198.79C707.563 197.536 707.031 195.883 707.031 193.831C707.031 192.159 707.525 190.639 708.513 189.271C709.501 187.865 710.907 186.763 712.731 185.965C714.593 185.167 716.721 184.768 719.115 184.768C722.687 184.768 725.556 185.68 727.722 187.504C729.926 189.29 731.104 191.741 731.256 194.857H724.758C724.644 193.451 724.074 192.33 723.048 191.494C722.022 190.658 720.635 190.24 718.887 190.24C717.177 190.24 715.866 190.563 714.954 191.209C714.042 191.855 713.586 192.71 713.586 193.774C713.586 194.61 713.89 195.313 714.498 195.883C715.106 196.453 715.847 196.909 716.721 197.251C717.595 197.555 718.887 197.954 720.597 198.448C722.877 199.056 724.739 199.683 726.183 200.329C727.665 200.937 728.938 201.849 730.002 203.065C731.066 204.281 731.617 205.896 731.655 207.91C731.655 209.696 731.161 211.292 730.173 212.698C729.185 214.104 727.779 215.206 725.955 216.004C724.169 216.802 722.06 217.201 719.628 217.201Z" fill="black"/>
<path d="M741.982 181.12C740.804 181.12 739.816 180.721 739.018 179.923C738.22 179.125 737.821 178.137 737.821 176.959C737.821 175.781 738.22 174.793 739.018 173.995C739.816 173.197 740.804 172.798 741.982 172.798C743.122 172.798 744.091 173.197 744.889 173.995C745.687 174.793 746.086 175.781 746.086 176.959C746.086 178.137 745.687 179.125 744.889 179.923C744.091 180.721 743.122 181.12 741.982 181.12ZM745.174 185.281V216.688H738.676V185.281H745.174Z" fill="black"/>
<path d="M766.359 184.768C768.791 184.768 770.938 185.262 772.8 186.25C774.7 187.2 776.182 188.397 777.246 189.841V185.281H783.801V217.201C783.801 220.089 783.193 222.654 781.977 224.896C780.761 227.176 778.994 228.962 776.676 230.254C774.396 231.546 771.66 232.192 768.468 232.192C764.212 232.192 760.678 231.185 757.866 229.171C755.054 227.195 753.458 224.497 753.078 221.077H759.519C760.013 222.711 761.058 224.022 762.654 225.01C764.288 226.036 766.226 226.549 768.468 226.549C771.09 226.549 773.199 225.751 774.795 224.155C776.429 222.559 777.246 220.241 777.246 217.201V211.957C776.144 213.439 774.643 214.693 772.743 215.719C770.881 216.707 768.753 217.201 766.359 217.201C763.623 217.201 761.115 216.517 758.835 215.149C756.593 213.743 754.807 211.805 753.477 209.335C752.185 206.827 751.539 203.996 751.539 200.842C751.539 197.688 752.185 194.895 753.477 192.463C754.807 190.031 756.593 188.15 758.835 186.82C761.115 185.452 763.623 184.768 766.359 184.768ZM777.246 200.956C777.246 198.79 776.79 196.909 775.878 195.313C775.004 193.717 773.845 192.501 772.401 191.665C770.957 190.829 769.399 190.411 767.727 190.411C766.055 190.411 764.497 190.829 763.053 191.665C761.609 192.463 760.431 193.66 759.519 195.256C758.645 196.814 758.208 198.676 758.208 200.842C758.208 203.008 758.645 204.908 759.519 206.542C760.431 208.176 761.609 209.43 763.053 210.304C764.535 211.14 766.093 211.558 767.727 211.558C769.399 211.558 770.957 211.14 772.401 210.304C773.845 209.468 775.004 208.252 775.878 206.656C776.79 205.022 777.246 203.122 777.246 200.956Z" fill="black"/>
<path d="M808.182 184.768C810.652 184.768 812.856 185.281 814.794 186.307C816.77 187.333 818.309 188.853 819.411 190.867C820.513 192.881 821.064 195.313 821.064 198.163V216.688H814.623V199.132C814.623 196.32 813.92 194.173 812.514 192.691C811.108 191.171 809.189 190.411 806.757 190.411C804.325 190.411 802.387 191.171 800.943 192.691C799.537 194.173 798.834 196.32 798.834 199.132V216.688H792.336V185.281H798.834V188.872C799.898 187.58 801.247 186.573 802.881 185.851C804.553 185.129 806.32 184.768 808.182 184.768Z" fill="black"/>
<path d="M855.559 217.201C853.089 217.201 850.866 216.764 848.89 215.89C846.952 214.978 845.413 213.762 844.273 212.242C843.133 210.684 842.525 208.955 842.449 207.055H849.175C849.289 208.385 849.916 209.506 851.056 210.418C852.234 211.292 853.697 211.729 855.445 211.729C857.269 211.729 858.675 211.387 859.663 210.703C860.689 209.981 861.202 209.069 861.202 207.967C861.202 206.789 860.632 205.915 859.492 205.345C858.39 204.775 856.623 204.148 854.191 203.464C851.835 202.818 849.916 202.191 848.434 201.583C846.952 200.975 845.66 200.044 844.558 198.79C843.494 197.536 842.962 195.883 842.962 193.831C842.962 192.159 843.456 190.639 844.444 189.271C845.432 187.865 846.838 186.763 848.662 185.965C850.524 185.167 852.652 184.768 855.046 184.768C858.618 184.768 861.487 185.68 863.653 187.504C865.857 189.29 867.035 191.741 867.187 194.857H860.689C860.575 193.451 860.005 192.33 858.979 191.494C857.953 190.658 856.566 190.24 854.818 190.24C853.108 190.24 851.797 190.563 850.885 191.209C849.973 191.855 849.517 192.71 849.517 193.774C849.517 194.61 849.821 195.313 850.429 195.883C851.037 196.453 851.778 196.909 852.652 197.251C853.526 197.555 854.818 197.954 856.528 198.448C858.808 199.056 860.67 199.683 862.114 200.329C863.596 200.937 864.869 201.849 865.933 203.065C866.997 204.281 867.548 205.896 867.586 207.91C867.586 209.696 867.092 211.292 866.104 212.698C865.116 214.104 863.71 215.206 861.886 216.004C860.1 216.802 857.991 217.201 855.559 217.201Z" fill="black"/>
<path d="M902.88 185.281L883.614 231.451H876.888L883.272 216.175L870.903 185.281H878.142L886.977 209.221L896.154 185.281H902.88Z" fill="black"/>
<path d="M919.183 217.201C916.713 217.201 914.49 216.764 912.514 215.89C910.576 214.978 909.037 213.762 907.897 212.242C906.757 210.684 906.149 208.955 906.073 207.055H912.799C912.913 208.385 913.54 209.506 914.68 210.418C915.858 211.292 917.321 211.729 919.069 211.729C920.893 211.729 922.299 211.387 923.287 210.703C924.313 209.981 924.826 209.069 924.826 207.967C924.826 206.789 924.256 205.915 923.116 205.345C922.014 204.775 920.247 204.148 917.815 203.464C915.459 202.818 913.54 202.191 912.058 201.583C910.576 200.975 909.284 200.044 908.182 198.79C907.118 197.536 906.586 195.883 906.586 193.831C906.586 192.159 907.08 190.639 908.068 189.271C909.056 187.865 910.462 186.763 912.286 185.965C914.148 185.167 916.276 184.768 918.67 184.768C922.242 184.768 925.111 185.68 927.277 187.504C929.481 189.29 930.659 191.741 930.811 194.857H924.313C924.199 193.451 923.629 192.33 922.603 191.494C921.577 190.658 920.19 190.24 918.442 190.24C916.732 190.24 915.421 190.563 914.509 191.209C913.597 191.855 913.141 192.71 913.141 193.774C913.141 194.61 913.445 195.313 914.053 195.883C914.661 196.453 915.402 196.909 916.276 197.251C917.15 197.555 918.442 197.954 920.152 198.448C922.432 199.056 924.294 199.683 925.738 200.329C927.22 200.937 928.493 201.849 929.557 203.065C930.621 204.281 931.172 205.896 931.21 207.91C931.21 209.696 930.716 211.292 929.728 212.698C928.74 214.104 927.334 215.206 925.51 216.004C923.724 216.802 921.615 217.201 919.183 217.201Z" fill="black"/>
<path d="M945.813 190.582V207.967C945.813 209.145 946.079 210 946.611 210.532C947.181 211.026 948.131 211.273 949.461 211.273H953.451V216.688H948.321C945.395 216.688 943.153 216.004 941.595 214.636C940.037 213.268 939.258 211.045 939.258 207.967V190.582H935.553V185.281H939.258V177.472H945.813V185.281H953.451V190.582H945.813Z" fill="black"/>
<path d="M988.225 200.215C988.225 201.393 988.149 202.457 987.997 203.407H964C964.19 205.915 965.121 207.929 966.793 209.449C968.465 210.969 970.517 211.729 972.949 211.729C976.445 211.729 978.915 210.266 980.359 207.34H987.37C986.42 210.228 984.691 212.603 982.183 214.465C979.713 216.289 976.635 217.201 972.949 217.201C969.947 217.201 967.249 216.536 964.855 215.206C962.499 213.838 960.637 211.938 959.269 209.506C957.939 207.036 957.274 204.186 957.274 200.956C957.274 197.726 957.92 194.895 959.212 192.463C960.542 189.993 962.385 188.093 964.741 186.763C967.135 185.433 969.871 184.768 972.949 184.768C975.913 184.768 978.554 185.414 980.872 186.706C983.19 187.998 984.995 189.822 986.287 192.178C987.579 194.496 988.225 197.175 988.225 200.215ZM981.442 198.163C981.404 195.769 980.549 193.85 978.877 192.406C977.205 190.962 975.134 190.24 972.664 190.24C970.422 190.24 968.503 190.962 966.907 192.406C965.311 193.812 964.361 195.731 964.057 198.163H981.442Z" fill="black"/>
<path d="M1032.64 184.768C1035.11 184.768 1037.31 185.281 1039.25 186.307C1041.23 187.333 1042.77 188.853 1043.87 190.867C1045.01 192.881 1045.58 195.313 1045.58 198.163V216.688H1039.14V199.132C1039.14 196.32 1038.43 194.173 1037.03 192.691C1035.62 191.171 1033.7 190.411 1031.27 190.411C1028.84 190.411 1026.9 191.171 1025.46 192.691C1024.05 194.173 1023.35 196.32 1023.35 199.132V216.688H1016.91V199.132C1016.91 196.32 1016.2 194.173 1014.8 192.691C1013.39 191.171 1011.47 190.411 1009.04 190.411C1006.61 190.411 1004.67 191.171 1003.23 192.691C1001.82 194.173 1001.12 196.32 1001.12 199.132V216.688H994.619V185.281H1001.12V188.872C1002.18 187.58 1003.53 186.573 1005.16 185.851C1006.8 185.129 1008.55 184.768 1010.41 184.768C1012.92 184.768 1015.16 185.3 1017.13 186.364C1019.11 187.428 1020.63 188.967 1021.69 190.981C1022.64 189.081 1024.13 187.58 1026.14 186.478C1028.15 185.338 1030.32 184.768 1032.64 184.768Z" fill="black"/>
<path d="M19.551 264.099C17.575 264.099 16.112 264.479 15.162 265.239C14.212 265.999 13.585 267.272 13.281 269.058L12.882 271.281H18.696L17.784 276.582H11.97L7.353 302.688H0.798L5.415 276.582H1.71L2.622 271.281H6.327L6.726 269.058C7.372 265.448 8.797 262.826 11.001 261.192C13.205 259.52 16.359 258.684 20.463 258.684L19.551 264.099Z" fill="#909090"/>
<path d="M32.6628 303.201C30.0028 303.201 27.6658 302.65 25.6518 301.548C23.6378 300.446 22.0608 298.888 20.9208 296.874C19.8188 294.86 19.2678 292.561 19.2678 289.977C19.2678 286.443 20.0848 283.213 21.7188 280.287C23.3908 277.361 25.6708 275.043 28.5588 273.333C31.4848 271.623 34.7338 270.768 38.3058 270.768C40.9658 270.768 43.3218 271.338 45.3738 272.478C47.4258 273.58 49.0218 275.138 50.1618 277.152C51.3398 279.128 51.9288 281.427 51.9288 284.049C51.9288 287.583 51.0738 290.813 49.3638 293.739C47.6538 296.665 45.3358 298.983 42.4098 300.693C39.4838 302.365 36.2348 303.201 32.6628 303.201ZM33.4608 297.729C35.6268 297.729 37.6028 297.121 39.3888 295.905C41.2128 294.651 42.6378 293.017 43.6638 291.003C44.6898 288.951 45.2028 286.766 45.2028 284.448C45.2028 281.826 44.4618 279.812 42.9798 278.406C41.4978 276.962 39.6358 276.24 37.3938 276.24C35.1898 276.24 33.2138 276.867 31.4658 278.121C29.7558 279.337 28.4068 280.99 27.4188 283.08C26.4688 285.132 25.9938 287.336 25.9938 289.692C25.9938 292.238 26.6778 294.214 28.0458 295.62C29.4518 297.026 31.2568 297.729 33.4608 297.729Z" fill="#909090"/>
<path d="M66.3324 276.81C67.6244 274.91 69.1444 273.428 70.8924 272.364C72.6784 271.3 74.6544 270.768 76.8204 270.768L75.6234 277.494H73.9704C71.4624 277.494 69.4484 278.121 67.9284 279.375C66.4084 280.629 65.3444 282.795 64.7364 285.873L61.7724 302.688H55.2744L60.8034 271.281H67.3014L66.3324 276.81Z" fill="#909090"/>
<path d="M98.227 267.12C97.049 267.12 96.061 266.721 95.263 265.923C94.465 265.125 94.066 264.137 94.066 262.959C94.066 261.781 94.465 260.793 95.263 259.995C96.061 259.197 97.049 258.798 98.227 258.798C99.367 258.798 100.336 259.197 101.134 259.995C101.932 260.793 102.331 261.781 102.331 262.959C102.331 264.137 101.932 265.125 101.134 265.923C100.336 266.721 99.367 267.12 98.227 267.12ZM101.419 271.281V302.688H94.921V271.281H101.419Z" fill="black"/>
<path d="M147.969 270.768C150.439 270.768 152.643 271.281 154.581 272.307C156.557 273.333 158.096 274.853 159.198 276.867C160.338 278.881 160.908 281.313 160.908 284.163V302.688H154.467V285.132C154.467 282.32 153.764 280.173 152.358 278.691C150.952 277.171 149.033 276.411 146.601 276.411C144.169 276.411 142.231 277.171 140.787 278.691C139.381 280.173 138.678 282.32 138.678 285.132V302.688H132.237V285.132C132.237 282.32 131.534 280.173 130.128 278.691C128.722 277.171 126.803 276.411 124.371 276.411C121.939 276.411 120.001 277.171 118.557 278.691C117.151 280.173 116.448 282.32 116.448 285.132V302.688H109.95V271.281H116.448V274.872C117.512 273.58 118.861 272.573 120.495 271.851C122.129 271.129 123.877 270.768 125.739 270.768C128.247 270.768 130.489 271.3 132.465 272.364C134.441 273.428 135.961 274.967 137.025 276.981C137.975 275.081 139.457 273.58 141.471 272.478C143.485 271.338 145.651 270.768 147.969 270.768Z" fill="black"/>
<path d="M175.675 275.898C176.777 274.454 178.278 273.238 180.178 272.25C182.078 271.262 184.225 270.768 186.619 270.768C189.355 270.768 191.844 271.452 194.086 272.82C196.366 274.15 198.152 276.031 199.444 278.463C200.736 280.895 201.382 283.688 201.382 286.842C201.382 289.996 200.736 292.827 199.444 295.335C198.152 297.805 196.366 299.743 194.086 301.149C191.844 302.517 189.355 303.201 186.619 303.201C184.225 303.201 182.097 302.726 180.235 301.776C178.373 300.788 176.853 299.572 175.675 298.128V317.622H169.177V271.281H175.675V275.898ZM194.77 286.842C194.77 284.676 194.314 282.814 193.402 281.256C192.528 279.66 191.35 278.463 189.868 277.665C188.424 276.829 186.866 276.411 185.194 276.411C183.56 276.411 182.002 276.829 180.52 277.665C179.076 278.501 177.898 279.717 176.986 281.313C176.112 282.909 175.675 284.79 175.675 286.956C175.675 289.122 176.112 291.022 176.986 292.656C177.898 294.252 179.076 295.468 180.52 296.304C182.002 297.14 183.56 297.558 185.194 297.558C186.866 297.558 188.424 297.14 189.868 296.304C191.35 295.43 192.528 294.176 193.402 292.542C194.314 290.908 194.77 289.008 194.77 286.842Z" fill="black"/>
<path d="M214.306 275.841C215.256 274.245 216.51 273.01 218.068 272.136C219.664 271.224 221.545 270.768 223.711 270.768V277.494H222.058C219.512 277.494 217.574 278.14 216.244 279.432C214.952 280.724 214.306 282.966 214.306 286.158V302.688H207.808V271.281H214.306V275.841Z" fill="black"/>
<path d="M243.307 303.201C240.343 303.201 237.664 302.536 235.27 301.206C232.876 299.838 230.995 297.938 229.627 295.506C228.259 293.036 227.575 290.186 227.575 286.956C227.575 283.764 228.278 280.933 229.684 278.463C231.09 275.993 233.009 274.093 235.441 272.763C237.873 271.433 240.59 270.768 243.592 270.768C246.594 270.768 249.311 271.433 251.743 272.763C254.175 274.093 256.094 275.993 257.5 278.463C258.906 280.933 259.609 283.764 259.609 286.956C259.609 290.148 258.887 292.979 257.443 295.449C255.999 297.919 254.023 299.838 251.515 301.206C249.045 302.536 246.309 303.201 243.307 303.201ZM243.307 297.558C244.979 297.558 246.537 297.159 247.981 296.361C249.463 295.563 250.66 294.366 251.572 292.77C252.484 291.174 252.94 289.236 252.94 286.956C252.94 284.676 252.503 282.757 251.629 281.199C250.755 279.603 249.596 278.406 248.152 277.608C246.708 276.81 245.15 276.411 243.478 276.411C241.806 276.411 240.248 276.81 238.804 277.608C237.398 278.406 236.277 279.603 235.441 281.199C234.605 282.757 234.187 284.676 234.187 286.956C234.187 290.338 235.042 292.96 236.752 294.822C238.5 296.646 240.685 297.558 243.307 297.558Z" fill="black"/>
<path d="M278.173 296.874L287.065 271.281H293.962L281.992 302.688H274.24L262.327 271.281H269.281L278.173 296.874Z" fill="black"/>
<path d="M302.18 267.12C301.002 267.12 300.014 266.721 299.216 265.923C298.418 265.125 298.019 264.137 298.019 262.959C298.019 261.781 298.418 260.793 299.216 259.995C300.014 259.197 301.002 258.798 302.18 258.798C303.32 258.798 304.289 259.197 305.087 259.995C305.885 260.793 306.284 261.781 306.284 262.959C306.284 264.137 305.885 265.125 305.087 265.923C304.289 266.721 303.32 267.12 302.18 267.12ZM305.372 271.281V302.688H298.874V271.281H305.372Z" fill="black"/>
<path d="M329.749 270.768C332.219 270.768 334.423 271.281 336.361 272.307C338.337 273.333 339.876 274.853 340.978 276.867C342.08 278.881 342.631 281.313 342.631 284.163V302.688H336.19V285.132C336.19 282.32 335.487 280.173 334.081 278.691C332.675 277.171 330.756 276.411 328.324 276.411C325.892 276.411 323.954 277.171 322.51 278.691C321.104 280.173 320.401 282.32 320.401 285.132V302.688H313.903V271.281H320.401V274.872C321.465 273.58 322.814 272.573 324.448 271.851C326.12 271.129 327.887 270.768 329.749 270.768Z" fill="black"/>
<path d="M363.574 270.768C366.006 270.768 368.153 271.262 370.015 272.25C371.915 273.2 373.397 274.397 374.461 275.841V271.281H381.016V303.201C381.016 306.089 380.408 308.654 379.192 310.896C377.976 313.176 376.209 314.962 373.891 316.254C371.611 317.546 368.875 318.192 365.683 318.192C361.427 318.192 357.893 317.185 355.081 315.171C352.269 313.195 350.673 310.497 350.293 307.077H356.734C357.228 308.711 358.273 310.022 359.869 311.01C361.503 312.036 363.441 312.549 365.683 312.549C368.305 312.549 370.414 311.751 372.01 310.155C373.644 308.559 374.461 306.241 374.461 303.201V297.957C373.359 299.439 371.858 300.693 369.958 301.719C368.096 302.707 365.968 303.201 363.574 303.201C360.838 303.201 358.33 302.517 356.05 301.149C353.808 299.743 352.022 297.805 350.692 295.335C349.4 292.827 348.754 289.996 348.754 286.842C348.754 283.688 349.4 280.895 350.692 278.463C352.022 276.031 353.808 274.15 356.05 272.82C358.33 271.452 360.838 270.768 363.574 270.768ZM374.461 286.956C374.461 284.79 374.005 282.909 373.093 281.313C372.219 279.717 371.06 278.501 369.616 277.665C368.172 276.829 366.614 276.411 364.942 276.411C363.27 276.411 361.712 276.829 360.268 277.665C358.824 278.463 357.646 279.66 356.734 281.256C355.86 282.814 355.423 284.676 355.423 286.842C355.423 289.008 355.86 290.908 356.734 292.542C357.646 294.176 358.824 295.43 360.268 296.304C361.75 297.14 363.308 297.558 364.942 297.558C366.614 297.558 368.172 297.14 369.616 296.304C371.06 295.468 372.219 294.252 373.093 292.656C374.005 291.022 374.461 289.122 374.461 286.956Z" fill="black"/>
<path d="M402.192 286.842C402.192 283.688 402.838 280.895 404.13 278.463C405.46 276.031 407.246 274.15 409.488 272.82C411.768 271.452 414.295 270.768 417.069 270.768C419.121 270.768 421.135 271.224 423.111 272.136C425.125 273.01 426.721 274.188 427.899 275.67V260.508H434.454V302.688H427.899V297.957C426.835 299.477 425.353 300.731 423.453 301.719C421.591 302.707 419.444 303.201 417.012 303.201C414.276 303.201 411.768 302.517 409.488 301.149C407.246 299.743 405.46 297.805 404.13 295.335C402.838 292.827 402.192 289.996 402.192 286.842ZM427.899 286.956C427.899 284.79 427.443 282.909 426.531 281.313C425.657 279.717 424.498 278.501 423.054 277.665C421.61 276.829 420.052 276.411 418.38 276.411C416.708 276.411 415.15 276.829 413.706 277.665C412.262 278.463 411.084 279.66 410.172 281.256C409.298 282.814 408.861 284.676 408.861 286.842C408.861 289.008 409.298 290.908 410.172 292.542C411.084 294.176 412.262 295.43 413.706 296.304C415.188 297.14 416.746 297.558 418.38 297.558C420.052 297.558 421.61 297.14 423.054 296.304C424.498 295.468 425.657 294.252 426.531 292.656C427.443 291.022 427.899 289.122 427.899 286.956Z" fill="black"/>
<path d="M446.294 267.12C445.116 267.12 444.128 266.721 443.33 265.923C442.532 265.125 442.133 264.137 442.133 262.959C442.133 261.781 442.532 260.793 443.33 259.995C444.128 259.197 445.116 258.798 446.294 258.798C447.434 258.798 448.403 259.197 449.201 259.995C449.999 260.793 450.398 261.781 450.398 262.959C450.398 264.137 449.999 265.125 449.201 265.923C448.403 266.721 447.434 267.12 446.294 267.12ZM449.486 271.281V302.688H442.988V271.281H449.486Z" fill="black"/>
<path d="M470.672 270.768C473.104 270.768 475.251 271.262 477.113 272.25C479.013 273.2 480.495 274.397 481.559 275.841V271.281H488.114V303.201C488.114 306.089 487.506 308.654 486.29 310.896C485.074 313.176 483.307 314.962 480.989 316.254C478.709 317.546 475.973 318.192 472.781 318.192C468.525 318.192 464.991 317.185 462.179 315.171C459.367 313.195 457.771 310.497 457.391 307.077H463.832C464.326 308.711 465.371 310.022 466.967 311.01C468.601 312.036 470.539 312.549 472.781 312.549C475.403 312.549 477.512 311.751 479.108 310.155C480.742 308.559 481.559 306.241 481.559 303.201V297.957C480.457 299.439 478.956 300.693 477.056 301.719C475.194 302.707 473.066 303.201 470.672 303.201C467.936 303.201 465.428 302.517 463.148 301.149C460.906 299.743 459.12 297.805 457.79 295.335C456.498 292.827 455.852 289.996 455.852 286.842C455.852 283.688 456.498 280.895 457.79 278.463C459.12 276.031 460.906 274.15 463.148 272.82C465.428 271.452 467.936 270.768 470.672 270.768ZM481.559 286.956C481.559 284.79 481.103 282.909 480.191 281.313C479.317 279.717 478.158 278.501 476.714 277.665C475.27 276.829 473.712 276.411 472.04 276.411C470.368 276.411 468.81 276.829 467.366 277.665C465.922 278.463 464.744 279.66 463.832 281.256C462.958 282.814 462.521 284.676 462.521 286.842C462.521 289.008 462.958 290.908 463.832 292.542C464.744 294.176 465.922 295.43 467.366 296.304C468.848 297.14 470.406 297.558 472.04 297.558C473.712 297.558 475.27 297.14 476.714 296.304C478.158 295.468 479.317 294.252 480.191 292.656C481.103 291.022 481.559 289.122 481.559 286.956Z" fill="black"/>
<path d="M499.955 267.12C498.777 267.12 497.789 266.721 496.991 265.923C496.193 265.125 495.794 264.137 495.794 262.959C495.794 261.781 496.193 260.793 496.991 259.995C497.789 259.197 498.777 258.798 499.955 258.798C501.095 258.798 502.064 259.197 502.862 259.995C503.66 260.793 504.059 261.781 504.059 262.959C504.059 264.137 503.66 265.125 502.862 265.923C502.064 266.721 501.095 267.12 499.955 267.12ZM503.147 271.281V302.688H496.649V271.281H503.147Z" fill="black"/>
<path d="M519.259 276.582V293.967C519.259 295.145 519.525 296 520.057 296.532C520.627 297.026 521.577 297.273 522.907 297.273H526.897V302.688H521.767C518.841 302.688 516.599 302.004 515.041 300.636C513.483 299.268 512.704 297.045 512.704 293.967V276.582H508.999V271.281H512.704V263.472H519.259V271.281H526.897V276.582H519.259Z" fill="black"/>
<path d="M530.72 286.842C530.72 283.688 531.366 280.895 532.658 278.463C533.988 276.031 535.774 274.15 538.016 272.82C540.296 271.452 542.804 270.768 545.54 270.768C548.01 270.768 550.157 271.262 551.981 272.25C553.843 273.2 555.325 274.397 556.427 275.841V271.281H562.982V302.688H556.427V298.014C555.325 299.496 553.824 300.731 551.924 301.719C550.024 302.707 547.858 303.201 545.426 303.201C542.728 303.201 540.258 302.517 538.016 301.149C535.774 299.743 533.988 297.805 532.658 295.335C531.366 292.827 530.72 289.996 530.72 286.842ZM556.427 286.956C556.427 284.79 555.971 282.909 555.059 281.313C554.185 279.717 553.026 278.501 551.582 277.665C550.138 276.829 548.58 276.411 546.908 276.411C545.236 276.411 543.678 276.829 542.234 277.665C540.79 278.463 539.612 279.66 538.7 281.256C537.826 282.814 537.389 284.676 537.389 286.842C537.389 289.008 537.826 290.908 538.7 292.542C539.612 294.176 540.79 295.43 542.234 296.304C543.716 297.14 545.274 297.558 546.908 297.558C548.58 297.558 550.138 297.14 551.582 296.304C553.026 295.468 554.185 294.252 555.059 292.656C555.971 291.022 556.427 289.122 556.427 286.956Z" fill="black"/>
<path d="M578.015 260.508V302.688H571.517V260.508H578.015Z" fill="black"/>
<path d="M630.138 286.215C630.138 287.393 630.062 288.457 629.91 289.407H605.913C606.103 291.915 607.034 293.929 608.706 295.449C610.378 296.969 612.43 297.729 614.862 297.729C618.358 297.729 620.828 296.266 622.272 293.34H629.283C628.333 296.228 626.604 298.603 624.096 300.465C621.626 302.289 618.548 303.201 614.862 303.201C611.86 303.201 609.162 302.536 606.768 301.206C604.412 299.838 602.55 297.938 601.182 295.506C599.852 293.036 599.187 290.186 599.187 286.956C599.187 283.726 599.833 280.895 601.125 278.463C602.455 275.993 604.298 274.093 606.654 272.763C609.048 271.433 611.784 270.768 614.862 270.768C617.826 270.768 620.467 271.414 622.785 272.706C625.103 273.998 626.908 275.822 628.2 278.178C629.492 280.496 630.138 283.175 630.138 286.215ZM623.355 284.163C623.317 281.769 622.462 279.85 620.79 278.406C619.118 276.962 617.047 276.24 614.577 276.24C612.335 276.24 610.416 276.962 608.82 278.406C607.224 279.812 606.274 281.731 605.97 284.163H623.355Z" fill="black"/>
<path d="M649.984 286.785L660.13 302.688H652.777L645.994 292.029L639.61 302.688H632.827L642.973 287.241L632.827 271.281H640.18L646.963 281.94L653.347 271.281H660.13L649.984 286.785Z" fill="black"/>
<path d="M671.475 275.898C672.577 274.454 674.078 273.238 675.978 272.25C677.878 271.262 680.025 270.768 682.419 270.768C685.155 270.768 687.644 271.452 689.886 272.82C692.166 274.15 693.952 276.031 695.244 278.463C696.536 280.895 697.182 283.688 697.182 286.842C697.182 289.996 696.536 292.827 695.244 295.335C693.952 297.805 692.166 299.743 689.886 301.149C687.644 302.517 685.155 303.201 682.419 303.201C680.025 303.201 677.897 302.726 676.035 301.776C674.173 300.788 672.653 299.572 671.475 298.128V317.622H664.977V271.281H671.475V275.898ZM690.57 286.842C690.57 284.676 690.114 282.814 689.202 281.256C688.328 279.66 687.15 278.463 685.668 277.665C684.224 276.829 682.666 276.411 680.994 276.411C679.36 276.411 677.802 276.829 676.32 277.665C674.876 278.501 673.698 279.717 672.786 281.313C671.912 282.909 671.475 284.79 671.475 286.956C671.475 289.122 671.912 291.022 672.786 292.656C673.698 294.252 674.876 295.468 676.32 296.304C677.802 297.14 679.36 297.558 680.994 297.558C682.666 297.558 684.224 297.14 685.668 296.304C687.15 295.43 688.328 294.176 689.202 292.542C690.114 290.908 690.57 289.008 690.57 286.842Z" fill="black"/>
<path d="M732.393 286.215C732.393 287.393 732.317 288.457 732.165 289.407H708.168C708.358 291.915 709.289 293.929 710.961 295.449C712.633 296.969 714.685 297.729 717.117 297.729C720.613 297.729 723.083 296.266 724.527 293.34H731.538C730.588 296.228 728.859 298.603 726.351 300.465C723.881 302.289 720.803 303.201 717.117 303.201C714.115 303.201 711.417 302.536 709.023 301.206C706.667 299.838 704.805 297.938 703.437 295.506C702.107 293.036 701.442 290.186 701.442 286.956C701.442 283.726 702.088 280.895 703.38 278.463C704.71 275.993 706.553 274.093 708.909 272.763C711.303 271.433 714.039 270.768 717.117 270.768C720.081 270.768 722.722 271.414 725.04 272.706C727.358 273.998 729.163 275.822 730.455 278.178C731.747 280.496 732.393 283.175 732.393 286.215ZM725.61 284.163C725.572 281.769 724.717 279.85 723.045 278.406C721.373 276.962 719.302 276.24 716.832 276.24C714.59 276.24 712.671 276.962 711.075 278.406C709.479 279.812 708.529 281.731 708.225 284.163H725.61Z" fill="black"/>
<path d="M745.285 275.841C746.235 274.245 747.489 273.01 749.047 272.136C750.643 271.224 752.524 270.768 754.69 270.768V277.494H753.037C750.491 277.494 748.553 278.14 747.223 279.432C745.931 280.724 745.285 282.966 745.285 286.158V302.688H738.787V271.281H745.285V275.841Z" fill="black"/>
<path d="M763.969 267.12C762.791 267.12 761.803 266.721 761.005 265.923C760.207 265.125 759.808 264.137 759.808 262.959C759.808 261.781 760.207 260.793 761.005 259.995C761.803 259.197 762.791 258.798 763.969 258.798C765.109 258.798 766.078 259.197 766.876 259.995C767.674 260.793 768.073 261.781 768.073 262.959C768.073 264.137 767.674 265.125 766.876 265.923C766.078 266.721 765.109 267.12 763.969 267.12ZM767.161 271.281V302.688H760.663V271.281H767.161Z" fill="black"/>
<path d="M804.478 286.215C804.478 287.393 804.402 288.457 804.25 289.407H780.253C780.443 291.915 781.374 293.929 783.046 295.449C784.718 296.969 786.77 297.729 789.202 297.729C792.698 297.729 795.168 296.266 796.612 293.34H803.622C802.672 296.228 800.944 298.603 798.436 300.465C795.966 302.289 792.888 303.201 789.202 303.201C786.2 303.201 783.502 302.536 781.108 301.206C778.752 299.838 776.89 297.938 775.522 295.506C774.192 293.036 773.526 290.186 773.526 286.956C773.526 283.726 774.173 280.895 775.465 278.463C776.795 275.993 778.638 274.093 780.994 272.763C783.388 271.433 786.124 270.768 789.202 270.768C792.166 270.768 794.807 271.414 797.125 272.706C799.443 273.998 801.247 275.822 802.539 278.178C803.831 280.496 804.478 283.175 804.478 286.215ZM797.695 284.163C797.657 281.769 796.802 279.85 795.13 278.406C793.458 276.962 791.387 276.24 788.917 276.24C786.675 276.24 784.756 276.962 783.16 278.406C781.564 279.812 780.614 281.731 780.31 284.163H797.695Z" fill="black"/>
<path d="M826.718 270.768C829.188 270.768 831.392 271.281 833.33 272.307C835.306 273.333 836.845 274.853 837.947 276.867C839.049 278.881 839.6 281.313 839.6 284.163V302.688H833.159V285.132C833.159 282.32 832.456 280.173 831.05 278.691C829.644 277.171 827.725 276.411 825.293 276.411C822.861 276.411 820.923 277.171 819.479 278.691C818.073 280.173 817.37 282.32 817.37 285.132V302.688H810.872V271.281H817.37V274.872C818.434 273.58 819.783 272.573 821.417 271.851C823.089 271.129 824.856 270.768 826.718 270.768Z" fill="black"/>
<path d="M845.723 286.956C845.723 283.726 846.369 280.895 847.661 278.463C848.991 275.993 850.815 274.093 853.133 272.763C855.451 271.433 858.111 270.768 861.113 270.768C864.913 270.768 868.048 271.68 870.518 273.504C873.026 275.29 874.717 277.855 875.591 281.199H868.58C868.01 279.641 867.098 278.425 865.844 277.551C864.59 276.677 863.013 276.24 861.113 276.24C858.453 276.24 856.325 277.19 854.729 279.09C853.171 280.952 852.392 283.574 852.392 286.956C852.392 290.338 853.171 292.979 854.729 294.879C856.325 296.779 858.453 297.729 861.113 297.729C864.875 297.729 867.364 296.076 868.58 292.77H875.591C874.679 295.962 872.969 298.508 870.461 300.408C867.953 302.27 864.837 303.201 861.113 303.201C858.111 303.201 855.451 302.536 853.133 301.206C850.815 299.838 848.991 297.938 847.661 295.506C846.369 293.036 845.723 290.186 845.723 286.956Z" fill="black"/>
<path d="M910.852 286.215C910.852 287.393 910.776 288.457 910.624 289.407H886.627C886.817 291.915 887.748 293.929 889.42 295.449C891.092 296.969 893.144 297.729 895.576 297.729C899.072 297.729 901.542 296.266 902.986 293.34H909.997C909.047 296.228 907.318 298.603 904.81 300.465C902.34 302.289 899.262 303.201 895.576 303.201C892.574 303.201 889.876 302.536 887.482 301.206C885.126 299.838 883.264 297.938 881.896 295.506C880.566 293.036 879.901 290.186 879.901 286.956C879.901 283.726 880.547 280.895 881.839 278.463C883.169 275.993 885.012 274.093 887.368 272.763C889.762 271.433 892.498 270.768 895.576 270.768C898.54 270.768 901.181 271.414 903.499 272.706C905.817 273.998 907.622 275.822 908.914 278.178C910.206 280.496 910.852 283.175 910.852 286.215ZM904.069 284.163C904.031 281.769 903.176 279.85 901.504 278.406C899.832 276.962 897.761 276.24 895.291 276.24C893.049 276.24 891.13 276.962 889.534 278.406C887.938 279.812 886.988 281.731 886.684 284.163H904.069Z" fill="black"/>
<path d="M928.646 303.201C926.176 303.201 923.953 302.764 921.977 301.89C920.039 300.978 918.5 299.762 917.36 298.242C916.22 296.684 915.612 294.955 915.536 293.055H922.262C922.376 294.385 923.003 295.506 924.143 296.418C925.321 297.292 926.784 297.729 928.532 297.729C930.356 297.729 931.762 297.387 932.75 296.703C933.776 295.981 934.289 295.069 934.289 293.967C934.289 292.789 933.719 291.915 932.579 291.345C931.477 290.775 929.71 290.148 927.278 289.464C924.922 288.818 923.003 288.191 921.521 287.583C920.039 286.975 918.747 286.044 917.645 284.79C916.581 283.536 916.049 281.883 916.049 279.831C916.049 278.159 916.543 276.639 917.531 275.271C918.519 273.865 919.925 272.763 921.749 271.965C923.611 271.167 925.739 270.768 928.133 270.768C931.705 270.768 934.574 271.68 936.74 273.504C938.944 275.29 940.122 277.741 940.274 280.857H933.776C933.662 279.451 933.092 278.33 932.066 277.494C931.04 276.658 929.653 276.24 927.905 276.24C926.195 276.24 924.884 276.563 923.972 277.209C923.06 277.855 922.604 278.71 922.604 279.774C922.604 280.61 922.908 281.313 923.516 281.883C924.124 282.453 924.865 282.909 925.739 283.251C926.613 283.555 927.905 283.954 929.615 284.448C931.895 285.056 933.757 285.683 935.201 286.329C936.683 286.937 937.956 287.849 939.02 289.065C940.084 290.281 940.635 291.896 940.673 293.91C940.673 295.696 940.179 297.292 939.191 298.698C938.203 300.104 936.797 301.206 934.973 302.004C933.187 302.802 931.078 303.201 928.646 303.201Z" fill="black"/>
<path d="M950.316 303.087C949.138 303.087 948.15 302.688 947.352 301.89C946.554 301.092 946.155 300.104 946.155 298.926C946.155 297.748 946.554 296.76 947.352 295.962C948.15 295.164 949.138 294.765 950.316 294.765C951.456 294.765 952.425 295.164 953.223 295.962C954.021 296.76 954.42 297.748 954.42 298.926C954.42 300.104 954.021 301.092 953.223 301.89C952.425 302.688 951.456 303.087 950.316 303.087Z" fill="black"/>
</svg>
