<svg xmlns="http://www.w3.org/2000/svg" xmlns:xlink="http://www.w3.org/1999/xlink" width="117.292" height="117.307" viewBox="0 0 117.292 117.307">
  <defs>
    <filter id="Path_2508" x="0" y="0" width="109.292" height="109.307" filterUnits="userSpaceOnUse">
      <feOffset dx="-4" dy="-4" input="SourceAlpha"/>
      <feGaussianBlur stdDeviation="4" result="blur"/>
      <feFlood flood-color="#fff"/>
      <feComposite operator="in" in2="blur"/>
      <feComposite in="SourceGraphic"/>
    </filter>
    <filter id="Path_2507" x="8" y="8" width="109.292" height="109.307" filterUnits="userSpaceOnUse">
      <feOffset dx="4" dy="4" input="SourceAlpha"/>
      <feGaussianBlur stdDeviation="4" result="blur-2"/>
      <feFlood flood-color="#aeaec0" flood-opacity="0.502"/>
      <feComposite operator="in" in2="blur-2"/>
      <feComposite in="SourceGraphic"/>
    </filter>
  </defs>
  <g id="logo" transform="translate(-129 -348)">
    <g transform="matrix(1, 0, 0, 1, 129, 348)" filter="url(#Path_2508)">
      <path id="Path_2508-2" data-name="Path 2508" d="M515.926,372.493V364.5h-3.01c-3,0-6,.01-9-.01-.65.01-1.31,0-1.97,0a3.79,3.79,0,0,1,.05-7.58h1.97c3.33-.01,6.67-.02,9.99-.01h1.97v-2.75a4.14,4.14,0,0,1,4.05-4.22h.2c2.1,0,4.2-.01,6.3,0a16.627,16.627,0,0,1,16.35,13.94,3.759,3.759,0,0,0,.1.48h10.41a34.136,34.136,0,1,0-4.51,21.55h9.54a42.639,42.639,0,1,1,3.51-21.55c.13,1.37.2,2.75.2,4.14s-.07,2.77-.2,4.1h-18.93c-.18.8-.32,1.56-.52,2.3a16.437,16.437,0,0,1-14.55,12.04c-2.69.2-5.4.13-8.1.07a4.044,4.044,0,0,1-3.84-4.11c-.01-.94-.01-1.87-.01-2.8h-.03v.01h-13.74a3.8,3.8,0,0,1-.02-7.6c.61,0,1.22-.01,1.83,0a.571.571,0,0,1,.13-.01c1.65,0,3.29-.01,4.93-.01s3.3.01,4.94.01Z" transform="translate(-460.78 -309.85)" fill="#f0f0f3"/>
    </g>
    <g transform="matrix(1, 0, 0, 1, 129, 348)" filter="url(#Path_2507)">
      <path id="Path_2507-2" data-name="Path 2507" d="M515.926,372.493V364.5h-3.01c-3,0-6,.01-9-.01-.65.01-1.31,0-1.97,0a3.79,3.79,0,0,1,.05-7.58h1.97c3.33-.01,6.67-.02,9.99-.01h1.97v-2.75a4.14,4.14,0,0,1,4.05-4.22h.2c2.1,0,4.2-.01,6.3,0a16.627,16.627,0,0,1,16.35,13.94,3.759,3.759,0,0,0,.1.48h10.41a34.136,34.136,0,1,0-4.51,21.55h9.54a42.639,42.639,0,1,1,3.51-21.55c.13,1.37.2,2.75.2,4.14s-.07,2.77-.2,4.1h-18.93c-.18.8-.32,1.56-.52,2.3a16.437,16.437,0,0,1-14.55,12.04c-2.69.2-5.4.13-8.1.07a4.044,4.044,0,0,1-3.84-4.11c-.01-.94-.01-1.87-.01-2.8h-.03v.01h-13.74a3.8,3.8,0,0,1-.02-7.6c.61,0,1.22-.01,1.83,0a.571.571,0,0,1,.13-.01c1.65,0,3.29-.01,4.93-.01s3.3.01,4.94.01Z" transform="translate(-460.78 -309.85)" fill="#f0f0f3"/>
    </g>
    <g id="Group_1305" data-name="Group 1305" transform="translate(-66.756 334.154)">
      <path id="Path_2501" data-name="Path 2501" d="M250.722,68.327h-3.006l-4.838,0c-1.391,0-2.779,0-4.167-.008a3.787,3.787,0,0,1-1.111-7.39,3.97,3.97,0,0,1,1.16-.192q2-.005,3.987-.006,3.008,0,6.014,0h1.963c0-.915,0-1.834,0-2.751a4.137,4.137,0,0,1,4.255-4.219c2.1,0,4.2-.008,6.3,0A16.62,16.62,0,0,1,277.621,67.7c.022.144.057.284.1.483h10.416a34.144,34.144,0,1,0-4.514,21.547h9.542a42.642,42.642,0,1,1,3.508-21.547q.2,2.046.2,4.139t-.2,4.1H277.747c-.181.8-.323,1.554-.522,2.3a16.444,16.444,0,0,1-14.552,12.033c-2.687.207-5.4.137-8.1.076a4.047,4.047,0,0,1-3.841-4.117q-.005-1.4-.006-2.8h-1.964q-4.922,0-9.839,0a3.8,3.8,0,1,1-.025-7.6q4.931-.007,9.863,0h1.964Z" transform="translate(0 0)" fill="#f99a10" stroke="#f99a10" stroke-miterlimit="10" stroke-width="2.861"/>
      <path id="Path_2502" data-name="Path 2502" d="M247.064,69.6c.172,0,.346.018.543.028v7.568h-1.94q-5.9,0-11.8,0a3.8,3.8,0,1,1-.023-7.6q5.913-.007,11.827,0Z" transform="translate(3.089 6.729)" fill="#f99a10" stroke="#f99a10" stroke-miterlimit="10" stroke-width="2.861"/>
      <path id="Path_2503" data-name="Path 2503" d="M247.611,56.294v7.554h-2.982c-3.658,0-7.314.011-10.971-.006a3.787,3.787,0,0,1-1.113-7.39,3.9,3.9,0,0,1,1.162-.192q5.983-.018,11.964-.008h1.5C247.319,56.254,247.469,56.28,247.611,56.294Z" transform="translate(3.088 4.478)" fill="#f99a10" stroke="#f99a10" stroke-miterlimit="10" stroke-width="2.861"/>
    </g>
  </g>
</svg>
