<?xml version="1.0" encoding="utf-8"?>
<!-- Generator: Adobe Illustrator 25.3.1, SVG Export Plug-In . SVG Version: 6.00 Build 0)  -->
<svg version="1.1" id="Layer_1" xmlns="http://www.w3.org/2000/svg" xmlns:xlink="http://www.w3.org/1999/xlink" x="0px" y="0px"
	 viewBox="0 0 960 285.7" style="enable-background:new 0 0 960 285.7;" xml:space="preserve">
<style type="text/css">
	.st0{clip-path:url(#SVGID_2_);}
	.st1{fill-rule:evenodd;clip-rule:evenodd;fill-opacity:0;}
	.st2{fill:#221E1F;}
	.st3{fill:none;stroke:#4285F4;stroke-width:2;stroke-linejoin:round;stroke-miterlimit:10;}
</style>
<g>
	<defs>
		<rect id="SVGID_1_" y="0" width="960" height="285.7"/>
	</defs>
	<clipPath id="SVGID_2_">
		<use xlink:href="#SVGID_1_"  style="overflow:visible;"/>
	</clipPath>
	<g class="st0">
		<path class="st1" d="M0,0h960v540H0V0z"/>
		<path class="st1" d="M121.7,188.8h406.1v96.9H121.7L121.7,188.8z"/>
		<path class="st2" d="M149.9,205.2c0.6,0,1.1,0.2,1.7,0.5c0.6,0.3,1,0.7,1.3,1.3c0.3,0.6,0.5,1.1,0.5,1.7c0,0.9-0.3,1.8-1,2.4
			c-0.7,0.7-1.5,1-2.4,1c-1,0-1.8-0.3-2.5-1c-0.7-0.7-1-1.5-1-2.4c0-0.6,0.2-1.2,0.5-1.7c0.3-0.6,0.7-1,1.3-1.3
			C148.7,205.3,149.3,205.2,149.9,205.2z"/>
		<path class="st2" d="M179.2,202.7v-1h2.7v11.5h-1.1v-10.5H179.2z M184.4,207.3c0-1.8,0.3-3.3,0.8-4.3s1.6-1.5,3-1.5
			c1.5,0,2.5,0.5,3,1.5s0.8,2.4,0.8,4.3c0,1.9-0.3,3.3-0.8,4.3c-0.6,1-1.6,1.5-3,1.5s-2.5-0.5-3-1.5
			C184.7,210.6,184.4,209.2,184.4,207.3z M191.1,207.3c0-1-0.1-1.8-0.2-2.5c-0.1-0.7-0.4-1.2-0.8-1.7s-1-0.6-1.8-0.6
			c-0.8,0-1.3,0.2-1.8,0.6s-0.7,1-0.8,1.7c-0.1,0.7-0.2,1.5-0.2,2.5c0,1,0.1,1.9,0.2,2.6c0.1,0.7,0.4,1.2,0.8,1.7s1,0.6,1.8,0.6
			c0.8,0,1.4-0.2,1.8-0.6s0.7-1,0.8-1.7C191,209.2,191.1,208.3,191.1,207.3z M206.4,204.4v8.7h-1.1v-1.5c-0.3,0.5-0.7,1-1.2,1.2
			c-0.5,0.3-1.1,0.4-1.8,0.4c-1,0-1.9-0.3-2.6-1c-0.7-0.6-1-1.6-1-2.8v-5.1h1.1v5c0,0.9,0.2,1.7,0.7,2.2c0.5,0.5,1.1,0.8,1.9,0.8
			c0.8,0,1.5-0.3,2-0.8c0.5-0.5,0.8-1.3,0.8-2.4v-4.8H206.4z M212,213.3c-1,0-1.8-0.2-2.5-0.7c-0.6-0.5-1-1.1-1.1-1.9h1.2
			c0.1,0.5,0.3,0.9,0.7,1.2c0.4,0.3,1,0.5,1.7,0.5c0.6,0,1.1-0.1,1.4-0.4s0.5-0.6,0.5-1.1c0-0.3-0.1-0.5-0.3-0.7
			c-0.2-0.2-0.4-0.4-0.7-0.5s-0.7-0.2-1.2-0.4c-0.6-0.2-1.2-0.3-1.6-0.5c-0.4-0.2-0.8-0.4-1-0.8c-0.3-0.3-0.4-0.8-0.4-1.4
			c0-0.4,0.1-0.8,0.4-1.2c0.3-0.4,0.6-0.7,1.1-0.9c0.5-0.2,1-0.3,1.6-0.3c0.9,0,1.7,0.2,2.3,0.7c0.6,0.5,0.9,1.1,0.9,2h-1.1
			c0-0.5-0.2-0.9-0.6-1.2c-0.4-0.3-0.9-0.5-1.5-0.5c-0.6,0-1,0.1-1.4,0.4c-0.4,0.3-0.5,0.6-0.5,1c0,0.3,0.1,0.6,0.3,0.8
			s0.5,0.4,0.8,0.5c0.3,0.1,0.7,0.3,1.3,0.4c0.6,0.2,1.1,0.3,1.5,0.5c0.4,0.2,0.7,0.4,1,0.7c0.3,0.3,0.4,0.7,0.4,1.2
			c0,0.5-0.1,0.9-0.4,1.2c-0.2,0.4-0.6,0.7-1.1,0.9C213.1,213.2,212.6,213.3,212,213.3z M225.1,208.3c0,0.4,0,0.7,0,0.9h-7.2
			c0,0.7,0.2,1.2,0.5,1.7c0.3,0.5,0.7,0.8,1.1,1.1s1,0.4,1.5,0.4c0.7,0,1.3-0.2,1.8-0.5c0.5-0.4,0.8-0.8,1-1.4h1.2
			c-0.2,0.9-0.7,1.6-1.4,2.1c-0.7,0.5-1.6,0.8-2.6,0.8c-0.8,0-1.6-0.2-2.2-0.5c-0.6-0.4-1.2-0.9-1.5-1.6c-0.4-0.7-0.5-1.5-0.5-2.4
			s0.2-1.7,0.5-2.4c0.4-0.7,0.9-1.2,1.5-1.6c0.7-0.4,1.4-0.5,2.2-0.5c0.8,0,1.5,0.2,2.2,0.5c0.6,0.4,1.1,0.8,1.4,1.5
			C224.9,206.9,225.1,207.6,225.1,208.3z M223.9,208.3c0-0.7-0.1-1.2-0.4-1.7c-0.3-0.5-0.6-0.8-1.1-1c-0.5-0.2-1-0.4-1.5-0.4
			c-0.8,0-1.5,0.3-2.1,0.8c-0.6,0.5-0.9,1.3-1,2.2H223.9z M228.2,205.9c0.2-0.5,0.6-1,1.1-1.2c0.5-0.3,1.1-0.5,1.9-0.5v1.2h-0.3
			c-0.8,0-1.5,0.2-2,0.7c-0.5,0.4-0.7,1.2-0.7,2.2v4.9h-1.1v-8.7h1.1V205.9z M235.9,213.3c-1,0-1.8-0.2-2.5-0.7
			c-0.6-0.5-1-1.1-1.1-1.9h1.2c0.1,0.5,0.3,0.9,0.7,1.2c0.4,0.3,1,0.5,1.7,0.5c0.6,0,1.1-0.1,1.4-0.4s0.5-0.6,0.5-1.1
			c0-0.3-0.1-0.5-0.3-0.7c-0.2-0.2-0.4-0.4-0.7-0.5s-0.7-0.2-1.2-0.4c-0.6-0.2-1.2-0.3-1.6-0.5c-0.4-0.2-0.8-0.4-1-0.8
			c-0.3-0.3-0.4-0.8-0.4-1.4c0-0.4,0.1-0.8,0.4-1.2c0.3-0.4,0.6-0.7,1.1-0.9c0.5-0.2,1-0.3,1.6-0.3c0.9,0,1.7,0.2,2.3,0.7
			c0.6,0.5,0.9,1.1,0.9,2h-1.1c0-0.5-0.2-0.9-0.6-1.2c-0.4-0.3-0.9-0.5-1.5-0.5c-0.6,0-1,0.1-1.4,0.4c-0.4,0.3-0.5,0.6-0.5,1
			c0,0.3,0.1,0.6,0.3,0.8s0.5,0.4,0.8,0.5c0.3,0.1,0.7,0.3,1.3,0.4c0.6,0.2,1.1,0.3,1.5,0.5c0.4,0.2,0.7,0.4,1,0.7
			c0.3,0.3,0.4,0.7,0.4,1.2c0,0.5-0.1,0.9-0.4,1.2c-0.2,0.4-0.6,0.7-1.1,0.9C237,213.2,236.5,213.3,235.9,213.3z"/>
		<path class="st2" d="M149.9,234c0.6,0,1.1,0.2,1.7,0.5c0.6,0.3,1,0.7,1.3,1.3c0.3,0.6,0.5,1.1,0.5,1.7c0,0.9-0.3,1.8-1,2.4
			c-0.7,0.7-1.5,1-2.4,1c-1,0-1.8-0.3-2.5-1c-0.7-0.7-1-1.5-1-2.4c0-0.6,0.2-1.2,0.5-1.7c0.3-0.6,0.7-1,1.3-1.3
			C148.7,234.1,149.3,234,149.9,234z"/>
		<path class="st2" d="M179.2,231.5v-1h2.7v11.5h-1.1v-10.5H179.2z M191.3,231.3l-4.5,10.6h-1.1l4.5-10.5h-6.4v-1h7.5V231.3z
			 M203,235.5v1h-6.2v-1H203z M209.9,233.4c0.1-1,0.5-1.7,1.1-2.3s1.6-0.8,2.6-0.8c0.7,0,1.3,0.1,1.8,0.4c0.5,0.3,0.9,0.6,1.2,1.1
			c0.3,0.4,0.4,0.9,0.4,1.5c0,0.7-0.2,1.2-0.6,1.8c-0.4,0.5-1,0.8-1.7,0.9v0.1c0.8,0.1,1.4,0.5,1.8,1c0.4,0.5,0.7,1.2,0.7,2
			c0,0.9-0.3,1.7-0.9,2.3c-0.6,0.6-1.5,0.9-2.7,0.9c-1.1,0-2-0.3-2.7-0.9c-0.7-0.6-1.1-1.4-1.2-2.5h1.1c0.1,0.7,0.4,1.3,0.9,1.8
			c0.5,0.4,1.2,0.7,2,0.7c0.8,0,1.4-0.2,1.9-0.6c0.4-0.4,0.7-1,0.7-1.6c0-1.6-1.2-2.4-3.5-2.4h-0.4v-1h0.4c2.2,0,3.3-0.7,3.3-2.1
			c0-0.6-0.2-1.1-0.6-1.5c-0.4-0.4-1-0.6-1.7-0.6c-0.7,0-1.3,0.2-1.8,0.6c-0.5,0.4-0.7,0.9-0.8,1.6H209.9z M226.6,231.4h-5.8v4.1
			c0.3-0.4,0.6-0.7,1.2-0.9c0.5-0.2,1.1-0.4,1.7-0.4c0.9,0,1.6,0.2,2.1,0.5c0.6,0.4,0.9,0.8,1.2,1.4c0.3,0.6,0.4,1.2,0.4,1.8
			c0,0.8-0.1,1.4-0.4,2c-0.3,0.6-0.7,1.1-1.3,1.4c-0.6,0.4-1.3,0.5-2.2,0.5c-1.1,0-2-0.3-2.7-0.8c-0.7-0.6-1.1-1.3-1.2-2.3h1.1
			c0.1,0.7,0.5,1.3,1,1.6c0.5,0.4,1.1,0.6,1.9,0.6c0.9,0,1.6-0.3,2.1-0.8c0.5-0.6,0.7-1.3,0.7-2.2c0-0.9-0.2-1.6-0.7-2.1
			c-0.5-0.5-1.2-0.8-2.1-0.8c-0.6,0-1.2,0.1-1.6,0.4c-0.5,0.3-0.8,0.7-1,1.2h-1.1v-6.3h6.9V231.4z M241.1,233.2l-5.2,12.8h-1.2
			l1.7-4.2l-3.6-8.7h1.2l3,7.5l2.9-7.5H241.1z M250.5,237.1c0,0.4,0,0.7,0,0.9h-7.2c0,0.7,0.2,1.2,0.5,1.7c0.3,0.5,0.7,0.8,1.1,1.1
			c0.5,0.2,1,0.4,1.5,0.4c0.7,0,1.3-0.2,1.8-0.5c0.5-0.4,0.8-0.8,1-1.4h1.2c-0.2,0.9-0.7,1.6-1.4,2.1c-0.7,0.5-1.6,0.8-2.6,0.8
			c-0.8,0-1.6-0.2-2.2-0.5c-0.6-0.4-1.2-0.9-1.5-1.6c-0.4-0.7-0.5-1.5-0.5-2.4s0.2-1.7,0.5-2.4c0.4-0.7,0.9-1.2,1.5-1.6
			c0.7-0.4,1.4-0.5,2.2-0.5c0.8,0,1.5,0.2,2.2,0.5c0.6,0.4,1.1,0.8,1.4,1.5C250.3,235.7,250.5,236.4,250.5,237.1z M249.3,237.1
			c0-0.7-0.1-1.2-0.4-1.7c-0.3-0.5-0.6-0.8-1.1-1c-0.5-0.2-1-0.4-1.5-0.4c-0.8,0-1.5,0.3-2.1,0.8c-0.6,0.5-0.9,1.3-1,2.2H249.3z
			 M252,237.5c0-0.9,0.2-1.7,0.5-2.4c0.4-0.7,0.9-1.2,1.5-1.6c0.6-0.4,1.3-0.5,2.1-0.5c0.8,0,1.6,0.2,2.2,0.6c0.6,0.4,1,0.9,1.3,1.5
			v-1.9h1.1v8.7h-1.1V240c-0.3,0.6-0.7,1.1-1.3,1.5c-0.6,0.4-1.3,0.6-2.2,0.6c-0.8,0-1.5-0.2-2.1-0.5c-0.6-0.4-1.1-0.9-1.5-1.6
			C252.2,239.2,252,238.4,252,237.5z M259.6,237.6c0-0.7-0.1-1.3-0.4-1.8c-0.3-0.5-0.7-1-1.2-1.2c-0.5-0.3-1-0.4-1.6-0.4
			c-0.6,0-1.2,0.1-1.7,0.4c-0.5,0.3-0.9,0.7-1.2,1.2s-0.4,1.2-0.4,1.9s0.1,1.3,0.4,1.9c0.3,0.5,0.7,0.9,1.2,1.2
			c0.5,0.3,1,0.4,1.7,0.4c0.6,0,1.1-0.1,1.6-0.4c0.5-0.3,0.9-0.7,1.2-1.2S259.6,238.3,259.6,237.6z M264.4,234.7
			c0.2-0.5,0.6-1,1.1-1.2c0.5-0.3,1.1-0.5,1.9-0.5v1.2h-0.3c-0.8,0-1.5,0.2-2,0.7c-0.5,0.4-0.7,1.2-0.7,2.2v4.9h-1.1v-8.7h1.1V234.7
			z M272.1,242.1c-1,0-1.8-0.2-2.5-0.7c-0.6-0.5-1-1.1-1.1-1.9h1.2c0.1,0.5,0.3,0.9,0.7,1.2c0.4,0.3,1,0.5,1.7,0.5
			c0.6,0,1.1-0.1,1.4-0.4c0.3-0.3,0.5-0.6,0.5-1.1c0-0.3-0.1-0.5-0.3-0.7c-0.2-0.2-0.4-0.4-0.7-0.5c-0.3-0.1-0.7-0.2-1.2-0.4
			c-0.6-0.2-1.2-0.3-1.6-0.5c-0.4-0.2-0.8-0.4-1-0.8c-0.3-0.3-0.4-0.8-0.4-1.4c0-0.4,0.1-0.8,0.4-1.2c0.3-0.4,0.6-0.7,1.1-0.9
			c0.5-0.2,1-0.3,1.6-0.3c0.9,0,1.7,0.2,2.3,0.7c0.6,0.5,0.9,1.1,0.9,2H274c0-0.5-0.2-0.9-0.6-1.2c-0.4-0.3-0.9-0.5-1.5-0.5
			c-0.6,0-1,0.1-1.4,0.4c-0.4,0.3-0.5,0.6-0.5,1c0,0.3,0.1,0.6,0.3,0.8s0.5,0.4,0.8,0.5c0.3,0.1,0.7,0.3,1.3,0.4
			c0.6,0.2,1.1,0.3,1.5,0.5c0.4,0.2,0.7,0.4,1,0.7c0.3,0.3,0.4,0.7,0.4,1.2c0,0.5-0.1,0.9-0.4,1.2c-0.2,0.4-0.6,0.7-1.1,0.9
			C273.3,242,272.7,242.1,272.1,242.1z M285.5,242.1c-0.8,0-1.6-0.2-2.2-0.5c-0.7-0.4-1.2-0.9-1.6-1.6c-0.4-0.7-0.6-1.5-0.6-2.4
			s0.2-1.7,0.6-2.4c0.4-0.7,0.9-1.2,1.6-1.6c0.7-0.4,1.4-0.5,2.2-0.5s1.6,0.2,2.2,0.5c0.7,0.4,1.2,0.9,1.6,1.6
			c0.4,0.7,0.6,1.5,0.6,2.4c0,0.9-0.2,1.7-0.6,2.4c-0.4,0.7-0.9,1.2-1.6,1.6C287.1,241.9,286.3,242.1,285.5,242.1z M285.5,241.1
			c0.6,0,1.1-0.1,1.6-0.4c0.5-0.3,0.9-0.7,1.2-1.2c0.3-0.5,0.5-1.2,0.5-2c0-0.8-0.2-1.4-0.5-1.9s-0.7-0.9-1.2-1.2
			c-0.5-0.3-1-0.4-1.6-0.4c-0.6,0-1.1,0.1-1.6,0.4c-0.5,0.3-0.9,0.7-1.2,1.2s-0.4,1.2-0.4,1.9c0,0.8,0.1,1.4,0.4,2s0.7,0.9,1.2,1.2
			C284.4,241,284.9,241.1,285.5,241.1z M293.1,230.1v11.8h-1.1v-11.8H293.1z M295.1,237.5c0-0.9,0.2-1.7,0.5-2.4
			c0.4-0.7,0.9-1.2,1.5-1.6c0.6-0.4,1.3-0.5,2.1-0.5c0.8,0,1.5,0.2,2.1,0.6c0.6,0.4,1.1,0.8,1.4,1.5v-5h1.1v11.8h-1.1v-2
			c-0.3,0.6-0.7,1.1-1.3,1.5c-0.6,0.4-1.3,0.6-2.1,0.6c-0.8,0-1.5-0.2-2.1-0.5c-0.6-0.4-1.1-0.9-1.5-1.6
			C295.3,239.2,295.1,238.4,295.1,237.5z M302.7,237.6c0-0.7-0.1-1.3-0.4-1.8c-0.3-0.5-0.7-1-1.2-1.2c-0.5-0.3-1-0.4-1.6-0.4
			c-0.6,0-1.2,0.1-1.7,0.4c-0.5,0.3-0.9,0.7-1.2,1.2s-0.4,1.2-0.4,1.9s0.1,1.3,0.4,1.9c0.3,0.5,0.7,0.9,1.2,1.2
			c0.5,0.3,1,0.4,1.7,0.4c0.6,0,1.1-0.1,1.6-0.4c0.5-0.3,0.9-0.7,1.2-1.2S302.7,238.3,302.7,237.6z"/>
		<path class="st2" d="M149.9,262.8c0.6,0,1.1,0.2,1.7,0.5c0.6,0.3,1,0.7,1.3,1.3c0.3,0.6,0.5,1.1,0.5,1.7c0,0.9-0.3,1.8-1,2.4
			c-0.7,0.7-1.5,1-2.4,1c-1,0-1.8-0.3-2.5-1c-0.7-0.7-1-1.5-1-2.4c0-0.6,0.2-1.2,0.5-1.7c0.3-0.6,0.7-1,1.3-1.3
			C148.7,262.9,149.3,262.8,149.9,262.8z"/>
		<path class="st2" d="M183.4,270.8c-0.7,0-1.4-0.1-2-0.4c-0.6-0.3-1-0.6-1.3-1.1c-0.3-0.5-0.5-1-0.5-1.5h1.2c0.1,0.5,0.3,1,0.7,1.4
			c0.4,0.4,1.1,0.6,1.9,0.6c0.8,0,1.4-0.2,1.8-0.6c0.4-0.4,0.7-0.9,0.7-1.5c0-0.5-0.1-0.9-0.4-1.2c-0.2-0.3-0.5-0.5-0.9-0.7
			c-0.4-0.1-0.9-0.3-1.5-0.5c-0.8-0.2-1.3-0.4-1.8-0.6c-0.4-0.2-0.8-0.5-1.1-0.9s-0.5-1-0.5-1.6c0-0.6,0.2-1.1,0.5-1.5
			c0.3-0.5,0.7-0.8,1.3-1.1c0.5-0.3,1.2-0.4,1.9-0.4c1,0,1.9,0.3,2.5,0.8c0.6,0.5,1,1.2,1.1,2h-1.2c-0.1-0.5-0.3-0.9-0.8-1.2
			c-0.4-0.4-1-0.5-1.7-0.5c-0.7,0-1.2,0.2-1.7,0.5c-0.4,0.4-0.7,0.8-0.7,1.5c0,0.5,0.1,0.9,0.4,1.2c0.2,0.3,0.6,0.5,0.9,0.6
			c0.4,0.1,0.9,0.3,1.5,0.5c0.7,0.2,1.3,0.4,1.8,0.6c0.4,0.2,0.8,0.5,1.1,0.9c0.3,0.4,0.5,1,0.5,1.6c0,0.5-0.1,1-0.4,1.5
			c-0.3,0.5-0.7,0.8-1.2,1.1C184.8,270.7,184.1,270.8,183.4,270.8z M190.6,262.9v5.4c0,0.5,0.1,0.9,0.3,1.1c0.2,0.2,0.6,0.3,1.1,0.3
			h1v1h-1.2c-0.8,0-1.4-0.2-1.8-0.5c-0.4-0.4-0.6-1-0.6-1.8v-5.4h-1.2V262h1.2v-2.2h1.1v2.2h2.4v0.9H190.6z M202.4,262v8.7h-1.1
			v-1.5c-0.3,0.5-0.7,1-1.2,1.2c-0.5,0.3-1.1,0.4-1.8,0.4c-1,0-1.9-0.3-2.6-1c-0.7-0.6-1-1.6-1-2.8V262h1.1v5c0,0.9,0.2,1.7,0.7,2.2
			c0.5,0.5,1.1,0.8,1.9,0.8c0.8,0,1.5-0.3,2-0.8c0.5-0.5,0.8-1.3,0.8-2.4V262H202.4z M204.4,266.3c0-0.9,0.2-1.7,0.5-2.4
			c0.4-0.7,0.9-1.2,1.5-1.6c0.6-0.4,1.3-0.5,2.1-0.5c0.8,0,1.5,0.2,2.1,0.6c0.6,0.4,1.1,0.8,1.4,1.5v-5h1.1v11.8h-1.1v-2
			c-0.3,0.6-0.7,1.1-1.3,1.5c-0.6,0.4-1.3,0.6-2.1,0.6c-0.8,0-1.5-0.2-2.1-0.5c-0.6-0.4-1.1-0.9-1.5-1.6
			C204.6,268,204.4,267.2,204.4,266.3z M212.1,266.4c0-0.7-0.1-1.3-0.4-1.8c-0.3-0.5-0.7-1-1.2-1.2c-0.5-0.3-1-0.4-1.6-0.4
			c-0.6,0-1.2,0.1-1.7,0.4c-0.5,0.3-0.9,0.7-1.2,1.2c-0.3,0.5-0.4,1.2-0.4,1.9c0,0.7,0.1,1.3,0.4,1.9c0.3,0.5,0.7,0.9,1.2,1.2
			c0.5,0.3,1,0.4,1.7,0.4c0.6,0,1.1-0.1,1.6-0.4c0.5-0.3,0.9-0.7,1.2-1.2C211.9,267.7,212.1,267.1,212.1,266.4z M223.6,265.9
			c0,0.4,0,0.7,0,0.9h-7.2c0,0.7,0.2,1.2,0.5,1.7c0.3,0.5,0.7,0.8,1.1,1.1c0.5,0.2,1,0.4,1.5,0.4c0.7,0,1.3-0.2,1.8-0.5
			c0.5-0.4,0.8-0.8,1-1.4h1.2c-0.2,0.9-0.7,1.6-1.4,2.1c-0.7,0.5-1.6,0.8-2.6,0.8c-0.8,0-1.6-0.2-2.2-0.5c-0.6-0.4-1.2-0.9-1.5-1.6
			c-0.4-0.7-0.5-1.5-0.5-2.4s0.2-1.7,0.5-2.4c0.4-0.7,0.9-1.2,1.5-1.6c0.7-0.4,1.4-0.5,2.2-0.5c0.8,0,1.5,0.2,2.2,0.5
			c0.6,0.4,1.1,0.8,1.4,1.5C223.5,264.5,223.6,265.2,223.6,265.9z M222.5,265.9c0-0.7-0.1-1.2-0.4-1.7c-0.3-0.5-0.6-0.8-1.1-1
			c-0.5-0.2-1-0.4-1.5-0.4c-0.8,0-1.5,0.3-2.1,0.8c-0.6,0.5-0.9,1.3-1,2.2H222.5z M229.8,261.8c1,0,1.9,0.3,2.5,1
			c0.7,0.6,1,1.6,1,2.8v5.1h-1.1v-5c0-1-0.2-1.7-0.7-2.2c-0.5-0.5-1.1-0.8-1.9-0.8c-0.8,0-1.5,0.3-2,0.8c-0.5,0.5-0.8,1.3-0.8,2.3
			v4.8h-1.1V262h1.1v1.5c0.3-0.5,0.7-0.9,1.2-1.2C228.5,262,229.1,261.8,229.8,261.8z M237.3,262.9v5.4c0,0.5,0.1,0.9,0.3,1.1
			c0.2,0.2,0.6,0.3,1.1,0.3h1v1h-1.2c-0.8,0-1.4-0.2-1.8-0.5c-0.4-0.4-0.6-1-0.6-1.8v-5.4h-1.2V262h1.2v-2.2h1.1v2.2h2.4v0.9H237.3z
			 M242.5,268.9l-1.7,4.2h-0.8l1.2-4.2H242.5z M260.2,262l-2.7,8.7h-1.1l-2.4-7.3l-2.4,7.3h-1.1l-2.7-8.7h1.1l2.2,7.6l2.5-7.6h1.1
			l2.4,7.6l2.2-7.6H260.2z M265.5,270.9c-0.8,0-1.6-0.2-2.2-0.5c-0.7-0.4-1.2-0.9-1.6-1.6c-0.4-0.7-0.6-1.5-0.6-2.4s0.2-1.7,0.6-2.4
			c0.4-0.7,0.9-1.2,1.6-1.6c0.7-0.4,1.4-0.5,2.2-0.5c0.8,0,1.6,0.2,2.2,0.5c0.7,0.4,1.2,0.9,1.6,1.6c0.4,0.7,0.6,1.5,0.6,2.4
			c0,0.9-0.2,1.7-0.6,2.4c-0.4,0.7-0.9,1.2-1.6,1.6C267.1,270.7,266.4,270.9,265.5,270.9z M265.5,269.9c0.6,0,1.1-0.1,1.6-0.4
			c0.5-0.3,0.9-0.7,1.2-1.2c0.3-0.5,0.5-1.2,0.5-2c0-0.8-0.2-1.4-0.5-1.9c-0.3-0.5-0.7-0.9-1.2-1.2c-0.5-0.3-1-0.4-1.6-0.4
			c-0.6,0-1.1,0.1-1.6,0.4c-0.5,0.3-0.9,0.7-1.2,1.2c-0.3,0.5-0.4,1.2-0.4,1.9c0,0.8,0.1,1.4,0.4,2c0.3,0.5,0.7,0.9,1.2,1.2
			C264.4,269.8,265,269.9,265.5,269.9z M273.1,263.5c0.2-0.5,0.6-1,1.1-1.2c0.5-0.3,1.1-0.5,1.9-0.5v1.2h-0.3c-0.8,0-1.5,0.2-2,0.7
			s-0.7,1.2-0.7,2.2v4.9H272V262h1.1V263.5z M282.5,270.7l-3.6-3.9v3.9h-1.1v-11.8h1.1v7l3.5-3.9h1.6l-4.1,4.3l4.2,4.4H282.5z
			 M286,260.3c-0.2,0-0.4-0.1-0.6-0.2s-0.2-0.4-0.2-0.6c0-0.2,0.1-0.4,0.2-0.6s0.3-0.2,0.6-0.2c0.2,0,0.4,0.1,0.6,0.2
			c0.2,0.2,0.2,0.3,0.2,0.6c0,0.2-0.1,0.4-0.2,0.6C286.4,260.3,286.2,260.3,286,260.3z M286.6,262v8.7h-1.1V262H286.6z M293.2,261.8
			c1,0,1.9,0.3,2.5,1c0.7,0.6,1,1.6,1,2.8v5.1h-1.1v-5c0-1-0.2-1.7-0.7-2.2c-0.5-0.5-1.1-0.8-1.9-0.8c-0.8,0-1.5,0.3-2,0.8
			c-0.5,0.5-0.8,1.3-0.8,2.3v4.8h-1.1V262h1.1v1.5c0.3-0.5,0.7-0.9,1.2-1.2C292,262,292.6,261.8,293.2,261.8z M302.9,261.9
			c0.8,0,1.5,0.2,2.1,0.6c0.6,0.4,1.1,0.9,1.3,1.5V262h1.1v9c0,0.8-0.2,1.5-0.5,2.1c-0.3,0.6-0.8,1.1-1.5,1.4
			c-0.6,0.3-1.3,0.5-2.1,0.5c-1.1,0-2-0.3-2.8-0.8c-0.7-0.5-1.2-1.3-1.4-2.2h1.1c0.2,0.6,0.5,1.1,1.1,1.5c0.5,0.4,1.2,0.5,2,0.5
			c0.6,0,1.1-0.1,1.5-0.4c0.4-0.2,0.8-0.6,1.1-1.1c0.3-0.5,0.4-1,0.4-1.7v-2.2c-0.3,0.6-0.7,1.1-1.3,1.5c-0.6,0.4-1.3,0.6-2.1,0.6
			c-0.8,0-1.5-0.2-2.1-0.5c-0.6-0.4-1.1-0.9-1.5-1.6c-0.4-0.7-0.5-1.5-0.5-2.4c0-0.9,0.2-1.7,0.5-2.4c0.4-0.7,0.9-1.2,1.5-1.6
			C301.4,262.1,302.1,261.9,302.9,261.9z M306.4,266.4c0-0.7-0.1-1.3-0.4-1.8c-0.3-0.5-0.7-1-1.2-1.2c-0.5-0.3-1-0.4-1.6-0.4
			c-0.6,0-1.2,0.1-1.7,0.4c-0.5,0.3-0.9,0.7-1.2,1.2s-0.4,1.2-0.4,1.9s0.1,1.3,0.4,1.9c0.3,0.5,0.7,0.9,1.2,1.2
			c0.5,0.3,1,0.4,1.7,0.4c0.6,0,1.1-0.1,1.6-0.4c0.5-0.3,0.9-0.7,1.2-1.2C306.2,267.7,306.4,267.1,306.4,266.4z M315.5,263.9
			c0.3-0.6,0.7-1.1,1.3-1.5c0.6-0.4,1.3-0.6,2.2-0.6c0.8,0,1.5,0.2,2.1,0.5c0.6,0.4,1.1,0.9,1.5,1.6c0.4,0.7,0.5,1.5,0.5,2.4
			c0,0.9-0.2,1.7-0.5,2.4c-0.4,0.7-0.8,1.2-1.5,1.6c-0.6,0.4-1.3,0.5-2.1,0.5c-0.8,0-1.5-0.2-2.2-0.6c-0.6-0.4-1-0.9-1.3-1.5v6h-1.1
			V262h1.1V263.9z M322,266.3c0-0.7-0.1-1.3-0.4-1.9s-0.7-0.9-1.2-1.2c-0.5-0.3-1-0.4-1.7-0.4c-0.6,0-1.1,0.1-1.6,0.4
			c-0.5,0.3-0.9,0.7-1.2,1.2c-0.3,0.5-0.4,1.1-0.4,1.8c0,0.7,0.1,1.3,0.4,1.9c0.3,0.5,0.7,0.9,1.2,1.2c0.5,0.3,1,0.4,1.6,0.4
			c0.6,0,1.2-0.1,1.7-0.4c0.5-0.3,0.9-0.7,1.2-1.2C321.9,267.7,322,267.1,322,266.3z M326.4,263.5c0.2-0.5,0.6-1,1.1-1.2
			c0.5-0.3,1.1-0.5,1.9-0.5v1.2H329c-0.8,0-1.5,0.2-2,0.7s-0.7,1.2-0.7,2.2v4.9h-1.1V262h1.1V263.5z M334.8,270.9
			c-0.8,0-1.6-0.2-2.2-0.5c-0.7-0.4-1.2-0.9-1.6-1.6c-0.4-0.7-0.6-1.5-0.6-2.4s0.2-1.7,0.6-2.4c0.4-0.7,0.9-1.2,1.6-1.6
			c0.7-0.4,1.4-0.5,2.2-0.5s1.6,0.2,2.2,0.5c0.7,0.4,1.2,0.9,1.6,1.6c0.4,0.7,0.6,1.5,0.6,2.4c0,0.9-0.2,1.7-0.6,2.4
			c-0.4,0.7-0.9,1.2-1.6,1.6C336.4,270.7,335.7,270.9,334.8,270.9z M334.8,269.9c0.6,0,1.1-0.1,1.6-0.4c0.5-0.3,0.9-0.7,1.2-1.2
			c0.3-0.5,0.5-1.2,0.5-2c0-0.8-0.2-1.4-0.5-1.9s-0.7-0.9-1.2-1.2c-0.5-0.3-1-0.4-1.6-0.4c-0.6,0-1.1,0.1-1.6,0.4
			c-0.5,0.3-0.9,0.7-1.2,1.2s-0.4,1.2-0.4,1.9c0,0.8,0.1,1.4,0.4,2s0.7,0.9,1.2,1.2C333.7,269.8,334.3,269.9,334.8,269.9z
			 M344.7,262.9h-2v7.8h-1.1v-7.8h-1.2V262h1.2v-0.6c0-0.9,0.2-1.6,0.7-2.1c0.5-0.4,1.3-0.7,2.4-0.7v1c-0.7,0-1.2,0.1-1.5,0.4
			s-0.4,0.7-0.4,1.4v0.6h2V262.9z M354.4,265.9c0,0.4,0,0.7,0,0.9h-7.2c0,0.7,0.2,1.2,0.5,1.7c0.3,0.5,0.7,0.8,1.1,1.1
			c0.5,0.2,1,0.4,1.5,0.4c0.7,0,1.3-0.2,1.8-0.5c0.5-0.4,0.8-0.8,1-1.4h1.2c-0.2,0.9-0.7,1.6-1.4,2.1c-0.7,0.5-1.6,0.8-2.6,0.8
			c-0.8,0-1.6-0.2-2.2-0.5c-0.6-0.4-1.2-0.9-1.5-1.6c-0.4-0.7-0.5-1.5-0.5-2.4c0-0.9,0.2-1.7,0.5-2.4c0.4-0.7,0.9-1.2,1.5-1.6
			c0.7-0.4,1.4-0.5,2.2-0.5c0.8,0,1.5,0.2,2.2,0.5c0.6,0.4,1.1,0.8,1.4,1.5C354.2,264.5,354.4,265.2,354.4,265.9z M353.3,265.9
			c0-0.7-0.1-1.2-0.4-1.7c-0.3-0.5-0.6-0.8-1.1-1c-0.5-0.2-1-0.4-1.5-0.4c-0.8,0-1.5,0.3-2.1,0.8c-0.6,0.5-0.9,1.3-1,2.2H353.3z
			 M359.4,270.9c-1,0-1.8-0.2-2.5-0.7c-0.6-0.5-1-1.1-1.1-1.9h1.2c0.1,0.5,0.3,0.9,0.7,1.2c0.4,0.3,1,0.5,1.7,0.5
			c0.6,0,1.1-0.1,1.4-0.4c0.3-0.3,0.5-0.6,0.5-1.1c0-0.3-0.1-0.5-0.3-0.7c-0.2-0.2-0.4-0.4-0.7-0.5c-0.3-0.1-0.7-0.2-1.2-0.4
			c-0.6-0.2-1.2-0.3-1.6-0.5c-0.4-0.2-0.8-0.4-1-0.8c-0.3-0.3-0.4-0.8-0.4-1.4c0-0.4,0.1-0.8,0.4-1.2c0.3-0.4,0.6-0.7,1.1-0.9
			c0.5-0.2,1-0.3,1.6-0.3c0.9,0,1.7,0.2,2.3,0.7c0.6,0.5,0.9,1.1,0.9,2h-1.1c0-0.5-0.2-0.9-0.6-1.2c-0.4-0.3-0.9-0.5-1.5-0.5
			c-0.6,0-1,0.1-1.4,0.4c-0.4,0.3-0.5,0.6-0.5,1c0,0.3,0.1,0.6,0.3,0.8c0.2,0.2,0.5,0.4,0.8,0.5c0.3,0.1,0.7,0.3,1.3,0.4
			c0.6,0.2,1.1,0.3,1.5,0.5c0.4,0.2,0.7,0.4,1,0.7c0.3,0.3,0.4,0.7,0.4,1.2c0,0.5-0.1,0.9-0.4,1.2c-0.3,0.4-0.6,0.7-1.1,0.9
			C360.6,270.8,360,270.9,359.4,270.9z M367.6,270.9c-1,0-1.8-0.2-2.5-0.7c-0.6-0.5-1-1.1-1.1-1.9h1.2c0.1,0.5,0.3,0.9,0.7,1.2
			c0.4,0.3,1,0.5,1.7,0.5c0.6,0,1.1-0.1,1.4-0.4c0.3-0.3,0.5-0.6,0.5-1.1c0-0.3-0.1-0.5-0.3-0.7c-0.2-0.2-0.4-0.4-0.7-0.5
			c-0.3-0.1-0.7-0.2-1.2-0.4c-0.6-0.2-1.2-0.3-1.6-0.5c-0.4-0.2-0.8-0.4-1-0.8c-0.3-0.3-0.4-0.8-0.4-1.4c0-0.4,0.1-0.8,0.4-1.2
			c0.3-0.4,0.6-0.7,1.1-0.9c0.5-0.2,1-0.3,1.6-0.3c0.9,0,1.7,0.2,2.3,0.7c0.6,0.5,0.9,1.1,0.9,2h-1.1c0-0.5-0.2-0.9-0.6-1.2
			c-0.4-0.3-0.9-0.5-1.5-0.5c-0.6,0-1,0.1-1.4,0.4c-0.4,0.3-0.5,0.6-0.5,1c0,0.3,0.1,0.6,0.3,0.8c0.2,0.2,0.5,0.4,0.8,0.5
			c0.3,0.1,0.7,0.3,1.3,0.4c0.6,0.2,1.1,0.3,1.5,0.5c0.4,0.2,0.7,0.4,1,0.7c0.3,0.3,0.4,0.7,0.4,1.2c0,0.5-0.1,0.9-0.4,1.2
			c-0.2,0.4-0.6,0.7-1.1,0.9C368.7,270.8,368.2,270.9,367.6,270.9z M373.3,260.3c-0.2,0-0.4-0.1-0.6-0.2s-0.2-0.4-0.2-0.6
			c0-0.2,0.1-0.4,0.2-0.6s0.3-0.2,0.6-0.2c0.2,0,0.4,0.1,0.6,0.2c0.2,0.2,0.2,0.3,0.2,0.6c0,0.2-0.1,0.4-0.2,0.6
			C373.7,260.3,373.5,260.3,373.3,260.3z M373.9,262v8.7h-1.1V262H373.9z M380.3,270.9c-0.8,0-1.6-0.2-2.2-0.5
			c-0.7-0.4-1.2-0.9-1.6-1.6c-0.4-0.7-0.6-1.5-0.6-2.4s0.2-1.7,0.6-2.4c0.4-0.7,0.9-1.2,1.6-1.6c0.7-0.4,1.4-0.5,2.2-0.5
			c0.8,0,1.6,0.2,2.2,0.5c0.7,0.4,1.2,0.9,1.6,1.6c0.4,0.7,0.6,1.5,0.6,2.4c0,0.9-0.2,1.7-0.6,2.4c-0.4,0.7-0.9,1.2-1.6,1.6
			C381.8,270.7,381.1,270.9,380.3,270.9z M380.3,269.9c0.6,0,1.1-0.1,1.6-0.4c0.5-0.3,0.9-0.7,1.2-1.2c0.3-0.5,0.5-1.2,0.5-2
			c0-0.8-0.2-1.4-0.5-1.9c-0.3-0.5-0.7-0.9-1.2-1.2c-0.5-0.3-1-0.4-1.6-0.4c-0.6,0-1.1,0.1-1.6,0.4c-0.5,0.3-0.9,0.7-1.2,1.2
			c-0.3,0.5-0.4,1.2-0.4,1.9c0,0.8,0.1,1.4,0.4,2c0.3,0.5,0.7,0.9,1.2,1.2C379.1,269.8,379.7,269.9,380.3,269.9z M390.8,261.8
			c1,0,1.9,0.3,2.5,1c0.7,0.6,1,1.6,1,2.8v5.1h-1.1v-5c0-1-0.2-1.7-0.7-2.2c-0.5-0.5-1.1-0.8-1.9-0.8c-0.8,0-1.5,0.3-2,0.8
			c-0.5,0.5-0.8,1.3-0.8,2.3v4.8h-1.1V262h1.1v1.5c0.3-0.5,0.7-0.9,1.2-1.2C389.5,262,390.1,261.8,390.8,261.8z M399.8,270.9
			c-1,0-1.8-0.2-2.5-0.7c-0.6-0.5-1-1.1-1.1-1.9h1.2c0.1,0.5,0.3,0.9,0.7,1.2c0.4,0.3,1,0.5,1.7,0.5c0.6,0,1.1-0.1,1.4-0.4
			c0.3-0.3,0.5-0.6,0.5-1.1c0-0.3-0.1-0.5-0.3-0.7c-0.2-0.2-0.4-0.4-0.7-0.5c-0.3-0.1-0.7-0.2-1.2-0.4c-0.6-0.2-1.2-0.3-1.6-0.5
			c-0.4-0.2-0.8-0.4-1-0.8c-0.3-0.3-0.4-0.8-0.4-1.4c0-0.4,0.1-0.8,0.4-1.2c0.3-0.4,0.6-0.7,1.1-0.9c0.5-0.2,1-0.3,1.6-0.3
			c0.9,0,1.7,0.2,2.3,0.7c0.6,0.5,0.9,1.1,0.9,2h-1.1c0-0.5-0.2-0.9-0.6-1.2c-0.4-0.3-0.9-0.5-1.5-0.5c-0.6,0-1,0.1-1.4,0.4
			c-0.4,0.3-0.5,0.6-0.5,1c0,0.3,0.1,0.6,0.3,0.8s0.5,0.4,0.8,0.5c0.3,0.1,0.7,0.3,1.3,0.4c0.6,0.2,1.1,0.3,1.5,0.5
			c0.4,0.2,0.7,0.4,1,0.7c0.3,0.3,0.4,0.7,0.4,1.2c0,0.5-0.1,0.9-0.4,1.2c-0.2,0.4-0.6,0.7-1.1,0.9
			C401,270.8,400.4,270.9,399.8,270.9z M405.2,270.8c-0.2,0-0.4-0.1-0.6-0.2c-0.2-0.2-0.2-0.4-0.2-0.6c0-0.2,0.1-0.4,0.2-0.6
			c0.2-0.2,0.3-0.2,0.6-0.2c0.2,0,0.4,0.1,0.6,0.2c0.2,0.1,0.2,0.3,0.2,0.6c0,0.2-0.1,0.4-0.2,0.6
			C405.6,270.7,405.4,270.8,405.2,270.8z"/>
		<path class="st1" d="M168.7,119.9h180.2v68.9H168.7V119.9z"/>
		<path class="st2" d="M185.5,148.2c-1.3,0-2.5-0.3-3.6-0.9c-1.1-0.6-2-1.5-2.6-2.6c-0.6-1.1-1-2.3-1-3.7s0.3-2.6,1-3.7
			c0.6-1.1,1.5-1.9,2.6-2.5c1.1-0.6,2.3-0.9,3.6-0.9c1.3,0,2.5,0.3,3.6,0.9c1.1,0.6,2,1.5,2.6,2.5c0.6,1.1,1,2.3,1,3.7
			s-0.3,2.6-1,3.7c-0.6,1.1-1.5,1.9-2.6,2.6C188.1,147.9,186.8,148.2,185.5,148.2z M185.5,145.1c1.1,0,2-0.4,2.7-1.1
			c0.7-0.8,1-1.7,1-3c0-1.2-0.3-2.2-1-3c-0.7-0.7-1.6-1.1-2.7-1.1s-2,0.4-2.7,1.1c-0.7,0.7-1,1.7-1,3c0,1.2,0.3,2.2,1,3
			C183.5,144.7,184.4,145.1,185.5,145.1z M207.2,148.1h-3.4l-5.7-8.7v8.7h-3.4v-14h3.4l5.7,8.7V134h3.4V148.1z M213.1,145.4h4.5v2.6
			h-7.9v-14h3.4V145.4z M222.6,134v14h-3.4v-14H222.6z M237.6,148.1h-3.4l-5.7-8.7v8.7h-3.4v-14h3.4l5.7,8.7V134h3.4V148.1z
			 M243.5,136.8v2.8h4.6v2.6h-4.6v3.1h5.2v2.7h-8.6v-14h8.6v2.8H243.5z M260.3,148.2c-1,0-1.9-0.2-2.8-0.5c-0.8-0.3-1.5-0.8-2-1.5
			c-0.5-0.7-0.7-1.4-0.8-2.4h3.6c0.1,0.5,0.2,0.9,0.5,1.2c0.3,0.3,0.7,0.4,1.2,0.4c0.5,0,0.9-0.1,1.2-0.3c0.3-0.2,0.4-0.6,0.4-1
			c0-0.3-0.1-0.6-0.4-0.9c-0.2-0.2-0.5-0.4-0.9-0.6c-0.3-0.1-0.8-0.3-1.4-0.5c-0.9-0.3-1.6-0.6-2.2-0.8c-0.6-0.3-1.1-0.7-1.5-1.2
			c-0.4-0.6-0.6-1.3-0.6-2.2c0-1.3,0.5-2.3,1.4-3.1c0.9-0.7,2.2-1.1,3.7-1.1c1.5,0,2.8,0.4,3.7,1.1c0.9,0.7,1.5,1.8,1.5,3.1h-3.7
			c0-0.4-0.2-0.8-0.5-1.1c-0.3-0.3-0.7-0.4-1.2-0.4c-0.4,0-0.7,0.1-1,0.3c-0.2,0.2-0.4,0.5-0.4,1c0,0.4,0.2,0.8,0.6,1.1
			c0.4,0.2,1.1,0.5,2,0.8c0.9,0.3,1.6,0.6,2.2,0.9c0.6,0.3,1.1,0.7,1.5,1.2c0.4,0.5,0.6,1.2,0.6,2c0,0.8-0.2,1.5-0.6,2.2
			s-1,1.2-1.8,1.6C262.2,148,261.3,148.2,260.3,148.2z M270.8,134v8.4c0,0.8,0.2,1.5,0.6,2c0.4,0.4,1,0.7,1.8,0.7
			c0.8,0,1.4-0.2,1.8-0.7c0.4-0.5,0.6-1.1,0.6-2V134h3.4v8.4c0,1.2-0.3,2.3-0.8,3.2c-0.5,0.9-1.2,1.5-2.2,2c-0.9,0.4-1.9,0.7-3,0.7
			c-1.1,0-2.1-0.2-3-0.6c-0.9-0.4-1.6-1.1-2.1-2c-0.5-0.9-0.8-1.9-0.8-3.2V134H270.8z M288.8,148.1l-2.9-5.3H285v5.3h-3.4v-14h5.8
			c1.1,0,2,0.2,2.8,0.6c0.8,0.4,1.4,0.9,1.8,1.6c0.4,0.7,0.6,1.4,0.6,2.2c0,0.9-0.3,1.8-0.8,2.5c-0.5,0.7-1.3,1.2-2.3,1.5l3.2,5.6
			H288.8z M285,140.3h2.1c0.6,0,1.1-0.2,1.4-0.5c0.3-0.3,0.5-0.8,0.5-1.3c0-0.5-0.2-0.9-0.5-1.2c-0.3-0.3-0.8-0.5-1.4-0.5H285V140.3
			z M307.8,134l-5,14h-4.3l-5-14h3.6l3.5,10.6l3.5-10.6H307.8z M312.6,136.8v2.8h4.6v2.6h-4.6v3.1h5.2v2.7h-8.6v-14h8.6v2.8H312.6z
			 M332.1,134l-4.9,9.4v4.6h-3.4v-4.6L319,134h3.9l2.7,5.9l2.7-5.9H332.1z"/>
		<path class="st1" d="M196,3.1h125.6v72H196V3.1z"/>
		<path class="st3" d="M196,3.1h125.6v72H196V3.1z"/>
		<path class="st1" d="M200.9,8.3h115.6v61.4H200.9V8.3z"/>
		<path class="st3" d="M200.9,8.3h115.6v61.4H200.9V8.3z"/>
		<path class="st1" d="M255.5,75h6.5v23h-6.5V75z"/>
		<path class="st3" d="M255.5,75h6.5v23h-6.5V75z"/>
		<path class="st1" d="M232.8,98h51.9v5.6h-51.9V98z"/>
		<path class="st3" d="M232.8,98h51.9v5.6h-51.9V98z"/>
		<path class="st1" d="M614,17.8L614,17.8c0-8.2,6.6-14.8,14.8-14.8h7.4l0,0h33.2h62.8c3.9,0,7.7,1.6,10.4,4.3
			c2.8,2.8,4.3,6.5,4.3,10.4v36.9l0,0v22.2l0,0c0,8.2-6.6,14.8-14.8,14.8h-62.8l-16.6,11.1l-16.6-11.1h-7.4
			c-8.2,0-14.8-6.6-14.8-14.8l0,0V54.8l0,0V17.8z"/>
		<path class="st3" d="M614,17.8L614,17.8c0-8.2,6.6-14.8,14.8-14.8h7.4l0,0h33.2h62.8c3.9,0,7.7,1.6,10.4,4.3
			c2.8,2.8,4.3,6.5,4.3,10.4v36.9l0,0v22.2l0,0c0,8.2-6.6,14.8-14.8,14.8h-62.8l-16.6,11.1l-16.6-11.1h-7.4
			c-8.2,0-14.8-6.6-14.8-14.8l0,0V54.8l0,0V17.8z"/>
		<path class="st1" d="M538.1,188.8h406.1v96.9H538.1V188.8z"/>
		<path class="st2" d="M566.3,205.2c0.6,0,1.1,0.2,1.7,0.5c0.6,0.3,1,0.7,1.3,1.3c0.3,0.6,0.5,1.1,0.5,1.7c0,0.9-0.3,1.8-1,2.4
			c-0.7,0.7-1.5,1-2.4,1c-1,0-1.8-0.3-2.5-1c-0.7-0.7-1-1.5-1-2.4c0-0.6,0.2-1.2,0.5-1.7c0.3-0.6,0.7-1,1.3-1.3
			C565.2,205.3,565.7,205.2,566.3,205.2z"/>
		<path class="st2" d="M601.4,213.2c-1,0-2-0.2-2.8-0.7c-0.8-0.5-1.5-1.2-2-2c-0.5-0.9-0.7-1.9-0.7-3c0-1.1,0.2-2.1,0.7-3
			c0.5-0.9,1.2-1.6,2-2c0.8-0.5,1.8-0.7,2.8-0.7c1.1,0,2,0.2,2.8,0.7c0.8,0.5,1.5,1.2,2,2c0.5,0.9,0.7,1.8,0.7,3
			c0,1.1-0.2,2.1-0.7,3c-0.5,0.9-1.1,1.5-2,2C603.4,213,602.5,213.2,601.4,213.2z M601.4,212.3c0.8,0,1.6-0.2,2.2-0.6
			c0.7-0.4,1.2-0.9,1.6-1.7c0.4-0.7,0.6-1.6,0.6-2.5c0-1-0.2-1.8-0.6-2.5c-0.4-0.7-0.9-1.3-1.6-1.6c-0.7-0.4-1.4-0.6-2.2-0.6
			c-0.8,0-1.6,0.2-2.2,0.6c-0.7,0.4-1.2,0.9-1.6,1.6c-0.4,0.7-0.6,1.5-0.6,2.5c0,0.9,0.2,1.8,0.6,2.5c0.4,0.7,0.9,1.3,1.6,1.7
			C599.9,212.1,600.6,212.3,601.4,212.3z M613.1,204.2c1,0,1.9,0.3,2.5,1c0.7,0.6,1,1.6,1,2.8v5.1h-1.1v-5c0-1-0.2-1.7-0.7-2.2
			c-0.5-0.5-1.1-0.8-1.9-0.8c-0.8,0-1.5,0.3-2,0.8c-0.5,0.5-0.8,1.3-0.8,2.3v4.8H609v-8.7h1.1v1.5c0.3-0.5,0.7-0.9,1.2-1.2
			C611.9,204.4,612.4,204.2,613.1,204.2z M627,208.3c0,0.4,0,0.7,0,0.9h-7.2c0,0.7,0.2,1.2,0.5,1.7c0.3,0.5,0.7,0.8,1.1,1.1
			s1,0.4,1.5,0.4c0.7,0,1.3-0.2,1.8-0.5c0.5-0.4,0.8-0.8,1-1.4h1.2c-0.2,0.9-0.7,1.6-1.4,2.1c-0.7,0.5-1.6,0.8-2.6,0.8
			c-0.8,0-1.6-0.2-2.2-0.5c-0.6-0.4-1.2-0.9-1.5-1.6c-0.4-0.7-0.5-1.5-0.5-2.4s0.2-1.7,0.5-2.4c0.4-0.7,0.9-1.2,1.5-1.6
			c0.7-0.4,1.4-0.5,2.2-0.5c0.8,0,1.5,0.2,2.2,0.5c0.6,0.4,1.1,0.8,1.4,1.5C626.9,206.9,627,207.6,627,208.3z M625.9,208.3
			c0-0.7-0.1-1.2-0.4-1.7s-0.6-0.8-1.1-1c-0.5-0.2-1-0.4-1.5-0.4c-0.8,0-1.5,0.3-2.1,0.8c-0.6,0.5-0.9,1.3-1,2.2H625.9z
			 M634.5,206.7v1h-6.2v-1H634.5z M641.2,213.3c-0.8,0-1.6-0.2-2.2-0.5s-1.2-0.9-1.6-1.6c-0.4-0.7-0.6-1.5-0.6-2.4s0.2-1.7,0.6-2.4
			c0.4-0.7,0.9-1.2,1.6-1.6c0.7-0.4,1.4-0.5,2.2-0.5c0.8,0,1.6,0.2,2.2,0.5c0.7,0.4,1.2,0.9,1.6,1.6s0.6,1.5,0.6,2.4
			c0,0.9-0.2,1.7-0.6,2.4c-0.4,0.7-0.9,1.2-1.6,1.6C642.8,213.1,642,213.3,641.2,213.3z M641.2,212.3c0.6,0,1.1-0.1,1.6-0.4
			c0.5-0.3,0.9-0.7,1.2-1.2c0.3-0.5,0.5-1.2,0.5-2c0-0.8-0.2-1.4-0.5-1.9c-0.3-0.5-0.7-0.9-1.2-1.2c-0.5-0.3-1-0.4-1.6-0.4
			c-0.6,0-1.1,0.1-1.6,0.4c-0.5,0.3-0.9,0.7-1.2,1.2c-0.3,0.5-0.4,1.2-0.4,1.9c0,0.8,0.1,1.4,0.4,2c0.3,0.5,0.7,0.9,1.2,1.2
			C640.1,212.2,640.6,212.3,641.2,212.3z M651.8,204.2c1,0,1.9,0.3,2.5,1c0.7,0.6,1,1.6,1,2.8v5.1h-1.1v-5c0-1-0.2-1.7-0.7-2.2
			c-0.5-0.5-1.1-0.8-1.9-0.8c-0.8,0-1.5,0.3-2,0.8c-0.5,0.5-0.8,1.3-0.8,2.3v4.8h-1.1v-8.7h1.1v1.5c0.3-0.5,0.7-0.9,1.2-1.2
			C650.5,204.4,651.1,204.2,651.8,204.2z M663.2,206.7v1H657v-1H663.2z M669.9,213.3c-0.8,0-1.6-0.2-2.2-0.5s-1.2-0.9-1.6-1.6
			c-0.4-0.7-0.6-1.5-0.6-2.4s0.2-1.7,0.6-2.4s0.9-1.2,1.6-1.6c0.7-0.4,1.4-0.5,2.2-0.5s1.6,0.2,2.2,0.5s1.2,0.9,1.6,1.6
			s0.6,1.5,0.6,2.4c0,0.9-0.2,1.7-0.6,2.4c-0.4,0.7-0.9,1.2-1.6,1.6C671.5,213.1,670.8,213.3,669.9,213.3z M669.9,212.3
			c0.6,0,1.1-0.1,1.6-0.4s0.9-0.7,1.2-1.2c0.3-0.5,0.5-1.2,0.5-2c0-0.8-0.2-1.4-0.5-1.9s-0.7-0.9-1.2-1.2s-1-0.4-1.6-0.4
			c-0.6,0-1.1,0.1-1.6,0.4s-0.9,0.7-1.2,1.2s-0.4,1.2-0.4,1.9c0,0.8,0.1,1.4,0.4,2s0.7,0.9,1.2,1.2
			C668.8,212.2,669.3,212.3,669.9,212.3z M680.5,204.2c1,0,1.9,0.3,2.5,1c0.7,0.6,1,1.6,1,2.8v5.1h-1.1v-5c0-1-0.2-1.7-0.7-2.2
			c-0.5-0.5-1.1-0.8-1.9-0.8c-0.8,0-1.5,0.3-2,0.8c-0.5,0.5-0.8,1.3-0.8,2.3v4.8h-1.1v-8.7h1.1v1.5c0.3-0.5,0.7-0.9,1.2-1.2
			C679.2,204.4,679.8,204.2,680.5,204.2z M694.4,208.3c0,0.4,0,0.7,0,0.9h-7.2c0,0.7,0.2,1.2,0.5,1.7c0.3,0.5,0.7,0.8,1.1,1.1
			s1,0.4,1.5,0.4c0.7,0,1.3-0.2,1.8-0.5c0.5-0.4,0.8-0.8,1-1.4h1.2c-0.2,0.9-0.7,1.6-1.4,2.1c-0.7,0.5-1.6,0.8-2.6,0.8
			c-0.8,0-1.6-0.2-2.2-0.5c-0.6-0.4-1.2-0.9-1.5-1.6c-0.4-0.7-0.5-1.5-0.5-2.4s0.2-1.7,0.5-2.4c0.4-0.7,0.9-1.2,1.5-1.6
			c0.7-0.4,1.4-0.5,2.2-0.5c0.8,0,1.5,0.2,2.2,0.5c0.6,0.4,1.1,0.8,1.4,1.5C694.2,206.9,694.4,207.6,694.4,208.3z M693.3,208.3
			c0-0.7-0.1-1.2-0.4-1.7c-0.3-0.5-0.6-0.8-1.1-1c-0.5-0.2-1-0.4-1.5-0.4c-0.8,0-1.5,0.3-2.1,0.8c-0.6,0.5-0.9,1.3-1,2.2H693.3z
			 M702,201.9v11.2h-1.1v-11.2H702z M708.6,204.2c1,0,1.9,0.3,2.5,1c0.7,0.6,1,1.6,1,2.8v5.1H711v-5c0-1-0.2-1.7-0.7-2.2
			c-0.5-0.5-1.1-0.8-1.9-0.8c-0.8,0-1.5,0.3-2,0.8c-0.5,0.5-0.8,1.3-0.8,2.3v4.8h-1.1v-8.7h1.1v1.5c0.3-0.5,0.7-0.9,1.2-1.2
			C707.3,204.4,707.9,204.2,708.6,204.2z M716.1,205.3v5.4c0,0.5,0.1,0.9,0.3,1.1c0.2,0.2,0.6,0.3,1.1,0.3h1v1h-1.2
			c-0.8,0-1.4-0.2-1.8-0.5c-0.4-0.4-0.6-1-0.6-1.8v-5.4h-1.2v-0.9h1.2v-2.2h1.1v2.2h2.4v0.9H716.1z M728.2,208.3c0,0.4,0,0.7,0,0.9
			h-7.2c0,0.7,0.2,1.2,0.5,1.7c0.3,0.5,0.7,0.8,1.1,1.1s1,0.4,1.5,0.4c0.7,0,1.3-0.2,1.8-0.5c0.5-0.4,0.8-0.8,1-1.4h1.2
			c-0.2,0.9-0.7,1.6-1.4,2.1c-0.7,0.5-1.6,0.8-2.6,0.8c-0.8,0-1.6-0.2-2.2-0.5c-0.6-0.4-1.2-0.9-1.5-1.6c-0.4-0.7-0.5-1.5-0.5-2.4
			s0.2-1.7,0.5-2.4c0.4-0.7,0.9-1.2,1.5-1.6c0.7-0.4,1.4-0.5,2.2-0.5c0.8,0,1.5,0.2,2.2,0.5c0.6,0.4,1.1,0.8,1.4,1.5
			C728.1,206.9,728.2,207.6,728.2,208.3z M727.1,208.3c0-0.7-0.1-1.2-0.4-1.7s-0.6-0.8-1.1-1c-0.5-0.2-1-0.4-1.5-0.4
			c-0.8,0-1.5,0.3-2.1,0.8c-0.6,0.5-0.9,1.3-1,2.2H727.1z M731.4,205.9c0.2-0.5,0.6-1,1.1-1.2c0.5-0.3,1.1-0.5,1.9-0.5v1.2h-0.3
			c-0.8,0-1.5,0.2-2,0.7c-0.5,0.4-0.7,1.2-0.7,2.2v4.9h-1.1v-8.7h1.1V205.9z M739.2,212l2.9-7.6h1.2l-3.5,8.7h-1.3l-3.5-8.7h1.2
			L739.2,212z M745.4,202.7c-0.2,0-0.4-0.1-0.6-0.2s-0.2-0.4-0.2-0.6c0-0.2,0.1-0.4,0.2-0.6s0.3-0.2,0.6-0.2c0.2,0,0.4,0.1,0.6,0.2
			c0.2,0.2,0.2,0.3,0.2,0.6c0,0.2-0.1,0.4-0.2,0.6C745.8,202.7,745.6,202.7,745.4,202.7z M745.9,204.4v8.7h-1.1v-8.7H745.9z
			 M756.4,208.3c0,0.4,0,0.7,0,0.9h-7.2c0,0.7,0.2,1.2,0.5,1.7c0.3,0.5,0.7,0.8,1.1,1.1c0.5,0.2,1,0.4,1.5,0.4
			c0.7,0,1.3-0.2,1.8-0.5c0.5-0.4,0.8-0.8,1-1.4h1.2c-0.2,0.9-0.7,1.6-1.4,2.1c-0.7,0.5-1.6,0.8-2.6,0.8c-0.8,0-1.6-0.2-2.2-0.5
			c-0.6-0.4-1.2-0.9-1.5-1.6c-0.4-0.7-0.5-1.5-0.5-2.4c0-0.9,0.2-1.7,0.5-2.4c0.4-0.7,0.9-1.2,1.5-1.6c0.7-0.4,1.4-0.5,2.2-0.5
			c0.8,0,1.5,0.2,2.2,0.5c0.6,0.4,1.1,0.8,1.4,1.5C756.2,206.9,756.4,207.6,756.4,208.3z M755.3,208.3c0-0.7-0.1-1.2-0.4-1.7
			c-0.3-0.5-0.6-0.8-1.1-1c-0.5-0.2-1-0.4-1.5-0.4c-0.8,0-1.5,0.3-2.1,0.8c-0.6,0.5-0.9,1.3-1,2.2H755.3z M770,204.4l-2.7,8.7h-1.1
			l-2.4-7.3l-2.4,7.3h-1.1l-2.7-8.7h1.1l2.2,7.6l2.5-7.6h1.1l2.4,7.6l2.2-7.6H770z"/>
		<path class="st2" d="M566.3,234c0.6,0,1.1,0.2,1.7,0.5c0.6,0.3,1,0.7,1.3,1.3c0.3,0.6,0.5,1.1,0.5,1.7c0,0.9-0.3,1.8-1,2.4
			c-0.7,0.7-1.5,1-2.4,1c-1,0-1.8-0.3-2.5-1c-0.7-0.7-1-1.5-1-2.4c0-0.6,0.2-1.2,0.5-1.7c0.3-0.6,0.7-1,1.3-1.3
			C565.2,234.1,565.7,234,566.3,234z"/>
		<path class="st2" d="M595.9,241.1c2-1.5,3.5-2.8,4.5-4c1.1-1.2,1.6-2.3,1.6-3.4c0-0.7-0.2-1.3-0.5-1.8c-0.4-0.4-1-0.7-1.8-0.7
			c-0.8,0-1.4,0.3-1.9,0.8c-0.4,0.5-0.7,1.2-0.7,2H596c0.1-1.2,0.4-2.1,1.1-2.8c0.7-0.7,1.5-1,2.6-1c1,0,1.9,0.3,2.5,0.9
			c0.6,0.6,1,1.4,1,2.5c0,1.3-0.5,2.5-1.6,3.8c-1.1,1.2-2.4,2.4-4,3.5h5.9v1h-7.6V241.1z M605.3,236.1c0-1.8,0.3-3.3,0.8-4.3
			c0.6-1,1.6-1.5,3-1.5c1.5,0,2.5,0.5,3,1.5c0.6,1,0.8,2.4,0.8,4.3c0,1.9-0.3,3.3-0.8,4.3c-0.6,1-1.6,1.5-3,1.5s-2.5-0.5-3-1.5
			C605.6,239.4,605.3,238,605.3,236.1z M612,236.1c0-1-0.1-1.8-0.2-2.5c-0.1-0.7-0.4-1.2-0.8-1.7c-0.4-0.4-1-0.6-1.8-0.6
			c-0.8,0-1.3,0.2-1.8,0.6c-0.4,0.4-0.7,1-0.8,1.7c-0.1,0.7-0.2,1.5-0.2,2.5c0,1,0.1,1.9,0.2,2.6c0.1,0.7,0.4,1.2,0.8,1.7
			c0.4,0.4,1,0.6,1.8,0.6c0.8,0,1.4-0.2,1.8-0.6c0.4-0.4,0.7-1,0.8-1.7C611.9,238,612,237.1,612,236.1z M625.2,235.5v1H619v-1H625.2
			z M632,241.1c2-1.5,3.5-2.8,4.5-4c1.1-1.2,1.6-2.3,1.6-3.4c0-0.7-0.2-1.3-0.5-1.8c-0.4-0.4-1-0.7-1.8-0.7c-0.8,0-1.4,0.3-1.9,0.8
			c-0.4,0.5-0.7,1.2-0.7,2h-1.1c0.1-1.2,0.4-2.1,1.1-2.8c0.7-0.7,1.5-1,2.6-1c1,0,1.9,0.3,2.5,0.9c0.6,0.6,1,1.4,1,2.5
			c0,1.3-0.5,2.5-1.6,3.8c-1.1,1.2-2.4,2.4-4,3.5h5.9v1H632V241.1z M648.6,231.4h-5.8v4.1c0.3-0.4,0.6-0.7,1.2-0.9
			c0.5-0.2,1.1-0.4,1.7-0.4c0.9,0,1.6,0.2,2.1,0.5c0.6,0.4,0.9,0.8,1.2,1.4c0.2,0.6,0.4,1.2,0.4,1.8c0,0.8-0.1,1.4-0.4,2
			c-0.3,0.6-0.7,1.1-1.3,1.4c-0.6,0.4-1.3,0.5-2.2,0.5c-1.1,0-2-0.3-2.7-0.8c-0.7-0.6-1.1-1.3-1.2-2.3h1.1c0.1,0.7,0.5,1.3,1,1.6
			c0.5,0.4,1.1,0.6,1.9,0.6c0.9,0,1.6-0.3,2.1-0.8c0.5-0.6,0.7-1.3,0.7-2.2c0-0.9-0.2-1.6-0.7-2.1c-0.5-0.5-1.2-0.8-2.1-0.8
			c-0.6,0-1.2,0.1-1.6,0.4c-0.5,0.3-0.8,0.7-1,1.2h-1.1v-6.3h6.9V231.4z M663.1,233.2l-5.2,12.8h-1.2l1.7-4.2l-3.6-8.7h1.2l3,7.5
			l2.9-7.5H663.1z M672.5,237.1c0,0.4,0,0.7,0,0.9h-7.2c0,0.7,0.2,1.2,0.5,1.7c0.3,0.5,0.7,0.8,1.1,1.1c0.5,0.2,1,0.4,1.5,0.4
			c0.7,0,1.3-0.2,1.8-0.5c0.5-0.4,0.8-0.8,1-1.4h1.2c-0.2,0.9-0.7,1.6-1.4,2.1c-0.7,0.5-1.6,0.8-2.6,0.8c-0.8,0-1.6-0.2-2.2-0.5
			c-0.6-0.4-1.2-0.9-1.5-1.6c-0.4-0.7-0.5-1.5-0.5-2.4s0.2-1.7,0.5-2.4c0.4-0.7,0.9-1.2,1.5-1.6c0.7-0.4,1.4-0.5,2.2-0.5
			c0.8,0,1.5,0.2,2.2,0.5c0.6,0.4,1.1,0.8,1.4,1.5C672.3,235.7,672.5,236.4,672.5,237.1z M671.4,237.1c0-0.7-0.1-1.2-0.4-1.7
			c-0.3-0.5-0.6-0.8-1.1-1c-0.5-0.2-1-0.4-1.5-0.4c-0.8,0-1.5,0.3-2.1,0.8c-0.6,0.5-0.9,1.3-1,2.2H671.4z M674,237.5
			c0-0.9,0.2-1.7,0.5-2.4c0.4-0.7,0.9-1.2,1.5-1.6c0.6-0.4,1.3-0.5,2.1-0.5c0.8,0,1.6,0.2,2.2,0.6c0.6,0.4,1,0.9,1.3,1.5v-1.9h1.1
			v8.7h-1.1V240c-0.3,0.6-0.7,1.1-1.3,1.5c-0.6,0.4-1.3,0.6-2.2,0.6c-0.8,0-1.5-0.2-2.1-0.5c-0.6-0.4-1.1-0.9-1.5-1.6
			C674.2,239.2,674,238.4,674,237.5z M681.7,237.6c0-0.7-0.1-1.3-0.4-1.8c-0.3-0.5-0.7-1-1.2-1.2c-0.5-0.3-1-0.4-1.6-0.4
			c-0.6,0-1.2,0.1-1.7,0.4c-0.5,0.3-0.9,0.7-1.2,1.2s-0.4,1.2-0.4,1.9s0.1,1.3,0.4,1.9c0.3,0.5,0.7,0.9,1.2,1.2
			c0.5,0.3,1,0.4,1.7,0.4c0.6,0,1.1-0.1,1.6-0.4c0.5-0.3,0.9-0.7,1.2-1.2C681.5,238.9,681.7,238.3,681.7,237.6z M686.5,234.7
			c0.2-0.5,0.6-1,1.1-1.2c0.5-0.3,1.1-0.5,1.9-0.5v1.2h-0.3c-0.8,0-1.5,0.2-2,0.7c-0.5,0.4-0.7,1.2-0.7,2.2v4.9h-1.1v-8.7h1.1V234.7
			z M694.2,242.1c-1,0-1.8-0.2-2.5-0.7c-0.6-0.5-1-1.1-1.1-1.9h1.2c0.1,0.5,0.3,0.9,0.7,1.2c0.4,0.3,1,0.5,1.7,0.5
			c0.6,0,1.1-0.1,1.4-0.4c0.3-0.3,0.5-0.6,0.5-1.1c0-0.3-0.1-0.5-0.3-0.7c-0.2-0.2-0.4-0.4-0.7-0.5c-0.3-0.1-0.7-0.2-1.2-0.4
			c-0.6-0.2-1.2-0.3-1.6-0.5c-0.4-0.2-0.8-0.4-1-0.8c-0.3-0.3-0.4-0.8-0.4-1.4c0-0.4,0.1-0.8,0.4-1.2c0.3-0.4,0.6-0.7,1.1-0.9
			c0.5-0.2,1-0.3,1.6-0.3c0.9,0,1.7,0.2,2.3,0.7c0.6,0.5,0.9,1.1,0.9,2H696c0-0.5-0.2-0.9-0.6-1.2c-0.4-0.3-0.9-0.5-1.5-0.5
			c-0.6,0-1,0.1-1.4,0.4c-0.4,0.3-0.5,0.6-0.5,1c0,0.3,0.1,0.6,0.3,0.8c0.2,0.2,0.5,0.4,0.8,0.5c0.3,0.1,0.7,0.3,1.3,0.4
			c0.6,0.2,1.1,0.3,1.5,0.5c0.4,0.2,0.7,0.4,1,0.7c0.3,0.3,0.4,0.7,0.4,1.2c0,0.5-0.1,0.9-0.4,1.2c-0.2,0.4-0.6,0.7-1.1,0.9
			C695.3,242,694.8,242.1,694.2,242.1z M707.5,242.1c-0.8,0-1.6-0.2-2.2-0.5c-0.7-0.4-1.2-0.9-1.6-1.6c-0.4-0.7-0.6-1.5-0.6-2.4
			s0.2-1.7,0.6-2.4c0.4-0.7,0.9-1.2,1.6-1.6c0.7-0.4,1.4-0.5,2.2-0.5s1.6,0.2,2.2,0.5c0.7,0.4,1.2,0.9,1.6,1.6
			c0.4,0.7,0.6,1.5,0.6,2.4c0,0.9-0.2,1.7-0.6,2.4c-0.4,0.7-0.9,1.2-1.6,1.6C709.1,241.9,708.4,242.1,707.5,242.1z M707.5,241.1
			c0.6,0,1.1-0.1,1.6-0.4c0.5-0.3,0.9-0.7,1.2-1.2c0.3-0.5,0.5-1.2,0.5-2c0-0.8-0.2-1.4-0.5-1.9s-0.7-0.9-1.2-1.2
			c-0.5-0.3-1-0.4-1.6-0.4c-0.6,0-1.1,0.1-1.6,0.4c-0.5,0.3-0.9,0.7-1.2,1.2s-0.4,1.2-0.4,1.9c0,0.8,0.1,1.4,0.4,2s0.7,0.9,1.2,1.2
			C706.4,241,706.9,241.1,707.5,241.1z M715.1,230.1v11.8H714v-11.8H715.1z M717.1,237.5c0-0.9,0.2-1.7,0.5-2.4
			c0.4-0.7,0.9-1.2,1.5-1.6c0.6-0.4,1.3-0.5,2.1-0.5c0.8,0,1.5,0.2,2.1,0.6c0.6,0.4,1.1,0.8,1.4,1.5v-5h1.1v11.8h-1.1v-2
			c-0.3,0.6-0.7,1.1-1.3,1.5c-0.6,0.4-1.3,0.6-2.1,0.6c-0.8,0-1.5-0.2-2.1-0.5c-0.6-0.4-1.1-0.9-1.5-1.6
			C717.3,239.2,717.1,238.4,717.1,237.5z M724.8,237.6c0-0.7-0.1-1.3-0.4-1.8c-0.3-0.5-0.7-1-1.2-1.2c-0.5-0.3-1-0.4-1.6-0.4
			c-0.6,0-1.2,0.1-1.7,0.4c-0.5,0.3-0.9,0.7-1.2,1.2s-0.4,1.2-0.4,1.9s0.1,1.3,0.4,1.9c0.3,0.5,0.7,0.9,1.2,1.2
			c0.5,0.3,1,0.4,1.7,0.4c0.6,0,1.1-0.1,1.6-0.4c0.5-0.3,0.9-0.7,1.2-1.2C724.6,238.9,724.8,238.3,724.8,237.6z"/>
		<path class="st2" d="M566.3,262.8c0.6,0,1.1,0.2,1.7,0.5c0.6,0.3,1,0.7,1.3,1.3c0.3,0.6,0.5,1.1,0.5,1.7c0,0.9-0.3,1.8-1,2.4
			c-0.7,0.7-1.5,1-2.4,1c-1,0-1.8-0.3-2.5-1c-0.7-0.7-1-1.5-1-2.4c0-0.6,0.2-1.2,0.5-1.7c0.3-0.6,0.7-1,1.3-1.3
			C565.2,262.9,565.7,262.8,566.3,262.8z"/>
		<path class="st2" d="M599.8,270.8c-0.7,0-1.4-0.1-2-0.4c-0.6-0.3-1-0.6-1.3-1.1c-0.3-0.5-0.5-1-0.5-1.5h1.2c0.1,0.5,0.3,1,0.7,1.4
			c0.4,0.4,1.1,0.6,1.9,0.6c0.8,0,1.4-0.2,1.8-0.6c0.4-0.4,0.7-0.9,0.7-1.5c0-0.5-0.1-0.9-0.4-1.2c-0.2-0.3-0.5-0.5-0.9-0.7
			c-0.4-0.1-0.9-0.3-1.5-0.5c-0.8-0.2-1.3-0.4-1.8-0.6c-0.4-0.2-0.8-0.5-1.1-0.9s-0.5-1-0.5-1.6c0-0.6,0.2-1.1,0.5-1.5
			c0.3-0.5,0.7-0.8,1.3-1.1c0.5-0.3,1.2-0.4,1.9-0.4c1,0,1.9,0.3,2.5,0.8c0.6,0.5,1,1.2,1.1,2h-1.2c-0.1-0.5-0.3-0.9-0.8-1.2
			c-0.4-0.4-1-0.5-1.7-0.5c-0.7,0-1.2,0.2-1.7,0.5c-0.4,0.4-0.7,0.8-0.7,1.5c0,0.5,0.1,0.9,0.4,1.2c0.2,0.3,0.6,0.5,0.9,0.6
			c0.4,0.1,0.9,0.3,1.5,0.5c0.7,0.2,1.3,0.4,1.8,0.6c0.4,0.2,0.8,0.5,1.1,0.9c0.3,0.4,0.5,1,0.5,1.6c0,0.5-0.1,1-0.4,1.5
			c-0.3,0.5-0.7,0.8-1.2,1.1C601.2,270.7,600.6,270.8,599.8,270.8z M607,262.9v5.4c0,0.5,0.1,0.9,0.3,1.1c0.2,0.2,0.6,0.3,1.1,0.3h1
			v1h-1.2c-0.8,0-1.4-0.2-1.8-0.5c-0.4-0.4-0.6-1-0.6-1.8v-5.4h-1.2V262h1.2v-2.2h1.1v2.2h2.4v0.9H607z M618.8,262v8.7h-1.1v-1.5
			c-0.3,0.5-0.7,1-1.2,1.2c-0.5,0.3-1.1,0.4-1.8,0.4c-1,0-1.9-0.3-2.6-1c-0.7-0.6-1-1.6-1-2.8V262h1.1v5c0,0.9,0.2,1.7,0.7,2.2
			c0.5,0.5,1.1,0.8,1.9,0.8c0.8,0,1.5-0.3,2-0.8c0.5-0.5,0.8-1.3,0.8-2.4V262H618.8z M620.9,266.3c0-0.9,0.2-1.7,0.5-2.4
			c0.4-0.7,0.9-1.2,1.5-1.6c0.6-0.4,1.3-0.5,2.1-0.5c0.8,0,1.5,0.2,2.1,0.6c0.6,0.4,1.1,0.8,1.4,1.5v-5h1.1v11.8h-1.1v-2
			c-0.3,0.6-0.7,1.1-1.3,1.5c-0.6,0.4-1.3,0.6-2.1,0.6c-0.8,0-1.5-0.2-2.1-0.5c-0.6-0.4-1.1-0.9-1.5-1.6
			C621,268,620.9,267.2,620.9,266.3z M628.5,266.4c0-0.7-0.1-1.3-0.4-1.8c-0.3-0.5-0.7-1-1.2-1.2c-0.5-0.3-1-0.4-1.6-0.4
			c-0.6,0-1.2,0.1-1.7,0.4c-0.5,0.3-0.9,0.7-1.2,1.2s-0.4,1.2-0.4,1.9s0.1,1.3,0.4,1.9c0.3,0.5,0.7,0.9,1.2,1.2
			c0.5,0.3,1,0.4,1.7,0.4c0.6,0,1.1-0.1,1.6-0.4c0.5-0.3,0.9-0.7,1.2-1.2S628.5,267.1,628.5,266.4z M640.1,265.9c0,0.4,0,0.7,0,0.9
			h-7.2c0,0.7,0.2,1.2,0.5,1.7c0.3,0.5,0.7,0.8,1.1,1.1c0.5,0.2,1,0.4,1.5,0.4c0.7,0,1.3-0.2,1.8-0.5c0.5-0.4,0.8-0.8,1-1.4h1.2
			c-0.2,0.9-0.7,1.6-1.4,2.1c-0.7,0.5-1.6,0.8-2.6,0.8c-0.8,0-1.6-0.2-2.2-0.5c-0.6-0.4-1.2-0.9-1.5-1.6c-0.4-0.7-0.5-1.5-0.5-2.4
			s0.2-1.7,0.5-2.4c0.4-0.7,0.9-1.2,1.5-1.6c0.7-0.4,1.4-0.5,2.2-0.5c0.8,0,1.5,0.2,2.2,0.5c0.6,0.4,1.1,0.8,1.4,1.5
			C639.9,264.5,640.1,265.2,640.1,265.9z M638.9,265.9c0-0.7-0.1-1.2-0.4-1.7c-0.3-0.5-0.6-0.8-1.1-1c-0.5-0.2-1-0.4-1.5-0.4
			c-0.8,0-1.5,0.3-2.1,0.8c-0.6,0.5-0.9,1.3-1,2.2H638.9z M646.2,261.8c1,0,1.9,0.3,2.5,1c0.7,0.6,1,1.6,1,2.8v5.1h-1.1v-5
			c0-1-0.2-1.7-0.7-2.2c-0.5-0.5-1.1-0.8-1.9-0.8c-0.8,0-1.5,0.3-2,0.8c-0.5,0.5-0.8,1.3-0.8,2.3v4.8h-1.1V262h1.1v1.5
			c0.3-0.5,0.7-0.9,1.2-1.2C645,262,645.6,261.8,646.2,261.8z M653.7,262.9v5.4c0,0.5,0.1,0.9,0.3,1.1c0.2,0.2,0.6,0.3,1.1,0.3h1v1
			h-1.2c-0.8,0-1.4-0.2-1.8-0.5c-0.4-0.4-0.6-1-0.6-1.8v-5.4h-1.2V262h1.2v-2.2h1.1v2.2h2.4v0.9H653.7z M659,268.9l-1.7,4.2h-0.8
			l1.2-4.2H659z M676.6,262l-2.7,8.7h-1.1l-2.4-7.3l-2.4,7.3h-1.1l-2.7-8.7h1.1l2.2,7.6l2.5-7.6h1.1l2.4,7.6l2.2-7.6H676.6z
			 M682,270.9c-0.8,0-1.6-0.2-2.2-0.5c-0.7-0.4-1.2-0.9-1.6-1.6c-0.4-0.7-0.6-1.5-0.6-2.4s0.2-1.7,0.6-2.4c0.4-0.7,0.9-1.2,1.6-1.6
			c0.7-0.4,1.4-0.5,2.2-0.5c0.8,0,1.6,0.2,2.2,0.5c0.7,0.4,1.2,0.9,1.6,1.6c0.4,0.7,0.6,1.5,0.6,2.4c0,0.9-0.2,1.7-0.6,2.4
			c-0.4,0.7-0.9,1.2-1.6,1.6C683.5,270.7,682.8,270.9,682,270.9z M682,269.9c0.6,0,1.1-0.1,1.6-0.4c0.5-0.3,0.9-0.7,1.2-1.2
			c0.3-0.5,0.5-1.2,0.5-2c0-0.8-0.2-1.4-0.5-1.9c-0.3-0.5-0.7-0.9-1.2-1.2c-0.5-0.3-1-0.4-1.6-0.4c-0.6,0-1.1,0.1-1.6,0.4
			c-0.5,0.3-0.9,0.7-1.2,1.2c-0.3,0.5-0.4,1.2-0.4,1.9c0,0.8,0.1,1.4,0.4,2c0.3,0.5,0.7,0.9,1.2,1.2
			C680.9,269.8,681.4,269.9,682,269.9z M689.5,263.5c0.2-0.5,0.6-1,1.1-1.2c0.5-0.3,1.1-0.5,1.9-0.5v1.2h-0.3c-0.8,0-1.5,0.2-2,0.7
			s-0.7,1.2-0.7,2.2v4.9h-1.1V262h1.1V263.5z M698.9,270.7l-3.6-3.9v3.9h-1.1v-11.8h1.1v7l3.5-3.9h1.6l-4.1,4.3l4.2,4.4H698.9z
			 M702.5,260.3c-0.2,0-0.4-0.1-0.6-0.2c-0.2-0.2-0.2-0.4-0.2-0.6c0-0.2,0.1-0.4,0.2-0.6c0.2-0.2,0.3-0.2,0.6-0.2
			c0.2,0,0.4,0.1,0.6,0.2c0.2,0.2,0.2,0.3,0.2,0.6c0,0.2-0.1,0.4-0.2,0.6C702.9,260.3,702.7,260.3,702.5,260.3z M703,262v8.7h-1.1
			V262H703z M709.7,261.8c1,0,1.9,0.3,2.5,1c0.7,0.6,1,1.6,1,2.8v5.1h-1.1v-5c0-1-0.2-1.7-0.7-2.2c-0.5-0.5-1.1-0.8-1.9-0.8
			c-0.8,0-1.5,0.3-2,0.8c-0.5,0.5-0.8,1.3-0.8,2.3v4.8h-1.1V262h1.1v1.5c0.3-0.5,0.7-0.9,1.2-1.2C708.4,262,709,261.8,709.7,261.8z
			 M719.3,261.9c0.8,0,1.5,0.2,2.1,0.6c0.6,0.4,1.1,0.9,1.3,1.5V262h1.1v9c0,0.8-0.2,1.5-0.5,2.1c-0.3,0.6-0.8,1.1-1.5,1.4
			c-0.6,0.3-1.3,0.5-2.1,0.5c-1.1,0-2-0.3-2.8-0.8c-0.7-0.5-1.2-1.3-1.4-2.2h1.1c0.2,0.6,0.5,1.1,1.1,1.5c0.5,0.4,1.2,0.5,2,0.5
			c0.6,0,1.1-0.1,1.5-0.4c0.4-0.2,0.8-0.6,1.1-1.1c0.3-0.5,0.4-1,0.4-1.7v-2.2c-0.3,0.6-0.7,1.1-1.3,1.5c-0.6,0.4-1.3,0.6-2.1,0.6
			c-0.8,0-1.5-0.2-2.1-0.5c-0.6-0.4-1.1-0.9-1.5-1.6c-0.4-0.7-0.5-1.5-0.5-2.4c0-0.9,0.2-1.7,0.5-2.4c0.4-0.7,0.9-1.2,1.5-1.6
			C717.8,262.1,718.5,261.9,719.3,261.9z M722.8,266.4c0-0.7-0.1-1.3-0.4-1.8c-0.3-0.5-0.7-1-1.2-1.2c-0.5-0.3-1-0.4-1.6-0.4
			c-0.6,0-1.2,0.1-1.7,0.4c-0.5,0.3-0.9,0.7-1.2,1.2c-0.3,0.5-0.4,1.2-0.4,1.9c0,0.7,0.1,1.3,0.4,1.9c0.3,0.5,0.7,0.9,1.2,1.2
			c0.5,0.3,1,0.4,1.7,0.4c0.6,0,1.1-0.1,1.6-0.4c0.5-0.3,0.9-0.7,1.2-1.2C722.7,267.7,722.8,267.1,722.8,266.4z M732,263.9
			c0.3-0.6,0.7-1.1,1.3-1.5c0.6-0.4,1.3-0.6,2.2-0.6c0.8,0,1.5,0.2,2.1,0.5c0.6,0.4,1.1,0.9,1.5,1.6c0.4,0.7,0.5,1.5,0.5,2.4
			c0,0.9-0.2,1.7-0.5,2.4c-0.4,0.7-0.8,1.2-1.5,1.6c-0.6,0.4-1.3,0.5-2.1,0.5c-0.8,0-1.5-0.2-2.2-0.6c-0.6-0.4-1-0.9-1.3-1.5v6h-1.1
			V262h1.1V263.9z M738.5,266.3c0-0.7-0.1-1.3-0.4-1.9s-0.7-0.9-1.2-1.2c-0.5-0.3-1-0.4-1.7-0.4c-0.6,0-1.1,0.1-1.6,0.4
			c-0.5,0.3-0.9,0.7-1.2,1.2c-0.3,0.5-0.4,1.1-0.4,1.8c0,0.7,0.1,1.3,0.4,1.9c0.3,0.5,0.7,0.9,1.2,1.2c0.5,0.3,1,0.4,1.6,0.4
			c0.6,0,1.2-0.1,1.7-0.4c0.5-0.3,0.9-0.7,1.2-1.2C738.3,267.7,738.5,267.1,738.5,266.3z M742.8,263.5c0.2-0.5,0.6-1,1.1-1.2
			c0.5-0.3,1.1-0.5,1.9-0.5v1.2h-0.3c-0.8,0-1.5,0.2-2,0.7c-0.5,0.4-0.7,1.2-0.7,2.2v4.9h-1.1V262h1.1V263.5z M751.3,270.9
			c-0.8,0-1.6-0.2-2.2-0.5c-0.7-0.4-1.2-0.9-1.6-1.6c-0.4-0.7-0.6-1.5-0.6-2.4s0.2-1.7,0.6-2.4c0.4-0.7,0.9-1.2,1.6-1.6
			c0.7-0.4,1.4-0.5,2.2-0.5c0.8,0,1.6,0.2,2.2,0.5c0.7,0.4,1.2,0.9,1.6,1.6c0.4,0.7,0.6,1.5,0.6,2.4c0,0.9-0.2,1.7-0.6,2.4
			c-0.4,0.7-0.9,1.2-1.6,1.6C752.9,270.7,752.1,270.9,751.3,270.9z M751.3,269.9c0.6,0,1.1-0.1,1.6-0.4c0.5-0.3,0.9-0.7,1.2-1.2
			c0.3-0.5,0.5-1.2,0.5-2c0-0.8-0.2-1.4-0.5-1.9c-0.3-0.5-0.7-0.9-1.2-1.2c-0.5-0.3-1-0.4-1.6-0.4c-0.6,0-1.1,0.1-1.6,0.4
			c-0.5,0.3-0.9,0.7-1.2,1.2c-0.3,0.5-0.4,1.2-0.4,1.9c0,0.8,0.1,1.4,0.4,2c0.3,0.5,0.7,0.9,1.2,1.2
			C750.2,269.8,750.7,269.9,751.3,269.9z M761.2,262.9h-2v7.8H758v-7.8h-1.2V262h1.2v-0.6c0-0.9,0.2-1.6,0.7-2.1
			c0.5-0.4,1.3-0.7,2.4-0.7v1c-0.7,0-1.2,0.1-1.5,0.4c-0.3,0.3-0.4,0.7-0.4,1.4v0.6h2V262.9z M770.8,265.9c0,0.4,0,0.7,0,0.9h-7.2
			c0,0.7,0.2,1.2,0.5,1.7c0.3,0.5,0.7,0.8,1.1,1.1c0.5,0.2,1,0.4,1.5,0.4c0.7,0,1.3-0.2,1.8-0.5c0.5-0.4,0.8-0.8,1-1.4h1.2
			c-0.2,0.9-0.7,1.6-1.4,2.1c-0.7,0.5-1.6,0.8-2.6,0.8c-0.8,0-1.6-0.2-2.2-0.5c-0.6-0.4-1.2-0.9-1.5-1.6c-0.4-0.7-0.5-1.5-0.5-2.4
			s0.2-1.7,0.5-2.4c0.4-0.7,0.9-1.2,1.5-1.6c0.7-0.4,1.4-0.5,2.2-0.5c0.8,0,1.5,0.2,2.2,0.5c0.6,0.4,1.1,0.8,1.4,1.5
			C770.7,264.5,770.8,265.2,770.8,265.9z M769.7,265.9c0-0.7-0.1-1.2-0.4-1.7c-0.3-0.5-0.6-0.8-1.1-1c-0.5-0.2-1-0.4-1.5-0.4
			c-0.8,0-1.5,0.3-2.1,0.8c-0.6,0.5-0.9,1.3-1,2.2H769.7z M775.9,270.9c-1,0-1.8-0.2-2.5-0.7c-0.6-0.5-1-1.1-1.1-1.9h1.2
			c0.1,0.5,0.3,0.9,0.7,1.2c0.4,0.3,1,0.5,1.7,0.5c0.6,0,1.1-0.1,1.4-0.4c0.3-0.3,0.5-0.6,0.5-1.1c0-0.3-0.1-0.5-0.3-0.7
			c-0.2-0.2-0.4-0.4-0.7-0.5c-0.3-0.1-0.7-0.2-1.2-0.4c-0.6-0.2-1.2-0.3-1.6-0.5c-0.4-0.2-0.8-0.4-1-0.8c-0.3-0.3-0.4-0.8-0.4-1.4
			c0-0.4,0.1-0.8,0.4-1.2c0.3-0.4,0.6-0.7,1.1-0.9c0.5-0.2,1-0.3,1.6-0.3c0.9,0,1.7,0.2,2.3,0.7c0.6,0.5,0.9,1.1,0.9,2h-1.1
			c0-0.5-0.2-0.9-0.6-1.2c-0.4-0.3-0.9-0.5-1.5-0.5c-0.6,0-1,0.1-1.4,0.4c-0.4,0.3-0.5,0.6-0.5,1c0,0.3,0.1,0.6,0.3,0.8
			c0.2,0.2,0.5,0.4,0.8,0.5c0.3,0.1,0.7,0.3,1.3,0.4c0.6,0.2,1.1,0.3,1.5,0.5c0.4,0.2,0.7,0.4,1,0.7c0.3,0.3,0.4,0.7,0.4,1.2
			c0,0.5-0.1,0.9-0.4,1.2c-0.2,0.4-0.6,0.7-1.1,0.9C777,270.8,776.5,270.9,775.9,270.9z M784,270.9c-1,0-1.8-0.2-2.5-0.7
			c-0.6-0.5-1-1.1-1.1-1.9h1.2c0.1,0.5,0.3,0.9,0.7,1.2c0.4,0.3,1,0.5,1.7,0.5c0.6,0,1.1-0.1,1.4-0.4c0.3-0.3,0.5-0.6,0.5-1.1
			c0-0.3-0.1-0.5-0.3-0.7c-0.2-0.2-0.4-0.4-0.7-0.5c-0.3-0.1-0.7-0.2-1.2-0.4c-0.6-0.2-1.2-0.3-1.6-0.5c-0.4-0.2-0.8-0.4-1-0.8
			c-0.3-0.3-0.4-0.8-0.4-1.4c0-0.4,0.1-0.8,0.4-1.2c0.3-0.4,0.6-0.7,1.1-0.9c0.5-0.2,1-0.3,1.6-0.3c0.9,0,1.7,0.2,2.3,0.7
			c0.6,0.5,0.9,1.1,0.9,2h-1.1c0-0.5-0.2-0.9-0.6-1.2c-0.4-0.3-0.9-0.5-1.5-0.5c-0.6,0-1,0.1-1.4,0.4c-0.4,0.3-0.5,0.6-0.5,1
			c0,0.3,0.1,0.6,0.3,0.8c0.2,0.2,0.5,0.4,0.8,0.5c0.3,0.1,0.7,0.3,1.3,0.4c0.6,0.2,1.1,0.3,1.5,0.5c0.4,0.2,0.7,0.4,1,0.7
			c0.3,0.3,0.4,0.7,0.4,1.2c0,0.5-0.1,0.9-0.4,1.2c-0.2,0.4-0.6,0.7-1.1,0.9C785.2,270.8,784.6,270.9,784,270.9z M789.8,260.3
			c-0.2,0-0.4-0.1-0.6-0.2s-0.2-0.4-0.2-0.6c0-0.2,0.1-0.4,0.2-0.6s0.3-0.2,0.6-0.2c0.2,0,0.4,0.1,0.6,0.2c0.2,0.2,0.2,0.3,0.2,0.6
			c0,0.2-0.1,0.4-0.2,0.6C790.2,260.3,790,260.3,789.8,260.3z M790.3,262v8.7h-1.1V262H790.3z M796.7,270.9c-0.8,0-1.6-0.2-2.2-0.5
			c-0.7-0.4-1.2-0.9-1.6-1.6c-0.4-0.7-0.6-1.5-0.6-2.4s0.2-1.7,0.6-2.4c0.4-0.7,0.9-1.2,1.6-1.6c0.7-0.4,1.4-0.5,2.2-0.5
			c0.8,0,1.6,0.2,2.2,0.5c0.7,0.4,1.2,0.9,1.6,1.6c0.4,0.7,0.6,1.5,0.6,2.4c0,0.9-0.2,1.7-0.6,2.4c-0.4,0.7-0.9,1.2-1.6,1.6
			C798.3,270.7,797.5,270.9,796.7,270.9z M796.7,269.9c0.6,0,1.1-0.1,1.6-0.4c0.5-0.3,0.9-0.7,1.2-1.2c0.3-0.5,0.5-1.2,0.5-2
			c0-0.8-0.2-1.4-0.5-1.9c-0.3-0.5-0.7-0.9-1.2-1.2c-0.5-0.3-1-0.4-1.6-0.4c-0.6,0-1.1,0.1-1.6,0.4c-0.5,0.3-0.9,0.7-1.2,1.2
			c-0.3,0.5-0.4,1.2-0.4,1.9c0,0.8,0.1,1.4,0.4,2c0.3,0.5,0.7,0.9,1.2,1.2C795.6,269.8,796.1,269.9,796.7,269.9z M807.2,261.8
			c1,0,1.9,0.3,2.5,1c0.7,0.6,1,1.6,1,2.8v5.1h-1.1v-5c0-1-0.2-1.7-0.7-2.2c-0.5-0.5-1.1-0.8-1.9-0.8c-0.8,0-1.5,0.3-2,0.8
			c-0.5,0.5-0.8,1.3-0.8,2.3v4.8h-1.1V262h1.1v1.5c0.3-0.5,0.7-0.9,1.2-1.2C806,262,806.6,261.8,807.2,261.8z M813.5,270.8
			c-0.2,0-0.4-0.1-0.6-0.2c-0.2-0.2-0.2-0.4-0.2-0.6c0-0.2,0.1-0.4,0.2-0.6c0.2-0.2,0.3-0.2,0.6-0.2c0.2,0,0.4,0.1,0.6,0.2
			c0.2,0.1,0.2,0.3,0.2,0.6c0,0.2-0.1,0.4-0.2,0.6C813.9,270.7,813.7,270.8,813.5,270.8z"/>
		<path class="st1" d="M586.1,119.9h206.4v68.9H586.1V119.9z"/>
		<path class="st2" d="M603,148.2c-1.3,0-2.5-0.3-3.6-0.9c-1.1-0.6-2-1.5-2.6-2.6c-0.6-1.1-1-2.3-1-3.7s0.3-2.6,1-3.7
			c0.6-1.1,1.5-1.9,2.6-2.5c1.1-0.6,2.3-0.9,3.6-0.9c1.3,0,2.5,0.3,3.6,0.9c1.1,0.6,2,1.5,2.6,2.5c0.6,1.1,1,2.3,1,3.7
			s-0.3,2.6-1,3.7c-0.6,1.1-1.5,1.9-2.6,2.6C605.5,147.9,604.3,148.2,603,148.2z M603,145.1c1.1,0,2-0.4,2.7-1.1c0.7-0.8,1-1.7,1-3
			c0-1.2-0.3-2.2-1-3c-0.7-0.7-1.6-1.1-2.7-1.1s-2,0.4-2.7,1.1c-0.7,0.7-1,1.7-1,3c0,1.2,0.3,2.2,1,3
			C601,144.7,601.9,145.1,603,145.1z M624.7,148.1h-3.4l-5.7-8.7v8.7h-3.4v-14h3.4l5.7,8.7V134h3.4V148.1z M630.6,145.4h4.5v2.6
			h-7.9v-14h3.4V145.4z M640.1,134v14h-3.4v-14H640.1z M655.1,148.1h-3.4l-5.7-8.7v8.7h-3.4v-14h3.4l5.7,8.7V134h3.4V148.1z
			 M661,136.8v2.8h4.6v2.6H661v3.1h5.2v2.7h-8.6v-14h8.6v2.8H661z M676.1,134v14h-3.4v-14H676.1z M691.1,148.1h-3.4l-5.7-8.7v8.7
			h-3.4v-14h3.4l5.7,8.7V134h3.4V148.1z M703.7,134v2.8H700v11.3h-3.4v-11.3h-3.7V134H703.7z M708.9,136.8v2.8h4.6v2.6h-4.6v3.1h5.2
			v2.7h-8.6v-14h8.6v2.8H708.9z M723.4,148.1l-2.9-5.3h-0.8v5.3h-3.4v-14h5.8c1.1,0,2,0.2,2.8,0.6c0.8,0.4,1.4,0.9,1.8,1.6
			c0.4,0.7,0.6,1.4,0.6,2.2c0,0.9-0.3,1.8-0.8,2.5c-0.5,0.7-1.3,1.2-2.3,1.5l3.2,5.6H723.4z M719.7,140.3h2.1c0.6,0,1.1-0.2,1.4-0.5
			c0.3-0.3,0.5-0.8,0.5-1.3c0-0.5-0.2-0.9-0.5-1.2c-0.3-0.3-0.8-0.5-1.4-0.5h-2.1V140.3z M742.5,134l-5,14h-4.3l-5-14h3.6l3.5,10.6
			l3.5-10.6H742.5z M747.3,134v14h-3.4v-14H747.3z M753.2,136.8v2.8h4.6v2.6h-4.6v3.1h5.2v2.7h-8.6v-14h8.6v2.8H753.2z M779.9,134
			l-3.7,14h-4.1l-2.2-9.2l-2.3,9.2h-4.1l-3.6-14h3.7l2,10.2l2.5-10.2h3.8l2.4,10.2l2-10.2H779.9z"/>
	</g>
</g>
</svg>
